<?xml version="1.0" encoding="utf-8" standalone="yes"?>
<!DOCTYPE svg PUBLIC "-//W3C//DTD SVG 1.1//EN" "http://www.w3.org/Graphics/SVG/1.1/DTD/svg11.dtd">
<svg width="793" height="349" viewBox="0 0 793 349" style="fill:none;stroke:none;fill-rule:evenodd;clip-rule:evenodd;stroke-linecap:round;stroke-linejoin:round;stroke-miterlimit:1.5;" version="1.1" xmlns="http://www.w3.org/2000/svg" xmlns:xlink="http://www.w3.org/1999/xlink"><style id="fontImports">@import url("https://fonts.googleapis.com/css2?family=Roboto:wght@400;700&amp;display=block");</style><g id="items" style="isolation: isolate"><g id="blend" style="mix-blend-mode:normal"><g id="g-root-ro_zqwo0r1xyhiiz-fill" data-item-order="999980200" data-item-id="ro_zqwo0r1xyhiiz" data-item-class="Shape Stroke Fill" data-item-index="none" data-renderer-id="0" transform="translate(290, 15)"><g id="ro_zqwo0r1xyhiiz-fill" stroke="none" fill="#505050"><g><path d="M 34 10L 118 10C 118 10 142 10 142 34L 142 136C 142 136 142 160 118 160L 34 160C 34 160 10 160 10 136L 10 34C 10 34 10 10 34 10"></path></g></g></g><g id="g-root-ro_1ut0psr1xyk9al-fill" data-item-order="999983800" data-item-id="ro_1ut0psr1xyk9al" data-item-class="Shape Stroke Fill" data-item-index="none" data-renderer-id="0" transform="translate(470, 3)"><g id="ro_1ut0psr1xyk9al-fill" stroke="none" fill="#404b29"><g><path d="M 22 10L 298 10C 298 10 310 10 310 22L 310 52C 310 52 310 64 298 64L 22 64C 22 64 10 64 10 52L 10 22C 10 22 10 10 22 10"></path></g></g></g><g id="g-root-ro_1cymbvf1xyix3d-fill" data-item-order="999987688" data-item-id="ro_1cymbvf1xyix3d" data-item-class="Shape Stroke Fill" data-item-index="none" data-renderer-id="0" transform="translate(242, 201)"><g id="ro_1cymbvf1xyix3d-fill" stroke="none" fill="#2b503e"><g><path d="M 22 10L 226 10C 226 10 238 10 238 22L 238 52C 238 52 238 64 226 64L 22 64C 22 64 10 64 10 52L 10 22C 10 22 10 10 22 10"></path></g></g></g><g id="g-root-ro_3zbff1xylpmr-fill" data-item-order="999988984" data-item-id="ro_3zbff1xylpmr" data-item-class="Shape Stroke Fill" data-item-index="none" data-renderer-id="0" transform="translate(38, 3)"><g id="ro_3zbff1xylpmr-fill" stroke="none" fill="#293f64"><g><path d="M 22 10L 202 10C 202 10 214 10 214 22L 214 52C 214 52 214 64 202 64L 22 64C 22 64 10 64 10 52L 10 22C 10 22 10 10 22 10"></path></g></g></g><g id="g-root-chea_4mx6zf1xykbus-fill" data-item-order="1000000000" data-item-id="chea_4mx6zf1xykbus" data-item-class="Icon Stroke" data-item-index="none" data-renderer-id="0" transform="translate(482, 15)"></g><g id="g-root-cu_1q9gd5n1xylq8f-fill" data-item-order="1000000000" data-item-id="cu_1q9gd5n1xylq8f" data-item-class="Curve Stroke ColorStrokeBlack" data-item-index="none" data-renderer-id="0" transform="translate(242, 30)"></g><g id="g-root-tx_affordab_92qp3v1xykb2j-fill" data-item-order="1000000000" data-item-id="tx_affordab_92qp3v1xykb2j" data-item-class="Label Stroke" data-item-index="none" data-renderer-id="0" transform="translate(518, 18)"><g id="tx_affordab_92qp3v1xykb2j-fill" stroke="none" fill="#A8DD38"><g><text style="font: 20px Roboto, sans-serif; white-space: pre;" font-size="20px" font-family="Roboto, sans-serif"><tspan x="17.18" y="34" dominant-baseline="ideographic">Affordable Replacements</tspan></text></g></g></g><g id="g-root-bag_18mjo9n1xyhhqa-fill" data-item-order="1000000000" data-item-id="bag_18mjo9n1xyhhqa" data-item-class="Icon Stroke" data-item-index="none" data-renderer-id="0" transform="translate(332, 39)"></g><g id="g-root-cu_1lu9c4b1xylnuy-fill" data-item-order="1000000000" data-item-id="cu_1lu9c4b1xylnuy" data-item-class="Curve Stroke ColorStrokeBlack" data-item-index="none" data-renderer-id="0" transform="translate(422, 30)"></g><g id="g-root-tx_engineco_1lxdpjv1xykav4-fill" data-item-order="1000000000" data-item-id="tx_engineco_1lxdpjv1xykav4" data-item-class="Label Stroke" data-item-index="none" data-renderer-id="0" transform="translate(2, 69)"><g id="tx_engineco_1lxdpjv1xykav4-fill" stroke="none" fill="#A3A3A3"><g><text style="font: 20px Roboto, sans-serif; white-space: pre;" font-size="20px" font-family="Roboto, sans-serif"><tspan x="16.42" y="34" dominant-baseline="ideographic">Engine Components</tspan></text></g></g></g><g id="g-root-cu_1cymbvf1xylpfm-fill" data-item-order="1000000000" data-item-id="cu_1cymbvf1xylpfm" data-item-class="Curve Stroke ColorStrokeBlack" data-item-index="none" data-renderer-id="0" transform="translate(200, 57)"></g><g id="g-root-cu_142zbmj1xylq8d-fill" data-item-order="1000000000" data-item-id="cu_142zbmj1xylq8d" data-item-class="Curve Stroke ColorStrokeBlack" data-item-index="none" data-renderer-id="0" transform="translate(200, 57)"></g><g id="g-root-cu_142zbmj1xylq8f-fill" data-item-order="1000000000" data-item-id="cu_142zbmj1xylq8f" data-item-class="Curve Stroke ColorStrokeBlack" data-item-index="none" data-renderer-id="0" transform="translate(200, 57)"></g><g id="g-root-cu_18istqz1xylq81-fill" data-item-order="1000000000" data-item-id="cu_18istqz1xylq81" data-item-class="Curve Stroke ColorStrokeBlack" data-item-index="none" data-renderer-id="0" transform="translate(494, 57)"></g><g id="g-root-cu_znsal71xylnv0-fill" data-item-order="1000000000" data-item-id="cu_znsal71xylnv0" data-item-class="Curve Stroke ColorStrokeBlack" data-item-index="none" data-renderer-id="0" transform="translate(494, 57)"></g><g id="g-root-cu_v7ysgr1xylona-fill" data-item-order="1000000000" data-item-id="cu_v7ysgr1xylona" data-item-class="Curve Stroke ColorStrokeBlack" data-item-index="none" data-renderer-id="0" transform="translate(494, 57)"></g><g id="g-root-tx_costsavi_18mjo9n1xyk9ab-fill" data-item-order="1000000000" data-item-id="tx_costsavi_18mjo9n1xyk9ab" data-item-class="Label Stroke" data-item-index="none" data-renderer-id="0" transform="translate(518, 69)"><g id="tx_costsavi_18mjo9n1xyk9ab-fill" stroke="none" fill="#A3A3A3"><g><text style="font: 20px Roboto, sans-serif; white-space: pre;" font-size="20px" font-family="Roboto, sans-serif"><tspan x="12.03" y="34" dominant-baseline="ideographic">Cost Savings</tspan></text></g></g></g><g id="g-root-tx_bodypart_1lxdpjv1xykav5-fill" data-item-order="1000000000" data-item-id="tx_bodypart_1lxdpjv1xykav5" data-item-class="Label Stroke" data-item-index="none" data-renderer-id="0" transform="translate(86, 105)"><g id="tx_bodypart_1lxdpjv1xykav5-fill" stroke="none" fill="#A3A3A3"><g><text style="font: 20px Roboto, sans-serif; white-space: pre;" font-size="20px" font-family="Roboto, sans-serif"><tspan x="15.48" y="34" dominant-baseline="ideographic">Body Parts</tspan></text></g></g></g><g id="g-root-tx_salvagey_1d2d6e31xyhgy1-fill" data-item-order="1000000000" data-item-id="tx_salvagey_1d2d6e31xyhgy1" data-item-class="Label Stroke" data-item-index="none" data-renderer-id="0" transform="translate(314, 93)"><g id="tx_salvagey_1d2d6e31xyhgy1-fill" stroke="none" fill="#A3A3A3"><g><text style="font: 20px Roboto, sans-serif; white-space: pre;" font-size="20px" font-family="Roboto, sans-serif"><tspan x="14.6" y="34" dominant-baseline="ideographic">Salvage </tspan><tspan x="24.34" y="58" dominant-baseline="ideographic">Yards</tspan></text></g></g></g><g id="g-root-tx_highqual_zqwo0r1xyka30-fill" data-item-order="1000000000" data-item-id="tx_highqual_zqwo0r1xyka30" data-item-class="Label Stroke" data-item-index="none" data-renderer-id="0" transform="translate(518, 105)"><g id="tx_highqual_zqwo0r1xyka30-fill" stroke="none" fill="#A3A3A3"><g><text style="font: 20px Roboto, sans-serif; white-space: pre;" font-size="20px" font-family="Roboto, sans-serif"><tspan x="13.66" y="34" dominant-baseline="ideographic">High-Quality Parts</tspan></text></g></g></g><g id="g-root-tx_interior_1d1qpaz1xykbnu-fill" data-item-order="1000000000" data-item-id="tx_interior_1d1qpaz1xykbnu" data-item-class="Label Stroke" data-item-index="none" data-renderer-id="0" transform="translate(74, 141)"><g id="tx_interior_1d1qpaz1xykbnu-fill" stroke="none" fill="#A3A3A3"><g><text style="font: 20px Roboto, sans-serif; white-space: pre;" font-size="20px" font-family="Roboto, sans-serif"><tspan x="12.08" y="34" dominant-baseline="ideographic">Interior Parts</tspan></text></g></g></g><g id="g-root-tx_ecofrien_zqwo0r1xyka31-fill" data-item-order="1000000000" data-item-id="tx_ecofrien_zqwo0r1xyka31" data-item-class="Label Stroke" data-item-index="none" data-renderer-id="0" transform="translate(518, 141)"><g id="tx_ecofrien_zqwo0r1xyka31-fill" stroke="none" fill="#A3A3A3"><g><text style="font: 20px Roboto, sans-serif; white-space: pre;" font-size="20px" font-family="Roboto, sans-serif"><tspan x="14.85" y="34" dominant-baseline="ideographic">Eco-Friendly Options</tspan></text></g></g></g><g id="g-root-cu_1q9gd5n1xylq8c-fill" data-item-order="1000000000" data-item-id="cu_1q9gd5n1xylq8c" data-item-class="Curve Stroke ColorStrokeBlack" data-item-index="none" data-renderer-id="0" transform="translate(356, 165)"></g><g id="g-root-10_4jstjv1xyloui-fill" data-item-order="1000000000" data-item-id="10_4jstjv1xyloui" data-item-class="Icon Stroke" data-item-index="none" data-renderer-id="0" transform="translate(200, 15)"></g><g id="g-root-1_1cymbvf1xyix3c-fill" data-item-order="1000000000" data-item-id="1_1cymbvf1xyix3c" data-item-class="Icon Stroke" data-item-index="none" data-renderer-id="0" transform="translate(254, 213)"></g><g id="g-root-tx_recyclin_1heftzv1xyiwb3-fill" data-item-order="1000000000" data-item-id="tx_recyclin_1heftzv1xyiwb3" data-item-class="Label Stroke" data-item-index="none" data-renderer-id="0" transform="translate(290, 216)"><g id="tx_recyclin_1heftzv1xyiwb3-fill" stroke="none" fill="#44E095"><g><text style="font: 20px Roboto, sans-serif; white-space: pre;" font-size="20px" font-family="Roboto, sans-serif"><tspan x="14.52" y="34" dominant-baseline="ideographic">Recycling Centers</tspan></text></g></g></g><g id="g-root-cu_1lu9c4b1xylnv1-fill" data-item-order="1000000000" data-item-id="cu_1lu9c4b1xylnv1" data-item-class="Curve Stroke ColorStrokeBlack" data-item-index="none" data-renderer-id="0" transform="translate(266, 255)"></g><g id="g-root-cu_1cymbvf1xylpfk-fill" data-item-order="1000000000" data-item-id="cu_1cymbvf1xylpfk" data-item-class="Curve Stroke ColorStrokeBlack" data-item-index="none" data-renderer-id="0" transform="translate(266, 255)"></g><g id="g-root-tx_endoflif_1ut0psr1xyk9am-fill" data-item-order="1000000000" data-item-id="tx_endoflif_1ut0psr1xyk9am" data-item-class="Label Stroke" data-item-index="none" data-renderer-id="0" transform="translate(290, 267)"><g id="tx_endoflif_1ut0psr1xyk9am-fill" stroke="none" fill="#A3A3A3"><g><text style="font: 20px Roboto, sans-serif; white-space: pre;" font-size="20px" font-family="Roboto, sans-serif"><tspan x="12.03" y="34" dominant-baseline="ideographic">End-of-Life Vehicles</tspan></text></g></g></g><g id="g-root-tx_valuable_dfftsr1xylo1t-fill" data-item-order="1000000000" data-item-id="tx_valuable_dfftsr1xylo1t" data-item-class="Label Stroke" data-item-index="none" data-renderer-id="0" transform="translate(50, 18)"><g id="tx_valuable_dfftsr1xylo1t-fill" stroke="none" fill="#4F92FF"><g><text style="font: 20px Roboto, sans-serif; white-space: pre;" font-size="20px" font-family="Roboto, sans-serif"><tspan x="17.48" y="34" dominant-baseline="ideographic">Valuable Parts</tspan></text></g></g></g><g id="g-root-tx_recyclin_1qd77ob1xyka2v-fill" data-item-order="1000000000" data-item-id="tx_recyclin_1qd77ob1xyka2v" data-item-class="Label Stroke" data-item-index="none" data-renderer-id="0" transform="translate(290, 303)"><g id="tx_recyclin_1qd77ob1xyka2v-fill" stroke="none" fill="#A3A3A3"><g><text style="font: 20px Roboto, sans-serif; white-space: pre;" font-size="20px" font-family="Roboto, sans-serif"><tspan x="12.8" y="34" dominant-baseline="ideographic">Recycling Process</tspan></text></g></g></g><g id="g-root-ro_zqwo0r1xyhiiz-stroke" data-item-order="999980200" data-item-id="ro_zqwo0r1xyhiiz" data-item-class="Shape Stroke Fill" data-item-index="none" data-renderer-id="0" transform="translate(290, 15)"><g id="ro_zqwo0r1xyhiiz-stroke" fill="none" stroke-linecap="round" stroke-linejoin="round" stroke-miterlimit="4" stroke="#A3A3A3" stroke-width="2"><g><path d="M 34 10L 118 10C 118 10 142 10 142 34L 142 136C 142 136 142 160 118 160L 34 160C 34 160 10 160 10 136L 10 34C 10 34 10 10 34 10"></path></g></g></g><g id="g-root-ro_1ut0psr1xyk9al-stroke" data-item-order="999983800" data-item-id="ro_1ut0psr1xyk9al" data-item-class="Shape Stroke Fill" data-item-index="none" data-renderer-id="0" transform="translate(470, 3)"><g id="ro_1ut0psr1xyk9al-stroke" fill="none" stroke-linecap="round" stroke-linejoin="round" stroke-miterlimit="4" stroke="#A8DD38" stroke-width="2"><g><path d="M 22 10L 298 10C 298 10 310 10 310 22L 310 52C 310 52 310 64 298 64L 22 64C 22 64 10 64 10 52L 10 22C 10 22 10 10 22 10"></path></g></g></g><g id="g-root-ro_1cymbvf1xyix3d-stroke" data-item-order="999987688" data-item-id="ro_1cymbvf1xyix3d" data-item-class="Shape Stroke Fill" data-item-index="none" data-renderer-id="0" transform="translate(242, 201)"><g id="ro_1cymbvf1xyix3d-stroke" fill="none" stroke-linecap="round" stroke-linejoin="round" stroke-miterlimit="4" stroke="#44E095" stroke-width="2"><g><path d="M 22 10L 226 10C 226 10 238 10 238 22L 238 52C 238 52 238 64 226 64L 22 64C 22 64 10 64 10 52L 10 22C 10 22 10 10 22 10"></path></g></g></g><g id="g-root-ro_3zbff1xylpmr-stroke" data-item-order="999988984" data-item-id="ro_3zbff1xylpmr" data-item-class="Shape Stroke Fill" data-item-index="none" data-renderer-id="0" transform="translate(38, 3)"><g id="ro_3zbff1xylpmr-stroke" fill="none" stroke-linecap="round" stroke-linejoin="round" stroke-miterlimit="4" stroke="#4F92FF" stroke-width="2"><g><path d="M 22 10L 202 10C 202 10 214 10 214 22L 214 52C 214 52 214 64 202 64L 22 64C 22 64 10 64 10 52L 10 22C 10 22 10 10 22 10"></path></g></g></g><g id="g-root-chea_4mx6zf1xykbus-stroke" data-item-order="1000000000" data-item-id="chea_4mx6zf1xykbus" data-item-class="Icon Stroke" data-item-index="none" data-renderer-id="0" transform="translate(482, 15)"><g id="chea_4mx6zf1xykbus-stroke" fill="none" stroke-linecap="round" stroke-linejoin="round" stroke-miterlimit="4" stroke="#A8DD38" stroke-width="2"><g><path d="M 24.51375 31.521248C 24.632404 31.374317 24.811138 31.288914 25 31.288914C 25.188862 31.288914 25.367596 31.374317 25.48625 31.521248L 29.48625 36.481251C 29.638193 36.668549 29.668812 36.926559 29.564922 37.144218C 29.461035 37.361877 29.24118 37.50034 29 37.5L 21 37.5C 20.75882 37.50034 20.538965 37.361877 20.435078 37.144218C 20.331188 36.926559 20.361807 36.668549 20.51375 36.481251ZM 39.375 26.25L 10.625 36.25M 39.375 16.875C 39.375 16.529821 39.095177 16.25 38.75 16.25L 36.25 16.25C 35.904823 16.25 35.625 15.970179 35.625 15.625L 35.625 13.125C 35.625 12.779822 35.345177 12.5 35 12.5L 31.25 12.5C 30.904823 12.5 30.625 12.779822 30.625 13.125L 30.625 15.625C 30.625 15.970179 30.345177 16.25 30 16.25L 27.5 16.25C 27.154823 16.25 26.875 16.529821 26.875 16.875L 26.875 20.625C 26.875 20.970177 27.154823 21.25 27.5 21.25L 30.625 21.25L 30.625 24.375C 30.625 24.720177 30.904823 25 31.25 25L 35 25C 35.345177 25 35.625 24.720177 35.625 24.375L 35.625 21.25L 38.75 21.25C 39.095177 21.25 39.375 20.970177 39.375 20.625ZM 10.625 24.375C 10.625 27.82678 13.423221 30.625 16.875 30.625C 20.32678 30.625 23.125 27.82678 23.125 24.375C 23.125 20.923222 20.32678 18.125 16.875 18.125C 13.423221 18.125 10.625 20.923222 10.625 24.375ZM 16.875 26.875L 16.875 28.125M 16.875 20.625L 16.875 21.875M 14.375 26.875L 18.125 26.875C 18.815355 26.875 19.375 26.315357 19.375 25.625C 19.375 24.934643 18.815355 24.375 18.125 24.375L 15.625 24.375C 14.934644 24.375 14.375 23.815357 14.375 23.125C 14.375 22.434643 14.934644 21.875 15.625 21.875L 19.375 21.875"></path></g></g></g><g id="g-root-cu_1q9gd5n1xylq8f-stroke" data-item-order="1000000000" data-item-id="cu_1q9gd5n1xylq8f" data-item-class="Curve Stroke ColorStrokeBlack" data-item-index="none" data-renderer-id="0" transform="translate(242, 30)"><g id="cu_1q9gd5n1xylq8f-stroke" fill="none" stroke-linecap="round" stroke-linejoin="round" stroke-miterlimit="4" stroke="#666666" stroke-width="2" stroke-dasharray="5.0, 7.0"><g><path d="M 58 45L 55 45L 54.9 45C 50.422131 44.972593 45.63978 43.214375 41.299999 40C 38.67988 38.118536 36.018569 33.561496 33.999999 27.499999C 31.98143 21.438501 29.320119 16.881461 26.699999 15C 22.360218 11.785625 17.577867 10.027408 13.1 10L 13 10L 10 10"></path></g></g></g><g id="g-root-tx_affordab_92qp3v1xykb2j-stroke" data-item-order="1000000000" data-item-id="tx_affordab_92qp3v1xykb2j" data-item-class="Label Stroke" data-item-index="none" data-renderer-id="0" transform="translate(518, 18)"></g><g id="g-root-bag_18mjo9n1xyhhqa-stroke" data-item-order="1000000000" data-item-id="bag_18mjo9n1xyhhqa" data-item-class="Icon Stroke" data-item-index="none" data-renderer-id="0" transform="translate(332, 39)"><g id="bag_18mjo9n1xyhhqa-stroke" fill="none" stroke-linecap="round" stroke-linejoin="round" stroke-miterlimit="4" stroke="#A3A3A3" stroke-width="2"><g><path d="M 17 27L 51 27C 51 27 53 27 53 29L 53 55C 53 55 53 57 51 57L 17 57C 17 57 15 57 15 55L 15 29C 15 29 15 27 17 27M 25 22.838001L 25 20C 25 15.029438 29.029438 11 34 11C 38.970562 11 43 15.029438 43 20L 43 22.838001M 40.021999 35L 39.021999 39L 35.021999 39M 24.014 43L 28.014 43L 29.014 47M 38.031998 53.973999L 35.634003 51L 38.031998 47.973999M 41.321999 44.057999L 43.444 48.057999C 43.772171 48.677689 43.751831 49.423985 43.390396 50.024879C 43.028957 50.625774 42.379223 50.993488 41.678001 50.993999L 35.634003 50.993999M 30.087999 37.650002L 32.332001 33.835999C 32.685974 33.233803 33.328487 32.859924 34.026939 32.849705C 34.725388 32.839485 35.378563 33.194416 35.75 33.785999L 39.021999 39M 30.014 51L 26.614 51C 25.88666 50.999729 25.216805 50.604614 24.864706 49.968178C 24.512608 49.331741 24.533783 48.554329 24.92 47.938L 28.014 43"></path></g></g></g><g id="g-root-cu_1lu9c4b1xylnuy-stroke" data-item-order="1000000000" data-item-id="cu_1lu9c4b1xylnuy" data-item-class="Curve Stroke ColorStrokeBlack" data-item-index="none" data-renderer-id="0" transform="translate(422, 30)"><g id="cu_1lu9c4b1xylnuy-stroke" fill="none" stroke-linecap="round" stroke-linejoin="round" stroke-miterlimit="4" stroke="#666666" stroke-width="2" stroke-dasharray="5.0, 7.0"><g><path d="M 10 45L 13 45L 13.1 45C 17.577866 44.972592 22.360217 43.214375 26.699999 40C 29.320119 38.118536 31.98143 33.561497 33.999999 27.499999C 36.018569 21.438502 38.67988 16.881462 41.299999 15C 45.63978 11.785625 50.422131 10.027407 54.899998 9.999999L 55 10L 58 10"></path></g></g></g><g id="g-root-tx_engineco_1lxdpjv1xykav4-stroke" data-item-order="1000000000" data-item-id="tx_engineco_1lxdpjv1xykav4" data-item-class="Label Stroke" data-item-index="none" data-renderer-id="0" transform="translate(2, 69)"></g><g id="g-root-cu_1cymbvf1xylpfm-stroke" data-item-order="1000000000" data-item-id="cu_1cymbvf1xylpfm" data-item-class="Curve Stroke ColorStrokeBlack" data-item-index="none" data-renderer-id="0" transform="translate(200, 57)"><g id="cu_1cymbvf1xylpfm-stroke" fill="none" stroke-linecap="round" stroke-linejoin="round" stroke-miterlimit="4" stroke="#666666" stroke-width="2" stroke-dasharray="5.0, 7.0"><g><path d="M 28 10L 28 22L 28 34L 19 34L 10 34"></path></g></g></g><g id="g-root-cu_142zbmj1xylq8d-stroke" data-item-order="1000000000" data-item-id="cu_142zbmj1xylq8d" data-item-class="Curve Stroke ColorStrokeBlack" data-item-index="none" data-renderer-id="0" transform="translate(200, 57)"><g id="cu_142zbmj1xylq8d-stroke" fill="none" stroke-linecap="round" stroke-linejoin="round" stroke-miterlimit="4" stroke="#666666" stroke-width="2" stroke-dasharray="5.0, 7.0"><g><path d="M 28 10L 28 40L 28 70L 19 70L 10 70"></path></g></g></g><g id="g-root-cu_142zbmj1xylq8f-stroke" data-item-order="1000000000" data-item-id="cu_142zbmj1xylq8f" data-item-class="Curve Stroke ColorStrokeBlack" data-item-index="none" data-renderer-id="0" transform="translate(200, 57)"><g id="cu_142zbmj1xylq8f-stroke" fill="none" stroke-linecap="round" stroke-linejoin="round" stroke-miterlimit="4" stroke="#666666" stroke-width="2" stroke-dasharray="5.0, 7.0"><g><path d="M 28 10L 28 22L 28 94C 28.000002 100.627415 22.627419 105.999998 16.000002 105.999998L 15.9 106L 10 106"></path></g></g></g><g id="g-root-cu_18istqz1xylq81-stroke" data-item-order="1000000000" data-item-id="cu_18istqz1xylq81" data-item-class="Curve Stroke ColorStrokeBlack" data-item-index="none" data-renderer-id="0" transform="translate(494, 57)"><g id="cu_18istqz1xylq81-stroke" fill="none" stroke-linecap="round" stroke-linejoin="round" stroke-miterlimit="4" stroke="#666666" stroke-width="2" stroke-dasharray="5.0, 7.0"><g><path d="M 10 10L 10 22L 10 34L 19 34L 28 34"></path></g></g></g><g id="g-root-cu_znsal71xylnv0-stroke" data-item-order="1000000000" data-item-id="cu_znsal71xylnv0" data-item-class="Curve Stroke ColorStrokeBlack" data-item-index="none" data-renderer-id="0" transform="translate(494, 57)"><g id="cu_znsal71xylnv0-stroke" fill="none" stroke-linecap="round" stroke-linejoin="round" stroke-miterlimit="4" stroke="#666666" stroke-width="2" stroke-dasharray="5.0, 7.0"><g><path d="M 10 10L 10 40L 10 70L 19 70L 28 70"></path></g></g></g><g id="g-root-cu_v7ysgr1xylona-stroke" data-item-order="1000000000" data-item-id="cu_v7ysgr1xylona" data-item-class="Curve Stroke ColorStrokeBlack" data-item-index="none" data-renderer-id="0" transform="translate(494, 57)"><g id="cu_v7ysgr1xylona-stroke" fill="none" stroke-linecap="round" stroke-linejoin="round" stroke-miterlimit="4" stroke="#666666" stroke-width="2" stroke-dasharray="5.0, 7.0"><g><path d="M 10 10L 10 22L 10 94C 10.000004 100.627423 15.372587 106.000006 22.000005 106.000005L 22.1 106L 28 106"></path></g></g></g><g id="g-root-tx_costsavi_18mjo9n1xyk9ab-stroke" data-item-order="1000000000" data-item-id="tx_costsavi_18mjo9n1xyk9ab" data-item-class="Label Stroke" data-item-index="none" data-renderer-id="0" transform="translate(518, 69)"></g><g id="g-root-tx_bodypart_1lxdpjv1xykav5-stroke" data-item-order="1000000000" data-item-id="tx_bodypart_1lxdpjv1xykav5" data-item-class="Label Stroke" data-item-index="none" data-renderer-id="0" transform="translate(86, 105)"></g><g id="g-root-tx_salvagey_1d2d6e31xyhgy1-stroke" data-item-order="1000000000" data-item-id="tx_salvagey_1d2d6e31xyhgy1" data-item-class="Label Stroke" data-item-index="none" data-renderer-id="0" transform="translate(314, 93)"></g><g id="g-root-tx_highqual_zqwo0r1xyka30-stroke" data-item-order="1000000000" data-item-id="tx_highqual_zqwo0r1xyka30" data-item-class="Label Stroke" data-item-index="none" data-renderer-id="0" transform="translate(518, 105)"></g><g id="g-root-tx_interior_1d1qpaz1xykbnu-stroke" data-item-order="1000000000" data-item-id="tx_interior_1d1qpaz1xykbnu" data-item-class="Label Stroke" data-item-index="none" data-renderer-id="0" transform="translate(74, 141)"></g><g id="g-root-tx_ecofrien_zqwo0r1xyka31-stroke" data-item-order="1000000000" data-item-id="tx_ecofrien_zqwo0r1xyka31" data-item-class="Label Stroke" data-item-index="none" data-renderer-id="0" transform="translate(518, 141)"></g><g id="g-root-cu_1q9gd5n1xylq8c-stroke" data-item-order="1000000000" data-item-id="cu_1q9gd5n1xylq8c" data-item-class="Curve Stroke ColorStrokeBlack" data-item-index="none" data-renderer-id="0" transform="translate(356, 165)"><g id="cu_1q9gd5n1xylq8c-stroke" fill="none" stroke-linecap="round" stroke-linejoin="round" stroke-miterlimit="4" stroke="#666666" stroke-width="2" stroke-dasharray="5.0, 7.0"><g><path d="M 10 10L 10 28L 10 46"></path></g></g></g><g id="g-root-10_4jstjv1xyloui-stroke" data-item-order="1000000000" data-item-id="10_4jstjv1xyloui" data-item-class="Icon Stroke" data-item-index="none" data-renderer-id="0" transform="translate(200, 15)"><g id="10_4jstjv1xyloui-stroke" fill="none" stroke-linecap="round" stroke-linejoin="round" stroke-miterlimit="4" stroke="#4F92FF" stroke-width="2"><g><path d="M 39.375 32.375L 39.375 38.75M 25.375 34.875L 22.25 34.875M 22.25 33L 22.25 36.875M 31.75 30.5L 31.75 27.25M 29.25 27.25L 34.25 27.25M 11.125 26.875L 16.375 26.875M 12.625 30.75L 12.625 32.625C 12.625 33.625 13.375 34.5 14.5 34.625C 15.625 34.75 16.375 33.875 16.5 32.75C 16.5 32.75 16.5 32.625 16.5 32.625L 16.5 30.75L 12.625 30.75ZM 38.875 26.875L 36.625 26.875M 33.375 17.25C 33 16.125 31.875 15.375 30.75 15.375L 19.375 15.375C 18.125 15.375 17.125 16.125 16.75 17.25L 14.625 23L 35.625 23L 33.375 17.25ZM 38.25 30.5C 38.875 30.25 39.375 29.5 39.375 28.75C 39.375 27.5 38.875 26.375 38 25.5L 35.5 23L 14.5 23L 12 25.5C 11.125 26.375 10.625 27.5 10.625 28.75C 10.625 29.75 11.5 30.625 12.5 30.625L 25 30.625"></path></g></g></g><g id="g-root-1_1cymbvf1xyix3c-stroke" data-item-order="1000000000" data-item-id="1_1cymbvf1xyix3c" data-item-class="Icon Stroke" data-item-index="none" data-renderer-id="0" transform="translate(254, 213)"><g id="1_1cymbvf1xyix3c-stroke" fill="none" stroke-linecap="round" stroke-linejoin="round" stroke-miterlimit="4" stroke="#44E095" stroke-width="2"><g><path d="M 22.857143 31.599998L 22.857143 35.885712C 22.845591 36.220524 22.570721 36.485912 22.235712 36.485714L 17.735714 36.485714C 16.995806 36.361065 16.325998 35.972881 15.85 35.392857M 15.849999 35.414284C 15.849999 35.414284 13.514286 33.378571 18.935715 27.957142L 21.357143 27.957142L 17.735714 21.978571L 11.071428 21.978571L 12.892858 24.314285C 12.892858 24.314285 11.671429 24.528572 11.671429 26.221428C 12.312084 29.574831 13.744717 32.726624 15.849999 35.414288ZM 32.17857 23.65L 35.349998 21.507143C 35.493324 21.443871 35.65667 21.443871 35.799995 21.507143C 35.967659 21.526751 36.11739 21.621317 36.207142 21.764284L 38.671429 25.449999C 38.969913 26.050678 38.969913 26.756464 38.671429 27.357143M 38.757141 27.142857C 38.757141 27.142857 38.07143 29.928572 30.978571 29.285713L 30.978571 27.421429L 26.821428 32.864285L 30.764284 38.92857L 30.978571 36.078571C 30.978571 36.078571 31.771427 37.042854 33.121429 36.078571C 35.385513 33.361328 37.280499 30.356733 38.757141 27.142857ZM 19.321428 19.171429L 16.428572 17.842857C 16.132822 17.690046 16.002653 17.336735 16.128572 17.028572L 18.571428 12.142857C 18.902306 11.556412 19.489592 11.159596 20.157143 11.071428M 20.157143 11.071428C 20.157143 11.071428 22.792856 11.071428 26.135714 17.5L 24.4 19.642857L 31.599998 19.642857L 34.150002 12.914286L 31.15 13.835714C 31.061165 12.888546 30.460768 12.066086 29.585714 11.692857C 28.108728 11.203898 26.553848 10.99319 25 11.071428Z"></path></g></g></g><g id="g-root-tx_recyclin_1heftzv1xyiwb3-stroke" data-item-order="1000000000" data-item-id="tx_recyclin_1heftzv1xyiwb3" data-item-class="Label Stroke" data-item-index="none" data-renderer-id="0" transform="translate(290, 216)"></g><g id="g-root-cu_1lu9c4b1xylnv1-stroke" data-item-order="1000000000" data-item-id="cu_1lu9c4b1xylnv1" data-item-class="Curve Stroke ColorStrokeBlack" data-item-index="none" data-renderer-id="0" transform="translate(266, 255)"><g id="cu_1lu9c4b1xylnv1-stroke" fill="none" stroke-linecap="round" stroke-linejoin="round" stroke-miterlimit="4" stroke="#666666" stroke-width="2" stroke-dasharray="5.0, 7.0"><g><path d="M 10 10L 10 22L 10 34L 19 34L 28 34"></path></g></g></g><g id="g-root-cu_1cymbvf1xylpfk-stroke" data-item-order="1000000000" data-item-id="cu_1cymbvf1xylpfk" data-item-class="Curve Stroke ColorStrokeBlack" data-item-index="none" data-renderer-id="0" transform="translate(266, 255)"><g id="cu_1cymbvf1xylpfk-stroke" fill="none" stroke-linecap="round" stroke-linejoin="round" stroke-miterlimit="4" stroke="#666666" stroke-width="2" stroke-dasharray="5.0, 7.0"><g><path d="M 10 10L 10 17.5L 10 58C 10.000002 64.627417 15.372585 70 22.000002 69.999999L 22.1 70L 28 70"></path></g></g></g><g id="g-root-tx_endoflif_1ut0psr1xyk9am-stroke" data-item-order="1000000000" data-item-id="tx_endoflif_1ut0psr1xyk9am" data-item-class="Label Stroke" data-item-index="none" data-renderer-id="0" transform="translate(290, 267)"></g><g id="g-root-tx_valuable_dfftsr1xylo1t-stroke" data-item-order="1000000000" data-item-id="tx_valuable_dfftsr1xylo1t" data-item-class="Label Stroke" data-item-index="none" data-renderer-id="0" transform="translate(50, 18)"></g><g id="g-root-tx_recyclin_1qd77ob1xyka2v-stroke" data-item-order="1000000000" data-item-id="tx_recyclin_1qd77ob1xyka2v" data-item-class="Label Stroke" data-item-index="none" data-renderer-id="0" transform="translate(290, 303)"></g></g></g></svg>