<?xml version="1.0" encoding="utf-8" standalone="yes"?>
<!DOCTYPE svg PUBLIC "-//W3C//DTD SVG 1.1//EN" "http://www.w3.org/Graphics/SVG/1.1/DTD/svg11.dtd">
<svg width="794" height="445" viewBox="0 0 794 445" style="fill:none;stroke:none;fill-rule:evenodd;clip-rule:evenodd;stroke-linecap:round;stroke-linejoin:round;stroke-miterlimit:1.5;" version="1.1" xmlns="http://www.w3.org/2000/svg" xmlns:xlink="http://www.w3.org/1999/xlink"><style id="fontImports">@import url("https://fonts.googleapis.com/css2?family=Roboto:wght@400;700&amp;display=block");</style><g id="items" style="isolation: isolate"><g id="blend" style="mix-blend-mode:normal"><g id="g-root-4.cu_sy_1hgb9ho1u0wf-fill" data-item-order="999805606" data-item-id="4.cu_sy_1hgb9ho1u0wf" data-item-class="Part Indexed Fill Stroke" data-item-index="4" data-renderer-id="0" transform="translate(3, 62)"><g id="4.cu_sy_1hgb9ho1u0wf-fill" stroke="none" fill="#224754"><g><path d="M 82 370C 82 210.942 210.942 82 370 82L 514 82L 550 46L 514 10L 370 10C 171.177 10 10 171.177 10 370L 82 370Z"></path></g></g></g><g id="g-root-3.cu_sy_1d0hrd81u1oo-fill" data-item-order="999805610" data-item-id="3.cu_sy_1d0hrd81u1oo" data-item-class="Part Indexed Fill Stroke" data-item-index="3" data-renderer-id="0" transform="translate(75, 134)"><g id="3.cu_sy_1d0hrd81u1oo-fill" stroke="none" fill="#404b29"><g><path d="M 298 82C 178.706 82 82 178.706 82 298L 10 298C 10 138.942 138.942 10 298 10L 442 10L 478 46L 442 82L 298 82Z"></path></g></g></g><g id="g-root-2.cu_sy_1d0hrd81u1op-fill" data-item-order="999805614" data-item-id="2.cu_sy_1d0hrd81u1op" data-item-class="Part Indexed Fill Stroke" data-item-index="2" data-renderer-id="0" transform="translate(147, 206)"><g id="2.cu_sy_1d0hrd81u1op-fill" stroke="none" fill="#2b503e"><g><path d="M 226 82C 146.471 82 82 146.471 82 226L 10 226C 10 106.7065 106.7065 10 226 10L 370 10L 406 46L 370 82L 226 82Z"></path></g></g></g><g id="g-root-1.cu_sy_18ko98s1u2gy-fill" data-item-order="999805618" data-item-id="1.cu_sy_18ko98s1u2gy" data-item-class="Part Indexed Indexed_1 Fill Stroke" data-item-index="1" data-renderer-id="0" transform="translate(219, 278)"><g id="1.cu_sy_18ko98s1u2gy-fill" stroke="none" fill="#692e2c"><g><path d="M 154 82C 114.235 82 82 114.235 82 154L 10 154C 10 74.471 74.471 10 154 10L 298 10L 334 46L 298 82L 154 82Z"></path></g></g></g><g id="g-root-tx_understa_zp18zw1u39n-fill" data-item-order="1000000000" data-item-id="tx_understa_zp18zw1u39n" data-item-class="Label Stroke Title" data-item-index="none" data-renderer-id="0" transform="translate(219, 2)"><g id="tx_understa_zp18zw1u39n-fill" stroke="none" fill="#A3A3A3"><g><text style="font: 20px Roboto, sans-serif; white-space: pre;" font-size="20px" font-family="Roboto, sans-serif"><tspan x="17.06" y="34" dominant-baseline="ideographic">Understanding Vehicle Engine Types</tspan></text></g></g></g><g id="g-root-1_94m7rg1n08x-fill" data-item-order="1000000000" data-item-id="1_94m7rg1n08x" data-item-class="Icon Stroke Indexed InsideFill InsideColorFill" data-item-index="4" data-renderer-id="0" transform="translate(303, 80)"></g><g id="g-root-tx_bionicsa_hydpl81u2h3-fill" data-item-order="1000000000" data-item-id="tx_bionicsa_hydpl81u2h3" data-item-class="Label Stroke Indexed InsideFill InsideColorFill" data-item-index="4" data-renderer-id="0" transform="translate(351, 86)"><g id="tx_bionicsa_hydpl81u2h3-fill" stroke="none" fill="#1AC6FF"><g><text style="font: 20px Roboto, sans-serif; white-space: pre;" font-size="20px" font-family="Roboto, sans-serif"><tspan x="12" y="34" dominant-baseline="ideographic">BionicsAutoParts.com</tspan></text></g></g></g><g id="g-root-tx_provides_1qd77ws1u2a3-fill" data-item-order="1000000000" data-item-id="tx_provides_1qd77ws1u2a3" data-item-class="Label Stroke Indexed" data-item-index="4" data-renderer-id="0" transform="translate(555, 80)"><g id="tx_provides_1qd77ws1u2a3-fill" stroke="none" fill="#4F92FF"><g><text style="font: 15px Roboto, sans-serif; white-space: pre;" font-size="15px" font-family="Roboto, sans-serif"><tspan x="12" y="28" dominant-baseline="ideographic">Provides OEM-quality parts for </tspan><tspan x="12" y="46" dominant-baseline="ideographic">all vehicle types</tspan></text></g></g></g><g id="g-root-chec_3zeto1itjd-fill" data-item-order="1000000000" data-item-id="chec_3zeto1itjd" data-item-class="Icon Stroke Indexed InsideFill InsideColorFill" data-item-index="3" data-renderer-id="0" transform="translate(303, 152)"></g><g id="g-root-tx_fullyele_7q66k1u1oi-fill" data-item-order="1000000000" data-item-id="tx_fullyele_7q66k1u1oi" data-item-class="Label Stroke Indexed" data-item-index="3" data-renderer-id="0" transform="translate(555.11474609375, 140)"><g id="tx_fullyele_7q66k1u1oi-fill" stroke="none" fill="#4F92FF"><g><text style="font: 15px Roboto, sans-serif; white-space: pre;" font-size="15px" font-family="Roboto, sans-serif"><tspan x="12" y="31" dominant-baseline="ideographic">Fully electric with zero </tspan><tspan x="12" y="49" dominant-baseline="ideographic">emissions and lower operating </tspan><tspan x="12" y="67" dominant-baseline="ideographic">costs</tspan></text></g></g></g><g id="g-root-tx_electric_me77po1u1ou-fill" data-item-order="1000000000" data-item-id="tx_electric_me77po1u1ou" data-item-class="Label Stroke Indexed InsideFill InsideColorFill" data-item-index="3" data-renderer-id="0" transform="translate(351, 158)"><g id="tx_electric_me77po1u1ou-fill" stroke="none" fill="#A8DD38"><g><text style="font: 20px Roboto, sans-serif; white-space: pre;" font-size="20px" font-family="Roboto, sans-serif"><tspan x="12" y="34" dominant-baseline="ideographic">Electric Engine</tspan></text></g></g></g><g id="g-root-1_8xqzt81g1dz-fill" data-item-order="1000000000" data-item-id="1_8xqzt81g1dz" data-item-class="Icon Stroke Indexed InsideFill InsideColorFill" data-item-index="2" data-renderer-id="0" transform="translate(303, 224)"></g><g id="g-root-tx_hybriden_v9u7yk1u0w5-fill" data-item-order="1000000000" data-item-id="tx_hybriden_v9u7yk1u0w5" data-item-class="Label Stroke Indexed InsideFill InsideColorFill" data-item-index="2" data-renderer-id="0" transform="translate(351, 230)"><g id="tx_hybriden_v9u7yk1u0w5-fill" stroke="none" fill="#44E095"><g><text style="font: 20px Roboto, sans-serif; white-space: pre;" font-size="20px" font-family="Roboto, sans-serif"><tspan x="12" y="34" dominant-baseline="ideographic">Hybrid Engine</tspan></text></g></g></g><g id="g-root-tx_combines_4njob01u0w9-fill" data-item-order="1000000000" data-item-id="tx_combines_4njob01u0w9" data-item-class="Label Stroke Indexed" data-item-index="2" data-renderer-id="0" transform="translate(555, 224)"><g id="tx_combines_4njob01u0w9-fill" stroke="none" fill="#4F92FF"><g><text style="font: 15px Roboto, sans-serif; white-space: pre;" font-size="15px" font-family="Roboto, sans-serif"><tspan x="12" y="28" dominant-baseline="ideographic">Combines gasoline and electric </tspan><tspan x="12" y="46" dominant-baseline="ideographic">power for better efficiency</tspan></text></g></g></g><g id="g-root-tx_internal_v9u7yk1u0w4-fill" data-item-order="1000000000" data-item-id="tx_internal_v9u7yk1u0w4" data-item-class="Label Stroke Indexed Indexed_1 InsideFill InsideColorFill" data-item-index="1" data-renderer-id="0" transform="translate(351, 278)"><g id="tx_internal_v9u7yk1u0w4-fill" stroke="none" fill="#FD6A65"><g><text style="font: 20px Roboto, sans-serif; white-space: pre;" font-size="20px" font-family="Roboto, sans-serif"><tspan x="12" y="34" dominant-baseline="ideographic">Internal </tspan><tspan x="12" y="58" dominant-baseline="ideographic">Combustion </tspan><tspan x="12" y="82" dominant-baseline="ideographic">Engine</tspan></text></g></g></g><g id="g-root-3_1hi6rws1acqp-fill" data-item-order="1000000000" data-item-id="3_1hi6rws1acqp" data-item-class="Icon Stroke Indexed Indexed_1 InsideFill InsideColorFill" data-item-index="1" data-renderer-id="0" transform="translate(303, 296)"></g><g id="g-root-tx_traditio_dik7gs1u39c-fill" data-item-order="1000000000" data-item-id="tx_traditio_dik7gs1u39c" data-item-class="Label Stroke Indexed Indexed_1" data-item-index="1" data-renderer-id="0" transform="translate(555, 284)"><g id="tx_traditio_dik7gs1u39c-fill" stroke="none" fill="#4F92FF"><g><text style="font: 15px Roboto, sans-serif; white-space: pre;" font-size="15px" font-family="Roboto, sans-serif"><tspan x="12" y="31" dominant-baseline="ideographic">Traditional engine with proven </tspan><tspan x="12" y="49" dominant-baseline="ideographic">technology and extensive </tspan><tspan x="12" y="67" dominant-baseline="ideographic">infrastructure</tspan></text></g></g></g><g id="g-root-4.cu_sy_1hgb9ho1u0wf-stroke" data-item-order="999805606" data-item-id="4.cu_sy_1hgb9ho1u0wf" data-item-class="Part Indexed Fill Stroke" data-item-index="4" data-renderer-id="0" transform="translate(3, 62)"><g id="4.cu_sy_1hgb9ho1u0wf-stroke" fill="none" stroke-linecap="round" stroke-linejoin="round" stroke-miterlimit="4" stroke="#1AC6FF" stroke-width="2"><g><path d="M 82 370C 82 210.942 210.942 82 370 82L 514 82L 550 46L 514 10L 370 10C 171.1775 10 10 171.1775 10 370L 82 370Z"></path></g></g></g><g id="g-root-3.cu_sy_1d0hrd81u1oo-stroke" data-item-order="999805610" data-item-id="3.cu_sy_1d0hrd81u1oo" data-item-class="Part Indexed Fill Stroke" data-item-index="3" data-renderer-id="0" transform="translate(75, 134)"><g id="3.cu_sy_1d0hrd81u1oo-stroke" fill="none" stroke-linecap="round" stroke-linejoin="round" stroke-miterlimit="4" stroke="#A8DD38" stroke-width="2"><g><path d="M 82 298C 82 178.7065 178.7065 82 298 82L 442 82L 478 46L 442 10L 298 10C 138.942 10 10 138.942 10 298L 82 298Z"></path></g></g></g><g id="g-root-2.cu_sy_1d0hrd81u1op-stroke" data-item-order="999805614" data-item-id="2.cu_sy_1d0hrd81u1op" data-item-class="Part Indexed Fill Stroke" data-item-index="2" data-renderer-id="0" transform="translate(147, 206)"><g id="2.cu_sy_1d0hrd81u1op-stroke" fill="none" stroke-linecap="round" stroke-linejoin="round" stroke-miterlimit="4" stroke="#44E095" stroke-width="2"><g><path d="M 82 226C 82 146.471 146.471 82 226 82L 370 82L 406 46L 370 10L 226 10C 106.7065 10 10 106.7065 10 226L 82 226Z"></path></g></g></g><g id="g-root-1.cu_sy_18ko98s1u2gy-stroke" data-item-order="999805618" data-item-id="1.cu_sy_18ko98s1u2gy" data-item-class="Part Indexed Indexed_1 Fill Stroke" data-item-index="1" data-renderer-id="0" transform="translate(219, 278)"><g id="1.cu_sy_18ko98s1u2gy-stroke" fill="none" stroke-linecap="round" stroke-linejoin="round" stroke-miterlimit="4" stroke="#FD6A65" stroke-width="2"><g><path d="M 82 154C 82 114.2355 114.2355 82 154 82L 298 82L 334 46L 298 10L 154 10C 74.471 10 10 74.471 10 154L 82 154Z"></path></g></g></g><g id="g-root-tx_understa_zp18zw1u39n-stroke" data-item-order="1000000000" data-item-id="tx_understa_zp18zw1u39n" data-item-class="Label Stroke Title" data-item-index="none" data-renderer-id="0" transform="translate(219, 2)"></g><g id="g-root-1_94m7rg1n08x-stroke" data-item-order="1000000000" data-item-id="1_94m7rg1n08x" data-item-class="Icon Stroke Indexed InsideFill InsideColorFill" data-item-index="4" data-renderer-id="0" transform="translate(303, 80)"><g id="1_94m7rg1n08x-stroke" fill="none" stroke-linecap="round" stroke-linejoin="round" stroke-miterlimit="4" stroke="#1AC6FF" stroke-width="2"><g><path d="M 18.25 36.25L 18.25 38.5C 18.25 38.914215 17.914213 39.25 17.5 39.25L 14.5 39.25C 14.085787 39.25 13.75 38.914215 13.75 38.5L 13.75 36.25M 42.25 36.25L 42.25 38.5C 42.25 38.914215 41.914215 39.25 41.5 39.25L 38.5 39.25C 38.085785 39.25 37.75 38.914215 37.75 38.5L 37.75 36.25M 43 36.25C 43.414215 36.25 43.75 35.914215 43.75 35.5L 43.75 30.560499C 43.749958 30.361973 43.671204 30.171558 43.530998 30.031L 39.25 25.75L 16.75 25.75L 12.469 30.031C 12.328796 30.171558 12.250042 30.361973 12.25 30.560499L 12.25 35.5C 12.25 35.914215 12.585787 36.25 13 36.25ZM 39.25 25.75L 36.421001 17.263C 36.319035 16.956856 36.032681 16.750246 35.709999 16.75L 20.290001 16.75C 19.967319 16.750246 19.680965 16.956856 19.579 17.263L 16.75 25.75M 16.75 25.75L 13 25.75C 12.585787 25.75 12.25 25.414213 12.25 25L 12.25 23.5C 12.25 23.085787 12.585787 22.75 13 22.75L 17.7505 22.75M 38.2495 22.75L 43 22.75C 43.414215 22.75 43.75 23.085787 43.75 23.5L 43.75 25C 43.75 25.414213 43.414215 25.75 43 25.75L 39.25 25.75M 12.319 30.25L 17.5 30.25C 17.914213 30.25 18.25 30.585787 18.25 31L 18.25 32.5C 18.25 32.914215 17.914213 33.25 17.5 33.25L 12.25 33.25M 43.75 33.25L 38.5 33.25C 38.085785 33.25 37.75 32.914215 37.75 32.5L 37.75 31C 37.75 30.585787 38.085785 30.25 38.5 30.25L 43.681 30.25"></path></g></g></g><g id="g-root-tx_bionicsa_hydpl81u2h3-stroke" data-item-order="1000000000" data-item-id="tx_bionicsa_hydpl81u2h3" data-item-class="Label Stroke Indexed InsideFill InsideColorFill" data-item-index="4" data-renderer-id="0" transform="translate(351, 86)"></g><g id="g-root-tx_provides_1qd77ws1u2a3-stroke" data-item-order="1000000000" data-item-id="tx_provides_1qd77ws1u2a3" data-item-class="Label Stroke Indexed" data-item-index="4" data-renderer-id="0" transform="translate(555, 80)"></g><g id="g-root-chec_3zeto1itjd-stroke" data-item-order="1000000000" data-item-id="chec_3zeto1itjd" data-item-class="Icon Stroke Indexed InsideFill InsideColorFill" data-item-index="3" data-renderer-id="0" transform="translate(303, 152)"><g id="chec_3zeto1itjd-stroke" fill="none" stroke-linecap="round" stroke-linejoin="round" stroke-miterlimit="4" stroke="#A8DD38" stroke-width="2"><g><path d="M 16.864 21.359501L 18.657999 23.1535L 22.841499 18.3715M 16.8535 35.485001L 14.6035 35.485001C 12.946646 35.485001 11.6035 34.141853 11.6035 32.485001L 11.6035 14.485C 11.6035 12.828146 12.946646 11.485 14.6035 11.485L 25.1035 11.485C 26.760355 11.485 28.1035 12.828146 28.1035 14.485L 28.1035 24.235001M 11.6035 30.337L 21.3535 30.337M 41.349998 41.758003L 41.865997 41.758003C 42.961182 41.758003 43.849003 40.870182 43.849003 39.775002L 43.848999 37.730499C 43.848854 37.141735 43.587284 36.583431 43.134998 36.206497L 40.8745 34.322502L 39.985001 31.063C 39.632401 29.768814 38.456856 28.871025 37.115501 28.871498L 29.9065 28.8715C 28.740358 28.871536 27.681805 29.552998 27.198999 30.6145L 25.513 34.322502L 22.072001 36.235001C 21.442289 36.584091 21.051712 37.247501 21.052 37.967499L 21.052 39.775002C 21.052 40.870182 21.939819 41.758003 23.035 41.758003L 24.047501 41.758003M 28.9615 41.758003L 36.438999 41.758003M 24.026501 42.036999C 24.026501 43.405563 25.135939 44.514999 26.504501 44.514999C 27.873062 44.514999 28.9825 43.405563 28.9825 42.036999C 28.9825 40.668438 27.873062 39.558998 26.504501 39.558998C 25.135939 39.558998 24.026501 40.668438 24.026501 42.036999M 36.417999 42.036999C 36.417999 43.405563 37.527439 44.514999 38.896 44.514999C 40.264561 44.514999 41.374001 43.405563 41.374001 42.036999C 41.374001 40.668438 40.264561 39.558998 38.896 39.558998C 37.527439 39.558998 36.417999 40.668438 36.417999 42.036999M 25.513 34.322502L 40.879002 34.322502M 33.195999 28.8715L 33.195999 34.322502"></path></g></g></g><g id="g-root-tx_fullyele_7q66k1u1oi-stroke" data-item-order="1000000000" data-item-id="tx_fullyele_7q66k1u1oi" data-item-class="Label Stroke Indexed" data-item-index="3" data-renderer-id="0" transform="translate(555.11474609375, 140)"></g><g id="g-root-tx_electric_me77po1u1ou-stroke" data-item-order="1000000000" data-item-id="tx_electric_me77po1u1ou" data-item-class="Label Stroke Indexed InsideFill InsideColorFill" data-item-index="3" data-renderer-id="0" transform="translate(351, 158)"></g><g id="g-root-1_8xqzt81g1dz-stroke" data-item-order="1000000000" data-item-id="1_8xqzt81g1dz" data-item-class="Icon Stroke Indexed InsideFill InsideColorFill" data-item-index="2" data-renderer-id="0" transform="translate(303, 224)"><g id="1_8xqzt81g1dz-stroke" fill="none" stroke-linecap="round" stroke-linejoin="round" stroke-miterlimit="4" stroke="#44E095" stroke-width="2"><g><path d="M 34.955498 28.421501L 33.388 27.057999L 32.7715 24.700001C 32.54911 23.778999 31.731365 23.12542 30.784 23.1115L 25.7845 23.1115C 24.962973 23.120201 24.225327 23.616682 23.908001 24.3745L 22.741001 27.0625L 20.35 28.450001C 19.908176 28.713268 19.639229 29.191206 19.643499 29.705498L 19.643499 31.014999C 19.626741 31.790989 20.241541 32.433979 21.0175 32.452L 22.299999 32.452C 22.593357 33.08139 23.224848 33.483772 23.91925 33.483772C 24.613651 33.483772 25.245142 33.08139 25.538498 32.452L 29.572001 32.452C 29.865356 33.08139 30.496847 33.483772 31.19125 33.483772C 31.885651 33.483772 32.517143 33.08139 32.810501 32.452L 34.081001 32.452C 34.856964 32.433979 35.47176 31.790989 35.455002 31.014999L 35.454998 29.533001C 35.457932 29.107517 35.275612 28.701809 34.955498 28.421501ZM 13.4155 24.598C 11.984696 29.661144 13.403009 35.102211 17.123402 38.822601C 20.843792 42.542992 26.284857 43.961304 31.348 42.530502L 29.368 41.098M 41.362 32.518002C 42.79063 27.454731 41.371414 22.014702 37.651356 18.294643C 33.931297 14.574587 28.491268 13.155371 23.427999 14.584L 25.408001 16.018M 15.388 12.058L 13.138 16.558001L 17.638 16.558001L 15.388 21.058001M 42.388 42.057999C 42.388 43.714855 41.044853 45.057999 39.388 45.057999C 37.731148 45.057999 36.388 43.714855 36.388 42.057999C 36.388 39.057999 39.388 36.057999 39.388 36.057999C 39.388 36.057999 42.388 39.057999 42.388 42.057999ZM 23.427999 14.584L 24.747999 12.058M 31.348 42.530502L 30.028 45.057999"></path></g></g></g><g id="g-root-tx_hybriden_v9u7yk1u0w5-stroke" data-item-order="1000000000" data-item-id="tx_hybriden_v9u7yk1u0w5" data-item-class="Label Stroke Indexed InsideFill InsideColorFill" data-item-index="2" data-renderer-id="0" transform="translate(351, 230)"></g><g id="g-root-tx_combines_4njob01u0w9-stroke" data-item-order="1000000000" data-item-id="tx_combines_4njob01u0w9" data-item-class="Label Stroke Indexed" data-item-index="2" data-renderer-id="0" transform="translate(555, 224)"></g><g id="g-root-tx_internal_v9u7yk1u0w4-stroke" data-item-order="1000000000" data-item-id="tx_internal_v9u7yk1u0w4" data-item-class="Label Stroke Indexed Indexed_1 InsideFill InsideColorFill" data-item-index="1" data-renderer-id="0" transform="translate(351, 278)"></g><g id="g-root-3_1hi6rws1acqp-stroke" data-item-order="1000000000" data-item-id="3_1hi6rws1acqp" data-item-class="Icon Stroke Indexed Indexed_1 InsideFill InsideColorFill" data-item-index="1" data-renderer-id="0" transform="translate(303, 296)"><g id="3_1hi6rws1acqp-stroke" fill="none" stroke-linecap="round" stroke-linejoin="round" stroke-miterlimit="4" stroke="#FD6A65" stroke-width="2"><g><path d="M 28.465 39.920502L 16.0795 27.535M 43.946503 24.439001L 31.560999 12.0535M 34.038017 14.531652L 41.469002 21.962639L 25.987606 37.444035L 18.556622 30.013048ZM 26.761 18.092501L 41.005001 26.141499M 18.866499 25.987L 33.109001 34.037498M 22.890999 21.9625L 37.133499 30.013M 36.472 15.1495C 36.472 17.567678 38.432323 19.528 40.850498 19.528C 43.268677 19.528 45.229 17.567678 45.229 15.1495C 45.229 12.731321 43.268677 10.771 40.850498 10.771C 38.432323 10.771 36.472 12.731321 36.472 15.1495M 10.771 40.850498C 10.771 43.268677 12.731321 45.229 15.1495 45.229C 17.567678 45.229 19.528 43.268677 19.528 40.850498C 19.528 38.432323 17.567678 36.472 15.1495 36.472C 12.731321 36.472 10.771 38.432323 10.771 40.850498M 40.100498 15.1495C 40.100498 15.563714 40.436287 15.8995 40.850498 15.8995C 41.264713 15.8995 41.600498 15.563714 41.600498 15.1495C 41.600498 14.735287 41.264713 14.3995 40.850498 14.3995C 40.436287 14.3995 40.100498 14.735287 40.100498 15.1495"></path></g></g></g><g id="g-root-tx_traditio_dik7gs1u39c-stroke" data-item-order="1000000000" data-item-id="tx_traditio_dik7gs1u39c" data-item-class="Label Stroke Indexed Indexed_1" data-item-index="1" data-renderer-id="0" transform="translate(555, 284)"></g></g></g></svg>