<?xml version="1.0" encoding="utf-8" standalone="yes"?>
<!DOCTYPE svg PUBLIC "-//W3C//DTD SVG 1.1//EN" "http://www.w3.org/Graphics/SVG/1.1/DTD/svg11.dtd">
<svg width="743" height="355" viewBox="0 0 743 355" style="fill:none;stroke:none;fill-rule:evenodd;clip-rule:evenodd;stroke-linecap:round;stroke-linejoin:round;stroke-miterlimit:1.5;" version="1.1" xmlns="http://www.w3.org/2000/svg" xmlns:xlink="http://www.w3.org/1999/xlink"><style id="fontImports">@import url("https://fonts.googleapis.com/css2?family=Roboto:wght@400;700&amp;display=block");</style><g id="items" style="isolation: isolate"><g id="blend" style="mix-blend-mode:normal"><g id="g-root-0.cu_sy_zn6vl8bmn7l-fill" data-item-order="999872181" data-item-id="0.cu_sy_zn6vl8bmn7l" data-item-class="Part Indexed_0 Fill Stroke ColorFillBlack ColorStrokeBlack" data-item-index="0" data-renderer-id="0" transform="translate(6.128021240234375, 31)"></g><g id="g-root-3.cu_sy_qrjvccbmo0a-fill" data-item-order="999872185" data-item-id="3.cu_sy_qrjvccbmo0a" data-item-class="Part Indexed Fill Stroke" data-item-index="3" data-renderer-id="0" transform="translate(243.5518341064453, 197.69677734375)"></g><g id="g-root-2.cu_sy_mccub0bmlmr-fill" data-item-order="999872189" data-item-id="2.cu_sy_mccub0bmlmr" data-item-class="Part Indexed Fill Stroke" data-item-index="2" data-renderer-id="0" transform="translate(258.12799072265625, 121.220947265625)"></g><g id="g-root-1.cu_sy_mccub0bmlms-fill" data-item-order="999872193" data-item-id="1.cu_sy_mccub0bmlms" data-item-class="Part Indexed Indexed_1 Fill Stroke" data-item-index="1" data-renderer-id="0" transform="translate(243.5518341064453, 7.813232421875)"></g><g id="g-root-bott_14809kcb8k5r-fill" data-item-order="1000000000" data-item-id="bott_14809kcb8k5r" data-item-class="Icon Stroke Indexed Indexed_1 ColorStrokeGray" data-item-index="1" data-renderer-id="0" transform="translate(420.12799072265625, 3)"></g><g id="g-root-tx_pickandp_144vsz0bmlfv-fill" data-item-order="1000000000" data-item-id="tx_pickandp_144vsz0bmlfv" data-item-class="Label Stroke Indexed Indexed_1" data-item-index="1" data-renderer-id="0" transform="translate(468.12799072265625, 9)"><g id="tx_pickandp_144vsz0bmlfv-fill" stroke="none" fill="#44E095"><g><text style="font: bold 20px Roboto, sans-serif; white-space: pre;" font-weight="bold" font-size="20px" font-family="Roboto, sans-serif"><tspan x="12" y="34" dominant-baseline="ideographic">Pick-and-Pull Yards</tspan></text></g></g></g><g id="g-root-tx_costeffe_1czwc4sbmnsy-fill" data-item-order="1000000000" data-item-id="tx_costeffe_1czwc4sbmnsy" data-item-class="Label Stroke Indexed Indexed_1 ColorStrokeGray" data-item-index="1" data-renderer-id="0" transform="translate(468.12799072265625, 45)"><g id="tx_costeffe_1czwc4sbmnsy-fill" stroke="none" fill="#A3A3A3"><g><text style="font: 20px Roboto, sans-serif; white-space: pre;" font-size="20px" font-family="Roboto, sans-serif"><tspan x="12" y="34" dominant-baseline="ideographic">Cost-effective but requires </tspan><tspan x="12" y="58" dominant-baseline="ideographic">mechanical skill</tspan></text></g></g></g><g id="g-root-tx_howtocho_dgpu24bmmfh-fill" data-item-order="1000000000" data-item-id="tx_howtocho_dgpu24bmmfh" data-item-class="Label Stroke Title ColorFillGray ColorStrokeGray" data-item-index="none" data-renderer-id="0" transform="translate(60.12800598144531, 87)"><g id="tx_howtocho_dgpu24bmmfh-fill" stroke="none" fill="#A3A3A3"><g><text style="font: bold 20px Roboto, sans-serif; white-space: pre;" font-weight="bold" font-size="20px" font-family="Roboto, sans-serif"><tspan x="13.7" y="34" dominant-baseline="ideographic">How to choose </tspan><tspan x="43.87" y="58" dominant-baseline="ideographic">the best </tspan><tspan x="23.7" y="82" dominant-baseline="ideographic">salvage yard </tspan><tspan x="14.21" y="106" dominant-baseline="ideographic">for auto parts?</tspan></text></g></g></g><g id="g-root-1_mahf1obs8wa-fill" data-item-order="1000000000" data-item-id="1_mahf1obs8wa" data-item-class="Icon Stroke Indexed ColorStrokeGray" data-item-index="2" data-renderer-id="0" transform="translate(420.12799072265625, 117)"></g><g id="g-root-tx_fullserv_1hfpu98bmn0p-fill" data-item-order="1000000000" data-item-id="tx_fullserv_1hfpu98bmn0p" data-item-class="Label Stroke Indexed" data-item-index="2" data-renderer-id="0" transform="translate(468.12799072265625, 117)"><g id="tx_fullserv_1hfpu98bmn0p-fill" stroke="none" fill="#4F92FF"><g><text style="font: bold 20px Roboto, sans-serif; white-space: pre;" font-weight="bold" font-size="20px" font-family="Roboto, sans-serif"><tspan x="12" y="34" dominant-baseline="ideographic">Full-Service Yards</tspan></text></g></g></g><g id="g-root-tx_convenie_1qbcui4bmm80-fill" data-item-order="1000000000" data-item-id="tx_convenie_1qbcui4bmm80" data-item-class="Label Stroke Indexed ColorStrokeGray" data-item-index="2" data-renderer-id="0" transform="translate(468.12799072265625, 153)"><g id="tx_convenie_1qbcui4bmm80-fill" stroke="none" fill="#A3A3A3"><g><text style="font: 20px Roboto, sans-serif; white-space: pre;" font-size="20px" font-family="Roboto, sans-serif"><tspan x="12" y="34" dominant-baseline="ideographic">Convenient but more </tspan><tspan x="12" y="58" dominant-baseline="ideographic">expensive</tspan></text></g></g></g><g id="g-root-moni_1qbcui4bpfd0-fill" data-item-order="1000000000" data-item-id="moni_1qbcui4bpfd0" data-item-class="Icon Stroke Indexed ColorStrokeGray" data-item-index="3" data-renderer-id="0" transform="translate(420.12799072265625, 231)"></g><g id="g-root-tx_onlinesa_59bosbmo0f-fill" data-item-order="1000000000" data-item-id="tx_onlinesa_59bosbmo0f" data-item-class="Label Stroke Indexed" data-item-index="3" data-renderer-id="0" transform="translate(468.12799072265625, 225)"><g id="tx_onlinesa_59bosbmo0f-fill" stroke="none" fill="#1AC6FF"><g><text style="font: bold 20px Roboto, sans-serif; white-space: pre;" font-weight="bold" font-size="20px" font-family="Roboto, sans-serif"><tspan x="12" y="34" dominant-baseline="ideographic">Online Salvage Yards</tspan></text></g></g></g><g id="g-root-tx_wideinve_59bosbmo0e-fill" data-item-order="1000000000" data-item-id="tx_wideinve_59bosbmo0e" data-item-class="Label Stroke Indexed ColorStrokeGray" data-item-index="3" data-renderer-id="0" transform="translate(468.12799072265625, 261)"><g id="tx_wideinve_59bosbmo0e-fill" stroke="none" fill="#A3A3A3"><g><text style="font: 20px Roboto, sans-serif; white-space: pre;" font-size="20px" font-family="Roboto, sans-serif"><tspan x="12" y="34" dominant-baseline="ideographic">Wide inventory access and </tspan><tspan x="12" y="58" dominant-baseline="ideographic">home convenience</tspan><tspan x="12" y="82" dominant-baseline="ideographic">Bionicautoparts.com</tspan></text></g></g></g><g id="g-root-0.cu_sy_zn6vl8bmn7l-stroke" data-item-order="999872181" data-item-id="0.cu_sy_zn6vl8bmn7l" data-item-class="Part Indexed_0 Fill Stroke ColorFillBlack ColorStrokeBlack" data-item-index="0" data-renderer-id="0" transform="translate(6.128021240234375, 31)"><g id="0.cu_sy_zn6vl8bmn7l-stroke" fill="none" stroke-linecap="round" stroke-linejoin="round" stroke-miterlimit="4" stroke="#666666" stroke-width="2"><g><path d="M 94.251091 283.0001C 94.251091 279.6921 94.251091 264.0588 90.580691 261.0001C 85.673191 256.9105 79.221891 257.9669 71.002791 259.3128C 66.158191 260.1062 60.699491 261.0001 54.580591 261.0001C 40.172391 261.0001 34.916291 252.8652 36.580591 242.5C 38.085791 233.1262 36.690491 232.0968 34.110291 230.1933C 33.636791 229.8439 33.123391 229.4652 32.580691 229C 29.080691 226 27.580691 220 30.580691 216.5C 26.580691 212 24.436891 207.1545 27.080691 203C 30.580691 197.5 29.580691 192 23.080691 190.5C 22.626291 190.3951 22.143591 190.2249 21.506591 190.0003C 20.496691 189.6442 19.098891 189.1514 16.811191 188.5654C 13.080691 187.6097 5.871991 179.4306 13.080691 169.5C 15.876091 165.6491 18.632391 162.2701 21.152991 159.1801C 27.649591 151.2162 32.580691 145.1712 32.580691 137.9105C 32.580691 135.1548 31.861691 133.224 31.033391 130.9995C 29.907991 127.9771 28.580691 124.4125 28.580691 117.5C 28.580691 58.1294 76.710091 10 136.080691 10C 195.451291 10 243.580691 58.1294 243.580691 117.5C 243.580691 155.8549 223.832691 180.2462 216.722491 189.0282L 216.650291 189.1173C 210.103591 197.2037 200.650291 208.932 200.650291 225.5L 200.650291 283.0001C 200.650291 287.2262 195.049991 301.5538 145.666391 301.5538C 96.282791 301.5538 94.251091 286.308 94.251091 283.0001ZM 136.000091 208C 185.705691 208 226.000091 167.7056 226.000091 118C 226.000091 68.2944 185.705691 28 136.000091 28C 86.294491 28 46.000091 68.2944 46.000091 118C 46.000091 167.7056 86.294491 208 136.000091 208Z"></path></g></g></g><g id="g-root-3.cu_sy_qrjvccbmo0a-stroke" data-item-order="999872185" data-item-id="3.cu_sy_qrjvccbmo0a" data-item-class="Part Indexed Fill Stroke" data-item-index="3" data-renderer-id="0" transform="translate(243.5518341064453, 197.69677734375)"><g id="3.cu_sy_qrjvccbmo0a-stroke" fill="none" stroke-linecap="round" stroke-linejoin="round" stroke-miterlimit="4" stroke="#1AC6FF" stroke-width="2"><g><path d="M 151.6874 48.0459L 174.5757 61.5164L 151.4657 74.6031L 151.5234 67.6944C 101.2928 65.675 54.5757 49.9538 15.026 24.1668L 10 20.8897L 17.1003 10L 22.1263 13.277C 59.6594 37.7492 103.9649 52.6957 151.6319 54.688L 151.6874 48.0459Z"></path></g></g></g><g id="g-root-2.cu_sy_mccub0bmlmr-stroke" data-item-order="999872189" data-item-id="2.cu_sy_mccub0bmlmr" data-item-class="Part Indexed Fill Stroke" data-item-index="2" data-renderer-id="0" transform="translate(258.12799072265625, 121.220947265625)"><g id="2.cu_sy_mccub0bmlmr-stroke" fill="none" stroke-linecap="round" stroke-linejoin="round" stroke-miterlimit="4" stroke="#4F92FF" stroke-width="2"><g><path d="M 137 36.5581L 160 23.2791L 137 10L 137 16.7791L 10 16.7791L 10 29.7791L 137 29.7791L 137 36.5581Z"></path></g></g></g><g id="g-root-1.cu_sy_mccub0bmlms-stroke" data-item-order="999872193" data-item-id="1.cu_sy_mccub0bmlms" data-item-class="Part Indexed Indexed_1 Fill Stroke" data-item-index="1" data-renderer-id="0" transform="translate(243.5518341064453, 7.813232421875)"><g id="1.cu_sy_mccub0bmlms-stroke" fill="none" stroke-linecap="round" stroke-linejoin="round" stroke-miterlimit="4" stroke="#44E095" stroke-width="2"><g><path d="M 151.6874 36.5572L 174.5757 23.0867L 151.4657 10L 151.5234 16.9086C 101.2928 18.9281 54.5757 34.6493 15.026 60.4363L 10 63.7133L 17.1003 74.6031L 22.1263 71.326C 59.6594 46.8539 103.9649 31.9074 151.6319 29.9151L 151.6874 36.5572Z"></path></g></g></g><g id="g-root-bott_14809kcb8k5r-stroke" data-item-order="1000000000" data-item-id="bott_14809kcb8k5r" data-item-class="Icon Stroke Indexed Indexed_1 ColorStrokeGray" data-item-index="1" data-renderer-id="0" transform="translate(420.12799072265625, 3)"><g id="bott_14809kcb8k5r-stroke" fill="none" stroke-linecap="round" stroke-linejoin="round" stroke-miterlimit="4" stroke="#A3A3A3" stroke-width="2"><g><path d="M 18.25 23.5L 22 23.5L 22 27.25L 18.25 27.25ZM 34 23.5L 37.75 23.5L 37.75 27.25L 34 27.25ZM 38.5 23.5C 38.914215 23.5 39.25 23.164213 39.25 22.75L 39.25 19.315001C 39.252949 19.111622 39.171486 18.916113 39.025002 18.775L 36.25 16L 19.75 16L 16.975 18.775C 16.828512 18.916113 16.747051 19.111622 16.75 19.315001L 16.75 22.75C 16.75 23.164213 17.085787 23.5 17.5 23.5ZM 36.25 16L 34.885002 11.32C 34.807831 10.985003 34.508766 10.748242 34.165001 10.75L 21.834999 10.75C 21.491234 10.748242 21.192169 10.985003 21.115 11.32L 19.75 16M 16.75 20.5L 20.5 20.5M 35.5 20.5L 39.25 20.5M 10.75 45.25L 15.25 45.25M 40.75 45.25L 45.25 45.25M 13 27.25L 43 27.25M 25.51 37.75C 25.509781 39.133629 26.631371 40.255394 28.014999 40.255394C 29.398626 40.255394 30.520218 39.133629 30.519999 37.75C 30.520218 36.366371 29.398626 35.244602 28.014999 35.244602C 26.631371 35.244602 25.509781 36.366371 25.509998 37.75M 33.73 37.75C 33.72879 37.295044 33.673401 36.841854 33.564999 36.400002L 35.215 35.439999L 33.549999 32.5L 31.960001 33.459999C 31.311579 32.840302 30.532471 32.373863 29.68 32.095001L 29.68 30.25L 26.349998 30.25L 26.349998 32.154999C 25.460278 32.430111 24.641253 32.895931 23.950001 33.52L 22.255001 32.5L 20.575001 35.5L 22.224998 36.459999C 22.005192 37.346581 22.005192 38.273422 22.224998 39.159996L 20.5 40L 22.224998 43L 23.950001 42.040001C 24.641253 42.66407 25.460278 43.12989 26.35 43.404999L 26.349998 45.25L 29.68 45.25L 29.68 43.345001C 30.532471 43.066135 31.311579 42.599697 31.960001 41.98L 33.580002 42.939999L 35.23 40L 33.564999 39.040001C 33.668777 38.617657 33.724136 38.184868 33.73 37.75ZM 43 45.25L 43 19.75M 13 45.25L 13 19.75"></path></g></g></g><g id="g-root-tx_pickandp_144vsz0bmlfv-stroke" data-item-order="1000000000" data-item-id="tx_pickandp_144vsz0bmlfv" data-item-class="Label Stroke Indexed Indexed_1" data-item-index="1" data-renderer-id="0" transform="translate(468.12799072265625, 9)"></g><g id="g-root-tx_costeffe_1czwc4sbmnsy-stroke" data-item-order="1000000000" data-item-id="tx_costeffe_1czwc4sbmnsy" data-item-class="Label Stroke Indexed Indexed_1 ColorStrokeGray" data-item-index="1" data-renderer-id="0" transform="translate(468.12799072265625, 45)"></g><g id="g-root-tx_howtocho_dgpu24bmmfh-stroke" data-item-order="1000000000" data-item-id="tx_howtocho_dgpu24bmmfh" data-item-class="Label Stroke Title ColorFillGray ColorStrokeGray" data-item-index="none" data-renderer-id="0" transform="translate(60.12800598144531, 87)"></g><g id="g-root-1_mahf1obs8wa-stroke" data-item-order="1000000000" data-item-id="1_mahf1obs8wa" data-item-class="Icon Stroke Indexed ColorStrokeGray" data-item-index="2" data-renderer-id="0" transform="translate(420.12799072265625, 117)"><g id="1_mahf1obs8wa-stroke" fill="none" stroke-linecap="round" stroke-linejoin="round" stroke-miterlimit="4" stroke="#A3A3A3" stroke-width="2"><g><path d="M 19 23.5L 22.75 23.5L 22.75 27.25L 19 27.25ZM 33.25 23.5L 37 23.5L 37 27.25L 33.25 27.25ZM 37 23.5C 37.828426 23.5 38.5 22.828428 38.5 22L 38.5 19.615C 38.498344 19.221491 38.342117 18.844391 38.064999 18.565001L 35.5 16L 20.5 16L 17.934999 18.565001C 17.657883 18.844391 17.501657 19.221491 17.5 19.615L 17.5 22C 17.5 22.828428 18.171574 23.5 19 23.5ZM 35.5 16L 34.285 11.89C 34.115776 11.204226 33.491047 10.729429 32.785 10.75L 23.17 10.75C 22.463955 10.729429 21.839224 11.204226 21.67 11.89L 20.5 16M 17.5 20.5L 21.25 20.5M 34.75 20.5L 38.5 20.5M 26.335001 37.75C 26.334969 38.669575 27.080425 39.415058 28 39.415058C 28.919577 39.415058 29.665031 38.669575 29.665001 37.75C 29.665031 36.830425 28.919577 36.084942 28 36.084942C 27.080425 36.084942 26.334969 36.830425 26.335001 37.75M 29.5 31.299999L 29.98 32.919998C 30.153194 33.471794 30.721043 33.798141 31.285 33.670002L 32.919998 33.294998C 33.551003 33.167084 34.193256 33.456116 34.515976 34.013233C 34.838696 34.570347 34.76989 35.271271 34.345001 35.755001L 33.189999 37C 32.801056 37.424362 32.801056 38.075642 33.190002 38.5L 34.345001 39.744999C 34.76989 40.228729 34.838696 40.929653 34.515976 41.486767C 34.193256 42.043884 33.551003 42.332916 32.919998 42.204998L 31.285 41.829998C 30.721043 41.701859 30.153194 42.028206 29.980001 42.580002L 29.5 44.199997C 29.290895 44.804169 28.721828 45.209393 28.0825 45.209393C 27.443171 45.209393 26.874105 44.804169 26.664999 44.199997L 26.17 42.579998C 26.003 42.02327 25.430111 41.694023 24.865002 41.830002L 23.23 42.204998C 22.601658 42.324348 21.966757 42.032154 21.64871 41.477264C 21.330664 40.922375 21.399439 40.226852 21.82 39.744999L 22.885 38.5C 23.273947 38.075642 23.273947 37.424362 22.885 37L 21.744999 35.755001C 21.324438 35.273148 21.255665 34.577625 21.573711 34.022736C 21.891756 33.467846 22.526659 33.175655 23.155001 33.294998L 24.789999 33.669998C 25.355112 33.805981 25.927999 33.476734 26.095001 32.920002L 26.59 31.299999C 26.75725 30.632666 27.357027 30.164658 28.045 30.164658C 28.732973 30.164658 29.33275 30.632666 29.5 31.299999ZM 10.75 45.25L 15.25 45.25M 40.75 45.25L 45.25 45.25M 13 27.25L 43 27.25M 43 45.25L 43 19.75M 13 45.25L 13 19.75"></path></g></g></g><g id="g-root-tx_fullserv_1hfpu98bmn0p-stroke" data-item-order="1000000000" data-item-id="tx_fullserv_1hfpu98bmn0p" data-item-class="Label Stroke Indexed" data-item-index="2" data-renderer-id="0" transform="translate(468.12799072265625, 117)"></g><g id="g-root-tx_convenie_1qbcui4bmm80-stroke" data-item-order="1000000000" data-item-id="tx_convenie_1qbcui4bmm80" data-item-class="Label Stroke Indexed ColorStrokeGray" data-item-index="2" data-renderer-id="0" transform="translate(468.12799072265625, 153)"></g><g id="g-root-moni_1qbcui4bpfd0-stroke" data-item-order="1000000000" data-item-id="moni_1qbcui4bpfd0" data-item-class="Icon Stroke Indexed ColorStrokeGray" data-item-index="3" data-renderer-id="0" transform="translate(420.12799072265625, 231)"><g id="moni_1qbcui4bpfd0-stroke" fill="none" stroke-linecap="round" stroke-linejoin="round" stroke-miterlimit="4" stroke="#A3A3A3" stroke-width="2"><g><path d="M 32.5 43.75L 23.5 43.75C 24.788166 41.995331 25.566782 39.919025 25.75 37.75L 30.25 37.75C 30.442263 39.916977 31.219994 41.990925 32.5 43.75ZM 20.5 43.75L 35.5 43.75M 10.75 33.25L 45.25 33.25M 45.25 36.189999C 45.25 37.018429 44.578426 37.689999 43.75 37.689999L 12.25 37.689999C 11.421573 37.689999 10.75 37.018429 10.75 36.189999L 10.75 13.75C 10.75 12.921573 11.421573 12.25 12.25 12.25L 43.75 12.25C 44.578426 12.25 45.25 12.921573 45.25 13.75ZM 33.25 17.5L 31.18 25.255001C 31.072638 25.55196 30.790771 25.749866 30.474998 25.75L 24.369999 25.75C 24.069654 25.755093 23.796434 25.576906 23.68 25.299999L 22 20.799999C 21.902681 20.562607 21.930845 20.292238 22.075001 20.08C 22.222528 19.85462 22.481529 19.727999 22.75 19.75L 32.650002 19.75M 24.625 28C 24.832108 28 25 28.167892 25 28.375C 25 28.582108 24.832108 28.75 24.625 28.75C 24.417892 28.75 24.25 28.582108 24.25 28.375C 24.25 28.167892 24.417892 28 24.625 28M 29.875 28C 30.082108 28 30.25 28.167892 30.25 28.375C 30.25 28.582108 30.082108 28.75 29.875 28.75C 29.667892 28.75 29.5 28.582108 29.5 28.375C 29.5 28.167892 29.667892 28 29.875 28"></path></g></g></g><g id="g-root-tx_onlinesa_59bosbmo0f-stroke" data-item-order="1000000000" data-item-id="tx_onlinesa_59bosbmo0f" data-item-class="Label Stroke Indexed" data-item-index="3" data-renderer-id="0" transform="translate(468.12799072265625, 225)"></g><g id="g-root-tx_wideinve_59bosbmo0e-stroke" data-item-order="1000000000" data-item-id="tx_wideinve_59bosbmo0e" data-item-class="Label Stroke Indexed ColorStrokeGray" data-item-index="3" data-renderer-id="0" transform="translate(468.12799072265625, 261)"></g></g></g></svg>