<?xml version="1.0" encoding="utf-8" standalone="yes"?>
<!DOCTYPE svg PUBLIC "-//W3C//DTD SVG 1.1//EN" "http://www.w3.org/Graphics/SVG/1.1/DTD/svg11.dtd">
<svg width="949" height="469" viewBox="0 0 949 469" style="fill:none;stroke:none;fill-rule:evenodd;clip-rule:evenodd;stroke-linecap:round;stroke-linejoin:round;stroke-miterlimit:1.5;" version="1.1" xmlns="http://www.w3.org/2000/svg" xmlns:xlink="http://www.w3.org/1999/xlink"><style id="fontImports">@import url("https://fonts.googleapis.com/css2?family=Roboto:wght@400;700&amp;display=block");</style><g id="items" style="isolation: isolate"><g id="blend" style="mix-blend-mode:normal"><g id="g-root-ro_1qd83fw337d3c-fill" data-item-order="999976600" data-item-id="ro_1qd83fw337d3c" data-item-class="Shape Stroke Fill" data-item-index="none" data-renderer-id="0" transform="translate(386, 150)"><g id="ro_1qd83fw337d3c-fill" stroke="none" fill="#505050"><g><path d="M 34 10L 142 10C 142 10 166 10 166 34L 166 136C 166 136 166 160 142 160L 34 160C 34 160 10 160 10 136L 10 34C 10 34 10 10 34 10"></path></g></g></g><g id="g-root-ro_dhc4to33a494-fill" data-item-order="999981856" data-item-id="ro_dhc4to33a494" data-item-class="Shape Stroke Fill" data-item-index="none" data-renderer-id="0" transform="translate(590, 15)"><g id="ro_dhc4to33a494-fill" stroke="none" fill="#293f64"><g><path d="M 22 10L 334 10C 334 10 346 10 346 22L 346 52C 346 52 346 64 334 64L 22 64C 22 64 10 64 10 52L 10 22C 10 22 10 10 22 10"></path></g></g></g><g id="g-root-ro_92rkvg33bklj-fill" data-item-order="999983800" data-item-id="ro_92rkvg33bklj" data-item-class="Shape Stroke Fill" data-item-index="none" data-renderer-id="0" transform="translate(590, 273)"><g id="ro_92rkvg33bklj-fill" stroke="none" fill="#692e2c"><g><path d="M 22 10L 298 10C 298 10 310 10 310 22L 310 52C 310 52 310 64 298 64L 22 64C 22 64 10 64 10 52L 10 22C 10 22 10 10 22 10"></path></g></g></g><g id="g-root-ro_1ltnqss33fs3w-fill" data-item-order="999989632" data-item-id="ro_1ltnqss33fs3w" data-item-class="Shape Stroke Fill" data-item-index="none" data-renderer-id="0" transform="translate(146, 285)"><g id="ro_1ltnqss33fs3w-fill" stroke="none" fill="#5a3f27"><g><path d="M 22 10L 190 10C 190 10 202 10 202 22L 202 52C 202 52 202 64 190 64L 22 64C 22 64 10 64 10 52L 10 22C 10 22 10 10 22 10"></path></g></g></g><g id="g-root-ro_1upar1o33ed5b-fill" data-item-order="999992224" data-item-id="ro_1upar1o33ed5b" data-item-class="Shape Stroke Fill" data-item-index="none" data-renderer-id="0" transform="translate(194, 3)"><g id="ro_1upar1o33ed5b-fill" stroke="none" fill="#2b503e"><g><path d="M 22 10L 142 10C 142 10 154 10 154 22L 154 52C 154 52 154 64 142 64L 22 64C 22 64 10 64 10 52L 10 22C 10 22 10 10 22 10"></path></g></g></g><g id="g-root-cu_1cyn7n033fqio-fill" data-item-order="1000000000" data-item-id="cu_1cyn7n033fqio" data-item-class="Curve Stroke ColorStrokeBlack" data-item-index="none" data-renderer-id="0" transform="translate(542, 42)"></g><g id="g-root-tx_bionicsa_qs663w33a5ty-fill" data-item-order="1000000000" data-item-id="tx_bionicsa_qs663w33a5ty" data-item-class="Label Stroke" data-item-index="none" data-renderer-id="0" transform="translate(638, 30)"><g id="tx_bionicsa_qs663w33a5ty-fill" stroke="none" fill="#4F92FF"><g><text style="font: 20px Roboto, sans-serif; white-space: pre;" font-size="20px" font-family="Roboto, sans-serif"><tspan x="15.77" y="34" dominant-baseline="ideographic">Bionics Auto Parts Advantage</tspan></text></g></g></g><g id="g-root-tx_perfectf_4jtpbg33cydg-fill" data-item-order="1000000000" data-item-id="tx_perfectf_4jtpbg33cydg" data-item-class="Label Stroke" data-item-index="none" data-renderer-id="0" transform="translate(74, 69)"><g id="tx_perfectf_4jtpbg33cydg-fill" stroke="none" fill="#A3A3A3"><g><text style="font: 20px Roboto, sans-serif; white-space: pre;" font-size="20px" font-family="Roboto, sans-serif"><tspan x="12" y="34" dominant-baseline="ideographic">Perfect Fit and Function</tspan></text></g></g></g><g id="g-root-cu_18itpik33frb5-fill" data-item-order="1000000000" data-item-id="cu_18itpik33frb5" data-item-class="Curve Stroke ColorStrokeBlack" data-item-index="none" data-renderer-id="0" transform="translate(296, 57)"></g><g id="g-root-tx_potentia_hwj5v033cyyw-fill" data-item-order="1000000000" data-item-id="tx_potentia_hwj5v033cyyw" data-item-class="Label Stroke" data-item-index="none" data-renderer-id="0" transform="translate(638, 411)"><g id="tx_potentia_hwj5v033cyyw-fill" stroke="none" fill="#A3A3A3"><g><text style="font: 20px Roboto, sans-serif; white-space: pre;" font-size="20px" font-family="Roboto, sans-serif"><tspan x="15.85" y="34" dominant-baseline="ideographic">Potential Compatibility Issues</tspan></text></g></g></g><g id="g-root-cu_v7d75833fsw6-fill" data-item-order="1000000000" data-item-id="cu_v7d75833fsw6" data-item-class="Curve Stroke ColorStrokeBlack" data-item-index="none" data-renderer-id="0" transform="translate(296, 57)"></g><g id="g-root-cu_v7d75833fsw8-fill" data-item-order="1000000000" data-item-id="cu_v7d75833fsw8" data-item-class="Curve Stroke ColorStrokeBlack" data-item-index="none" data-renderer-id="0" transform="translate(296, 57)"></g><g id="g-root-cu_qs663w33fqiq-fill" data-item-order="1000000000" data-item-id="cu_qs663w33fqiq" data-item-class="Curve Stroke ColorStrokeBlack" data-item-index="none" data-renderer-id="0" transform="translate(296, 57)"></g><g id="g-root-cu_qs663w33fqis-fill" data-item-order="1000000000" data-item-id="cu_qs663w33fqis" data-item-class="Curve Stroke ColorStrokeBlack" data-item-index="none" data-renderer-id="0" transform="translate(614, 69)"></g><g id="g-root-cu_qs663w33fqiv-fill" data-item-order="1000000000" data-item-id="cu_qs663w33fqiv" data-item-class="Curve Stroke ColorStrokeBlack" data-item-index="none" data-renderer-id="0" transform="translate(614, 69)"></g><g id="g-root-cu_mccnzg33frb5-fill" data-item-order="1000000000" data-item-id="cu_mccnzg33frb5" data-item-class="Curve Stroke ColorStrokeBlack" data-item-index="none" data-renderer-id="0" transform="translate(614, 69)"></g><g id="g-root-cu_mccnzg33frb7-fill" data-item-order="1000000000" data-item-id="cu_mccnzg33frb7" data-item-class="Curve Stroke ColorStrokeBlack" data-item-index="none" data-renderer-id="0" transform="translate(614, 69)"></g><g id="g-root-cu_dgpnqk33fs3x-fill" data-item-order="1000000000" data-item-id="cu_dgpnqk33fs3x" data-item-class="Curve Stroke ColorStrokeBlack" data-item-index="none" data-renderer-id="0" transform="translate(614, 69)"></g><g id="g-root-tx_vastsele_1cyn7n033cy6h-fill" data-item-order="1000000000" data-item-id="tx_vastsele_1cyn7n033cy6h" data-item-class="Label Stroke" data-item-index="none" data-renderer-id="0" transform="translate(638, 81)"><g id="tx_vastsele_1cyn7n033cy6h-fill" stroke="none" fill="#A3A3A3"><g><text style="font: 20px Roboto, sans-serif; white-space: pre;" font-size="20px" font-family="Roboto, sans-serif"><tspan x="12.41" y="34" dominant-baseline="ideographic">Vast Selection</tspan></text></g></g></g><g id="g-root-tx_costsavi_1upar1o33cyz1-fill" data-item-order="1000000000" data-item-id="tx_costsavi_1upar1o33cyz1" data-item-class="Label Stroke" data-item-index="none" data-renderer-id="0" transform="translate(86, 105)"><g id="tx_costsavi_1upar1o33cyz1-fill" stroke="none" fill="#A3A3A3"><g><text style="font: 20px Roboto, sans-serif; white-space: pre;" font-size="20px" font-family="Roboto, sans-serif"><tspan x="14.52" y="34" dominant-baseline="ideographic">Cost Savings Without </tspan><tspan x="52.29" y="58" dominant-baseline="ideographic">Compromise</tspan></text></g></g></g><g id="g-root-tx_qualitya_18itpik33cyyq-fill" data-item-order="1000000000" data-item-id="tx_qualitya_18itpik33cyyq" data-item-class="Label Stroke" data-item-index="none" data-renderer-id="0" transform="translate(638, 117)"><g id="tx_qualitya_18itpik33cyyq-fill" stroke="none" fill="#A3A3A3"><g><text style="font: 20px Roboto, sans-serif; white-space: pre;" font-size="20px" font-family="Roboto, sans-serif"><tspan x="13.81" y="34" dominant-baseline="ideographic">Quality Assurance</tspan></text></g></g></g><g id="g-root-leg_hwj5v033a6mn-fill" data-item-order="1000000000" data-item-id="leg_hwj5v033a6mn" data-item-class="Icon Stroke" data-item-index="none" data-renderer-id="0" transform="translate(602, 27)"></g><g id="g-root-tx_ecofrien_1q9h8x833czra-fill" data-item-order="1000000000" data-item-id="tx_ecofrien_1q9h8x833czra" data-item-class="Label Stroke" data-item-index="none" data-renderer-id="0" transform="translate(98, 165)"><g id="tx_ecofrien_1q9h8x833czra-fill" stroke="none" fill="#A3A3A3"><g><text style="font: 20px Roboto, sans-serif; white-space: pre;" font-size="20px" font-family="Roboto, sans-serif"><tspan x="12.92" y="34" dominant-baseline="ideographic">Eco-Friendly Solution</tspan></text></g></g></g><g id="g-root-tx_affordab_zn6p9o33czrf-fill" data-item-order="1000000000" data-item-id="tx_affordab_zn6p9o33czrf" data-item-class="Label Stroke" data-item-index="none" data-renderer-id="0" transform="translate(638, 153)"><g id="tx_affordab_zn6p9o33czrf-fill" stroke="none" fill="#A3A3A3"><g><text style="font: 20px Roboto, sans-serif; white-space: pre;" font-size="20px" font-family="Roboto, sans-serif"><tspan x="13.73" y="34" dominant-baseline="ideographic">Affordable Pricing</tspan></text></g></g></g><g id="g-root-1_1ut1lkc337cb3-fill" data-item-order="1000000000" data-item-id="1_1ut1lkc337cb3" data-item-class="Icon Stroke" data-item-index="none" data-renderer-id="0" transform="translate(440, 174)"></g><g id="g-root-tx_availabi_1hegprg33cxe7-fill" data-item-order="1000000000" data-item-id="tx_availabi_1hegprg33cxe7" data-item-class="Label Stroke" data-item-index="none" data-renderer-id="0" transform="translate(2, 201)"><g id="tx_availabi_1hegprg33cxe7-fill" stroke="none" fill="#A3A3A3"><g><text style="font: 20px Roboto, sans-serif; white-space: pre;" font-size="20px" font-family="Roboto, sans-serif"><tspan x="12.49" y="34" dominant-baseline="ideographic">Availability of Rare Components</tspan></text></g></g></g><g id="g-root-tx_easynavi_v7zo8c33cxdw-fill" data-item-order="1000000000" data-item-id="tx_easynavi_v7zo8c33cxdw" data-item-class="Label Stroke" data-item-index="none" data-renderer-id="0" transform="translate(638, 189)"><g id="tx_easynavi_v7zo8c33cxdw-fill" stroke="none" fill="#A3A3A3"><g><text style="font: 20px Roboto, sans-serif; white-space: pre;" font-size="20px" font-family="Roboto, sans-serif"><tspan x="16.78" y="34" dominant-baseline="ideographic">Easy Navigation</tspan></text></g></g></g><g id="g-root-tx_longlast_1cyn7n033cy6g-fill" data-item-order="1000000000" data-item-id="tx_longlast_1cyn7n033cy6g" data-item-class="Label Stroke" data-item-index="none" data-renderer-id="0" transform="translate(74, 237)"><g id="tx_longlast_1cyn7n033cy6g-fill" stroke="none" fill="#A3A3A3"><g><text style="font: 20px Roboto, sans-serif; white-space: pre;" font-size="20px" font-family="Roboto, sans-serif"><tspan x="16.16" y="34" dominant-baseline="ideographic">Long-Lasting Durability</tspan></text></g></g></g><g id="g-root-tx_usedoemp_4nkju4337bpi-fill" data-item-order="1000000000" data-item-id="tx_usedoemp_4nkju4337bpi" data-item-class="Label Stroke" data-item-index="none" data-renderer-id="0" transform="translate(410, 228)"><g id="tx_usedoemp_4nkju4337bpi-fill" stroke="none" fill="#A3A3A3"><g><text style="font: 20px Roboto, sans-serif; white-space: pre;" font-size="20px" font-family="Roboto, sans-serif"><tspan x="15.18" y="34" dominant-baseline="ideographic">Used OEM </tspan><tspan x="37.77" y="58" dominant-baseline="ideographic">Parts</tspan></text></g></g></g><g id="g-root-tx_exceptio_v7zo8c33cxdx-fill" data-item-order="1000000000" data-item-id="tx_exceptio_v7zo8c33cxdx" data-item-class="Label Stroke" data-item-index="none" data-renderer-id="0" transform="translate(638, 225)"><g id="tx_exceptio_v7zo8c33cxdx-fill" stroke="none" fill="#A3A3A3"><g><text style="font: 20px Roboto, sans-serif; white-space: pre;" font-size="20px" font-family="Roboto, sans-serif"><tspan x="16.79" y="34" dominant-baseline="ideographic">Exceptional Support</tspan></text></g></g></g><g id="g-root-cu_1cyn7n033fqiu-fill" data-item-order="1000000000" data-item-id="cu_1cyn7n033fqiu" data-item-class="Curve Stroke ColorStrokeBlack" data-item-index="none" data-renderer-id="0" transform="translate(338, 250)"></g><g id="g-root-cu_1cyn7n033fqir-fill" data-item-order="1000000000" data-item-id="cu_1cyn7n033fqir" data-item-class="Curve Stroke ColorStrokeBlack" data-item-index="none" data-renderer-id="0" transform="translate(542, 250)"></g><g id="g-root-cu_1hdu8oc33fsw5-fill" data-item-order="1000000000" data-item-id="cu_1hdu8oc33fsw5" data-item-class="Curve Stroke ColorStrokeBlack" data-item-index="none" data-renderer-id="0" transform="translate(338, 30)"></g><g id="g-root-1_4jtpbg33ecjq-fill" data-item-order="1000000000" data-item-id="1_4jtpbg33ecjq" data-item-class="Icon Stroke" data-item-index="none" data-renderer-id="0" transform="translate(296, 15)"></g><g id="g-root-cart_1upar1o33frb7-fill" data-item-order="1000000000" data-item-id="cart_1upar1o33frb7" data-item-class="Icon Stroke" data-item-index="none" data-renderer-id="0" transform="translate(296, 297)"></g><g id="g-root-truc_dil2zw33bjta-fill" data-item-order="1000000000" data-item-id="truc_dil2zw33bjta" data-item-class="Icon Stroke" data-item-index="none" data-renderer-id="0" transform="translate(602, 285)"></g><g id="g-root-tx_shopping_4077033fqq2-fill" data-item-order="1000000000" data-item-id="tx_shopping_4077033fqq2" data-item-class="Label Stroke" data-item-index="none" data-renderer-id="0" transform="translate(158, 300)"><g id="tx_shopping_4077033fqq2-fill" stroke="none" fill="#F99539"><g><text style="font: 20px Roboto, sans-serif; white-space: pre;" font-size="20px" font-family="Roboto, sans-serif"><tspan x="12.64" y="34" dominant-baseline="ideographic">Shopping Tips</tspan></text></g></g></g><g id="g-root-tx_risksofa_me838s33bj0l-fill" data-item-order="1000000000" data-item-id="tx_risksofa_me838s33bj0l" data-item-class="Label Stroke" data-item-index="none" data-renderer-id="0" transform="translate(638, 288)"><g id="tx_risksofa_me838s33bj0l-fill" stroke="none" fill="#FD6A65"><g><text style="font: 20px Roboto, sans-serif; white-space: pre;" font-size="20px" font-family="Roboto, sans-serif"><tspan x="12.62" y="34" dominant-baseline="ideographic">Risks of Aftermarket Parts</tspan></text></g></g></g><g id="g-root-cu_dgpnqk33fs3z-fill" data-item-order="1000000000" data-item-id="cu_dgpnqk33fs3z" data-item-class="Curve Stroke ColorStrokeBlack" data-item-index="none" data-renderer-id="0" transform="translate(614, 327)"></g><g id="g-root-cu_90w5m433fswa-fill" data-item-order="1000000000" data-item-id="cu_90w5m433fswa" data-item-class="Curve Stroke ColorStrokeBlack" data-item-index="none" data-renderer-id="0" transform="translate(614, 327)"></g><g id="g-root-cu_90w5m433fswc-fill" data-item-order="1000000000" data-item-id="cu_90w5m433fswc" data-item-class="Curve Stroke ColorStrokeBlack" data-item-index="none" data-renderer-id="0" transform="translate(614, 327)"></g><g id="g-root-tx_knowyour_dgpnqk33czr5-fill" data-item-order="1000000000" data-item-id="tx_knowyour_dgpnqk33czr5" data-item-class="Label Stroke" data-item-index="none" data-renderer-id="0" transform="translate(38, 351)"><g id="tx_knowyour_dgpnqk33czr5-fill" stroke="none" fill="#A3A3A3"><g><text style="font: 20px Roboto, sans-serif; white-space: pre;" font-size="20px" font-family="Roboto, sans-serif"><tspan x="14.27" y="34" dominant-baseline="ideographic">Know Your Vehicle’s Details</tspan></text></g></g></g><g id="g-root-cu_4lp4ks33fqiu-fill" data-item-order="1000000000" data-item-id="cu_4lp4ks33fqiu" data-item-class="Curve Stroke ColorStrokeBlack" data-item-index="none" data-renderer-id="0" transform="translate(296, 339)"></g><g id="g-root-cu_4lp4ks33fqix-fill" data-item-order="1000000000" data-item-id="cu_4lp4ks33fqix" data-item-class="Curve Stroke ColorStrokeBlack" data-item-index="none" data-renderer-id="0" transform="translate(296, 339)"></g><g id="g-root-cu_5vmgc33frb7-fill" data-item-order="1000000000" data-item-id="cu_5vmgc33frb7" data-item-class="Curve Stroke ColorStrokeBlack" data-item-index="none" data-renderer-id="0" transform="translate(296, 339)"></g><g id="g-root-tx_imperfec_mccnzg33cy6m-fill" data-item-order="1000000000" data-item-id="tx_imperfec_mccnzg33cy6m" data-item-class="Label Stroke" data-item-index="none" data-renderer-id="0" transform="translate(638, 339)"><g id="tx_imperfec_mccnzg33cy6m-fill" stroke="none" fill="#A3A3A3"><g><text style="font: 20px Roboto, sans-serif; white-space: pre;" font-size="20px" font-family="Roboto, sans-serif"><tspan x="13.3" y="34" dominant-baseline="ideographic">Imperfect Fit</tspan></text></g></g></g><g id="g-root-tx_referenc_4lp4ks33cxe2-fill" data-item-order="1000000000" data-item-id="tx_referenc_4lp4ks33cxe2" data-item-class="Label Stroke" data-item-index="none" data-renderer-id="0" transform="translate(62, 387)"><g id="tx_referenc_4lp4ks33cxe2-fill" stroke="none" fill="#A3A3A3"><g><text style="font: 20px Roboto, sans-serif; white-space: pre;" font-size="20px" font-family="Roboto, sans-serif"><tspan x="14.86" y="34" dominant-baseline="ideographic">Reference Part Numbers</tspan></text></g></g></g><g id="g-root-tx_shortene_hwj5v033cyyv-fill" data-item-order="1000000000" data-item-id="tx_shortene_hwj5v033cyyv" data-item-class="Label Stroke" data-item-index="none" data-renderer-id="0" transform="translate(638, 375)"><g id="tx_shortene_hwj5v033cyyv-fill" stroke="none" fill="#A3A3A3"><g><text style="font: 20px Roboto, sans-serif; white-space: pre;" font-size="20px" font-family="Roboto, sans-serif"><tspan x="13.55" y="34" dominant-baseline="ideographic">Shortened Lifespan</tspan></text></g></g></g><g id="g-root-tx_chooseat_5vmgc33cy6b-fill" data-item-order="1000000000" data-item-id="tx_chooseat_5vmgc33cy6b" data-item-class="Label Stroke" data-item-index="none" data-renderer-id="0" transform="translate(74, 423)"><g id="tx_chooseat_5vmgc33cy6b-fill" stroke="none" fill="#A3A3A3"><g><text style="font: 20px Roboto, sans-serif; white-space: pre;" font-size="20px" font-family="Roboto, sans-serif"><tspan x="12.83" y="34" dominant-baseline="ideographic">Choose a Trusted Seller</tspan></text></g></g></g><g id="g-root-tx_benefits_8zn7fw33ebrh-fill" data-item-order="1000000000" data-item-id="tx_benefits_8zn7fw33ebrh" data-item-class="Label Stroke" data-item-index="none" data-renderer-id="0" transform="translate(206, 18)"><g id="tx_benefits_8zn7fw33ebrh-fill" stroke="none" fill="#44E095"><g><text style="font: 20px Roboto, sans-serif; white-space: pre;" font-size="20px" font-family="Roboto, sans-serif"><tspan x="15.7" y="34" dominant-baseline="ideographic">Benefits</tspan></text></g></g></g><g id="g-root-cu_zn6p9o33fs3w-fill" data-item-order="1000000000" data-item-id="cu_zn6p9o33fs3w" data-item-class="Curve Stroke ColorStrokeBlack" data-item-index="none" data-renderer-id="0" transform="translate(296, 57)"></g><g id="g-root-ro_1qd83fw337d3c-stroke" data-item-order="999976600" data-item-id="ro_1qd83fw337d3c" data-item-class="Shape Stroke Fill" data-item-index="none" data-renderer-id="0" transform="translate(386, 150)"><g id="ro_1qd83fw337d3c-stroke" fill="none" stroke-linecap="round" stroke-linejoin="round" stroke-miterlimit="4" stroke="#A3A3A3" stroke-width="2"><g><path d="M 34 10L 142 10C 142 10 166 10 166 34L 166 136C 166 136 166 160 142 160L 34 160C 34 160 10 160 10 136L 10 34C 10 34 10 10 34 10"></path></g></g></g><g id="g-root-ro_dhc4to33a494-stroke" data-item-order="999981856" data-item-id="ro_dhc4to33a494" data-item-class="Shape Stroke Fill" data-item-index="none" data-renderer-id="0" transform="translate(590, 15)"><g id="ro_dhc4to33a494-stroke" fill="none" stroke-linecap="round" stroke-linejoin="round" stroke-miterlimit="4" stroke="#4F92FF" stroke-width="2"><g><path d="M 22 10L 334 10C 334 10 346 10 346 22L 346 52C 346 52 346 64 334 64L 22 64C 22 64 10 64 10 52L 10 22C 10 22 10 10 22 10"></path></g></g></g><g id="g-root-ro_92rkvg33bklj-stroke" data-item-order="999983800" data-item-id="ro_92rkvg33bklj" data-item-class="Shape Stroke Fill" data-item-index="none" data-renderer-id="0" transform="translate(590, 273)"><g id="ro_92rkvg33bklj-stroke" fill="none" stroke-linecap="round" stroke-linejoin="round" stroke-miterlimit="4" stroke="#FD6A65" stroke-width="2"><g><path d="M 22 10L 298 10C 298 10 310 10 310 22L 310 52C 310 52 310 64 298 64L 22 64C 22 64 10 64 10 52L 10 22C 10 22 10 10 22 10"></path></g></g></g><g id="g-root-ro_1ltnqss33fs3w-stroke" data-item-order="999989632" data-item-id="ro_1ltnqss33fs3w" data-item-class="Shape Stroke Fill" data-item-index="none" data-renderer-id="0" transform="translate(146, 285)"><g id="ro_1ltnqss33fs3w-stroke" fill="none" stroke-linecap="round" stroke-linejoin="round" stroke-miterlimit="4" stroke="#F99539" stroke-width="2"><g><path d="M 22 10L 190 10C 190 10 202 10 202 22L 202 52C 202 52 202 64 190 64L 22 64C 22 64 10 64 10 52L 10 22C 10 22 10 10 22 10"></path></g></g></g><g id="g-root-ro_1upar1o33ed5b-stroke" data-item-order="999992224" data-item-id="ro_1upar1o33ed5b" data-item-class="Shape Stroke Fill" data-item-index="none" data-renderer-id="0" transform="translate(194, 3)"><g id="ro_1upar1o33ed5b-stroke" fill="none" stroke-linecap="round" stroke-linejoin="round" stroke-miterlimit="4" stroke="#44E095" stroke-width="2"><g><path d="M 22 10L 142 10C 142 10 154 10 154 22L 154 52C 154 52 154 64 142 64L 22 64C 22 64 10 64 10 52L 10 22C 10 22 10 10 22 10"></path></g></g></g><g id="g-root-cu_1cyn7n033fqio-stroke" data-item-order="1000000000" data-item-id="cu_1cyn7n033fqio" data-item-class="Curve Stroke ColorStrokeBlack" data-item-index="none" data-renderer-id="0" transform="translate(542, 42)"><g id="cu_1cyn7n033fqio-stroke" fill="none" stroke-linecap="round" stroke-linejoin="round" stroke-miterlimit="4" stroke="#666666" stroke-width="2" stroke-dasharray="5.0, 7.0"><g><path d="M 10 168L 13 168L 13.1 168C 24.642755 168.000003 34.000004 158.642754 34.000003 147.100002L 34 147L 34 30.9C 33.999999 19.357249 43.357248 10.000001 54.899999 10.000002L 55 10L 58 10"></path></g></g></g><g id="g-root-tx_bionicsa_qs663w33a5ty-stroke" data-item-order="1000000000" data-item-id="tx_bionicsa_qs663w33a5ty" data-item-class="Label Stroke" data-item-index="none" data-renderer-id="0" transform="translate(638, 30)"></g><g id="g-root-tx_perfectf_4jtpbg33cydg-stroke" data-item-order="1000000000" data-item-id="tx_perfectf_4jtpbg33cydg" data-item-class="Label Stroke" data-item-index="none" data-renderer-id="0" transform="translate(74, 69)"></g><g id="g-root-cu_18itpik33frb5-stroke" data-item-order="1000000000" data-item-id="cu_18itpik33frb5" data-item-class="Curve Stroke ColorStrokeBlack" data-item-index="none" data-renderer-id="0" transform="translate(296, 57)"><g id="cu_18itpik33frb5-stroke" fill="none" stroke-linecap="round" stroke-linejoin="round" stroke-miterlimit="4" stroke="#666666" stroke-width="2" stroke-dasharray="5.0, 7.0"><g><path d="M 28 10L 28 22L 28 34L 19 34L 10 34"></path></g></g></g><g id="g-root-tx_potentia_hwj5v033cyyw-stroke" data-item-order="1000000000" data-item-id="tx_potentia_hwj5v033cyyw" data-item-class="Label Stroke" data-item-index="none" data-renderer-id="0" transform="translate(638, 411)"></g><g id="g-root-cu_v7d75833fsw6-stroke" data-item-order="1000000000" data-item-id="cu_v7d75833fsw6" data-item-class="Curve Stroke ColorStrokeBlack" data-item-index="none" data-renderer-id="0" transform="translate(296, 57)"><g id="cu_v7d75833fsw6-stroke" fill="none" stroke-linecap="round" stroke-linejoin="round" stroke-miterlimit="4" stroke="#666666" stroke-width="2" stroke-dasharray="5.0, 7.0"><g><path d="M 28 10L 28 70L 28 130L 19 130L 10 130"></path></g></g></g><g id="g-root-cu_v7d75833fsw8-stroke" data-item-order="1000000000" data-item-id="cu_v7d75833fsw8" data-item-class="Curve Stroke ColorStrokeBlack" data-item-index="none" data-renderer-id="0" transform="translate(296, 57)"><g id="cu_v7d75833fsw8-stroke" fill="none" stroke-linecap="round" stroke-linejoin="round" stroke-miterlimit="4" stroke="#666666" stroke-width="2" stroke-dasharray="5.0, 7.0"><g><path d="M 28 10L 28 88L 28 166L 19 166L 10 166"></path></g></g></g><g id="g-root-cu_qs663w33fqiq-stroke" data-item-order="1000000000" data-item-id="cu_qs663w33fqiq" data-item-class="Curve Stroke ColorStrokeBlack" data-item-index="none" data-renderer-id="0" transform="translate(296, 57)"><g id="cu_qs663w33fqiq-stroke" fill="none" stroke-linecap="round" stroke-linejoin="round" stroke-miterlimit="4" stroke="#666666" stroke-width="2" stroke-dasharray="5.0, 7.0"><g><path d="M 28 10L 28 34L 28 190C 28.000013 196.627429 22.627429 202.000013 16.000012 202.000013L 15.9 202L 10 202"></path></g></g></g><g id="g-root-cu_qs663w33fqis-stroke" data-item-order="1000000000" data-item-id="cu_qs663w33fqis" data-item-class="Curve Stroke ColorStrokeBlack" data-item-index="none" data-renderer-id="0" transform="translate(614, 69)"><g id="cu_qs663w33fqis-stroke" fill="none" stroke-linecap="round" stroke-linejoin="round" stroke-miterlimit="4" stroke="#666666" stroke-width="2" stroke-dasharray="5.0, 7.0"><g><path d="M 10 10L 10 22L 10 34L 19 34L 28 34"></path></g></g></g><g id="g-root-cu_qs663w33fqiv-stroke" data-item-order="1000000000" data-item-id="cu_qs663w33fqiv" data-item-class="Curve Stroke ColorStrokeBlack" data-item-index="none" data-renderer-id="0" transform="translate(614, 69)"><g id="cu_qs663w33fqiv-stroke" fill="none" stroke-linecap="round" stroke-linejoin="round" stroke-miterlimit="4" stroke="#666666" stroke-width="2" stroke-dasharray="5.0, 7.0"><g><path d="M 10 10L 10 40L 10 70L 19 70L 28 70"></path></g></g></g><g id="g-root-cu_mccnzg33frb5-stroke" data-item-order="1000000000" data-item-id="cu_mccnzg33frb5" data-item-class="Curve Stroke ColorStrokeBlack" data-item-index="none" data-renderer-id="0" transform="translate(614, 69)"><g id="cu_mccnzg33frb5-stroke" fill="none" stroke-linecap="round" stroke-linejoin="round" stroke-miterlimit="4" stroke="#666666" stroke-width="2" stroke-dasharray="5.0, 7.0"><g><path d="M 10 10L 10 58L 10 106L 19 106L 28 106"></path></g></g></g><g id="g-root-cu_mccnzg33frb7-stroke" data-item-order="1000000000" data-item-id="cu_mccnzg33frb7" data-item-class="Curve Stroke ColorStrokeBlack" data-item-index="none" data-renderer-id="0" transform="translate(614, 69)"><g id="cu_mccnzg33frb7-stroke" fill="none" stroke-linecap="round" stroke-linejoin="round" stroke-miterlimit="4" stroke="#666666" stroke-width="2" stroke-dasharray="5.0, 7.0"><g><path d="M 10 10L 10 76L 10 142L 19 142L 28 142"></path></g></g></g><g id="g-root-cu_dgpnqk33fs3x-stroke" data-item-order="1000000000" data-item-id="cu_dgpnqk33fs3x" data-item-class="Curve Stroke ColorStrokeBlack" data-item-index="none" data-renderer-id="0" transform="translate(614, 69)"><g id="cu_dgpnqk33fs3x-stroke" fill="none" stroke-linecap="round" stroke-linejoin="round" stroke-miterlimit="4" stroke="#666666" stroke-width="2" stroke-dasharray="5.0, 7.0"><g><path d="M 10 10L 10 31L 10 166C 10 172.627425 15.372584 178.000009 22.000001 178.000008L 22.1 178L 28 178"></path></g></g></g><g id="g-root-tx_vastsele_1cyn7n033cy6h-stroke" data-item-order="1000000000" data-item-id="tx_vastsele_1cyn7n033cy6h" data-item-class="Label Stroke" data-item-index="none" data-renderer-id="0" transform="translate(638, 81)"></g><g id="g-root-tx_costsavi_1upar1o33cyz1-stroke" data-item-order="1000000000" data-item-id="tx_costsavi_1upar1o33cyz1" data-item-class="Label Stroke" data-item-index="none" data-renderer-id="0" transform="translate(86, 105)"></g><g id="g-root-tx_qualitya_18itpik33cyyq-stroke" data-item-order="1000000000" data-item-id="tx_qualitya_18itpik33cyyq" data-item-class="Label Stroke" data-item-index="none" data-renderer-id="0" transform="translate(638, 117)"></g><g id="g-root-leg_hwj5v033a6mn-stroke" data-item-order="1000000000" data-item-id="leg_hwj5v033a6mn" data-item-class="Icon Stroke" data-item-index="none" data-renderer-id="0" transform="translate(602, 27)"><g id="leg_hwj5v033a6mn-stroke" fill="none" stroke-linecap="round" stroke-linejoin="round" stroke-miterlimit="4" stroke="#4F92FF" stroke-width="2"><g><path d="M 20.125 34.375L 26.52375 34.375C 26.743519 35.272995 27.395876 36.002678 28.26375 36.321251C 29.178074 36.687237 30.153896 36.875187 31.138748 36.875C 31.607344 36.874947 32.024529 37.171761 32.178112 37.614475C 32.331692 38.057186 32.187954 38.548592 31.82 38.838749C 31.379967 39.187054 30.834949 39.376072 30.27375 39.375L 20.27375 39.375C 19.918276 39.375023 19.579605 39.223701 19.342464 38.958885C 19.105324 38.694073 18.992147 38.340816 19.03125 37.987499ZM 20.282499 23.4375C 18.710594 22.396116 17.766001 20.635569 17.7675 18.75L 17.7675 16.875C 17.7675 16.184645 18.327145 15.625 19.0175 15.625L 20.8925 15.625C 21.928034 15.625 22.767502 14.785534 22.767502 13.75C 22.7675 12.02411 24.166611 10.625 25.8925 10.625C 27.618391 10.625 29.0175 12.02411 29.0175 13.75L 29.0175 18.75C 29.017092 20.635704 28.071827 22.395754 26.5 23.4375M 26.5175 28.125L 20.2675 28.125L 20.2675 23.75C 20.2675 22.024111 21.666611 20.625 23.3925 20.625C 25.118391 20.625 26.5175 22.024111 26.5175 23.75ZM 21.5175 28.125L 25.2675 28.125L 25.2675 34.375L 21.5175 34.375ZM 22.1425 24.375C 22.1425 25.065357 22.702145 25.625 23.3925 25.625C 24.082855 25.625 24.6425 25.065357 24.6425 24.375C 24.6425 23.684643 24.082855 23.125 23.3925 23.125C 22.702145 23.125 22.1425 23.684643 22.1425 24.375Z"></path></g></g></g><g id="g-root-tx_ecofrien_1q9h8x833czra-stroke" data-item-order="1000000000" data-item-id="tx_ecofrien_1q9h8x833czra" data-item-class="Label Stroke" data-item-index="none" data-renderer-id="0" transform="translate(98, 165)"></g><g id="g-root-tx_affordab_zn6p9o33czrf-stroke" data-item-order="1000000000" data-item-id="tx_affordab_zn6p9o33czrf" data-item-class="Label Stroke" data-item-index="none" data-renderer-id="0" transform="translate(638, 153)"></g><g id="g-root-1_1ut1lkc337cb3-stroke" data-item-order="1000000000" data-item-id="1_1ut1lkc337cb3" data-item-class="Icon Stroke" data-item-index="none" data-renderer-id="0" transform="translate(440, 174)"><g id="1_1ut1lkc337cb3-stroke" fill="none" stroke-linecap="round" stroke-linejoin="round" stroke-miterlimit="4" stroke="#A3A3A3" stroke-width="2"><g><path d="M 21 45L 21 48C 21 48.552284 20.552284 49 20 49L 16 49C 15.447716 49 15 48.552284 15 48L 15 45M 53 45L 53 48C 53 48.552284 52.552284 49 52 49L 48 49C 47.447716 49 47 48.552284 47 48L 47 45M 54 45C 54.552284 45 55 44.552284 55 44L 55 37.414001C 54.999943 37.149296 54.894939 36.895409 54.708 36.708L 49 31L 19 31L 13.292 36.708C 13.105062 36.895409 13.000056 37.149296 13 37.414001L 13 44C 13 44.552284 13.447716 45 14 45ZM 49 31L 45.228001 19.684C 45.092045 19.275806 44.710239 19.000328 44.279999 19L 23.720001 19C 23.289761 19.000328 22.907955 19.275806 22.771999 19.684L 19 31M 19 31L 14 31C 13.447716 31 13 30.552284 13 30L 13 28C 13 27.447716 13.447716 27 14 27L 20.334 27M 47.666 27L 54 27C 54.552284 27 55 27.447716 55 28L 55 30C 55 30.552284 54.552284 31 54 31L 49 31M 13.092 37L 20 37C 20.552284 37 21 37.447716 21 38L 21 40C 21 40.552284 20.552284 41 20 41L 13 41M 55 41L 48 41C 47.447716 41 47 40.552284 47 40L 47 38C 47 37.447716 47.447716 37 48 37L 54.908001 37"></path></g></g></g><g id="g-root-tx_availabi_1hegprg33cxe7-stroke" data-item-order="1000000000" data-item-id="tx_availabi_1hegprg33cxe7" data-item-class="Label Stroke" data-item-index="none" data-renderer-id="0" transform="translate(2, 201)"></g><g id="g-root-tx_easynavi_v7zo8c33cxdw-stroke" data-item-order="1000000000" data-item-id="tx_easynavi_v7zo8c33cxdw" data-item-class="Label Stroke" data-item-index="none" data-renderer-id="0" transform="translate(638, 189)"></g><g id="g-root-tx_longlast_1cyn7n033cy6g-stroke" data-item-order="1000000000" data-item-id="tx_longlast_1cyn7n033cy6g" data-item-class="Label Stroke" data-item-index="none" data-renderer-id="0" transform="translate(74, 237)"></g><g id="g-root-tx_usedoemp_4nkju4337bpi-stroke" data-item-order="1000000000" data-item-id="tx_usedoemp_4nkju4337bpi" data-item-class="Label Stroke" data-item-index="none" data-renderer-id="0" transform="translate(410, 228)"></g><g id="g-root-tx_exceptio_v7zo8c33cxdx-stroke" data-item-order="1000000000" data-item-id="tx_exceptio_v7zo8c33cxdx" data-item-class="Label Stroke" data-item-index="none" data-renderer-id="0" transform="translate(638, 225)"></g><g id="g-root-cu_1cyn7n033fqiu-stroke" data-item-order="1000000000" data-item-id="cu_1cyn7n033fqiu" data-item-class="Curve Stroke ColorStrokeBlack" data-item-index="none" data-renderer-id="0" transform="translate(338, 250)"><g id="cu_1cyn7n033fqiu-stroke" fill="none" stroke-linecap="round" stroke-linejoin="round" stroke-miterlimit="4" stroke="#666666" stroke-width="2" stroke-dasharray="5.0, 7.0"><g><path d="M 58 10L 55 10L 54.9 10C 43.357248 10.000001 33.999999 19.357249 33.999999 30.9L 34 31L 34 51.1C 34 62.642753 24.64275 72.000002 13.099999 72.000001L 13 72L 10 72"></path></g></g></g><g id="g-root-cu_1cyn7n033fqir-stroke" data-item-order="1000000000" data-item-id="cu_1cyn7n033fqir" data-item-class="Curve Stroke ColorStrokeBlack" data-item-index="none" data-renderer-id="0" transform="translate(542, 250)"><g id="cu_1cyn7n033fqir-stroke" fill="none" stroke-linecap="round" stroke-linejoin="round" stroke-miterlimit="4" stroke="#666666" stroke-width="2" stroke-dasharray="5.0, 7.0"><g><path d="M 10 10L 13 10L 13.1 10C 24.64275 10 33.999998 19.357248 33.999998 30.899998L 34 31L 34 39.1C 33.999999 50.642748 43.357246 59.999996 54.899997 59.999996L 55 60L 58 60"></path></g></g></g><g id="g-root-cu_1hdu8oc33fsw5-stroke" data-item-order="1000000000" data-item-id="cu_1hdu8oc33fsw5" data-item-class="Curve Stroke ColorStrokeBlack" data-item-index="none" data-renderer-id="0" transform="translate(338, 30)"><g id="cu_1hdu8oc33fsw5-stroke" fill="none" stroke-linecap="round" stroke-linejoin="round" stroke-miterlimit="4" stroke="#666666" stroke-width="2" stroke-dasharray="5.0, 7.0"><g><path d="M 58 180L 55 180L 54.9 180C 43.357244 180.000001 33.999996 170.642752 33.999996 159.1L 34 159L 34 30.9C 33.999998 19.357248 24.64275 10 13.1 10L 13 10L 10 10"></path></g></g></g><g id="g-root-1_4jtpbg33ecjq-stroke" data-item-order="1000000000" data-item-id="1_4jtpbg33ecjq" data-item-class="Icon Stroke" data-item-index="none" data-renderer-id="0" transform="translate(296, 15)"><g id="1_4jtpbg33ecjq-stroke" fill="none" stroke-linecap="round" stroke-linejoin="round" stroke-miterlimit="4" stroke="#44E095" stroke-width="2"><g><path d="M 25 14.375L 25 37.5M 11.25 30L 15.625 20.668751L 20 30M 15.625 34.375C 16.794004 34.404114 17.923801 33.952538 18.750669 33.125671C 19.577538 32.298801 20.029118 31.169004 20 29.999998L 11.25 30C 11.220882 31.169004 11.672462 32.298801 12.499331 33.125671C 13.326199 33.952538 14.455995 34.404114 15.625 34.375ZM 38.75 22.5L 34.375 13.016251L 30 22.5M 34.375 26.875C 33.205994 26.904118 32.076195 26.452538 31.249331 25.625669C 30.422461 24.798801 29.970882 23.669004 29.999998 22.5L 38.75 22.5C 38.779114 23.669004 38.327538 24.798801 37.500671 25.625669C 36.673801 26.452538 35.544006 26.904118 34.375 26.875ZM 26.8675 16.11875L 35.625 12.5M 13.0575 21.706249L 26.8675 16.11875M 19.375 37.5L 30.625 37.5"></path></g></g></g><g id="g-root-cart_1upar1o33frb7-stroke" data-item-order="1000000000" data-item-id="cart_1upar1o33frb7" data-item-class="Icon Stroke" data-item-index="none" data-renderer-id="0" transform="translate(296, 297)"><g id="cart_1upar1o33frb7-stroke" fill="none" stroke-linecap="round" stroke-linejoin="round" stroke-miterlimit="4" stroke="#F99539" stroke-width="2"><g><path d="M 39.375 13.125L 36.161251 13.125C 35.849915 13.125047 35.586086 13.35423 35.5425 13.6625L 33.196251 30.0875C 33.152664 30.395771 32.888836 30.624952 32.577499 30.625L 14.375 30.625C 13.684644 30.625 13.125 30.065355 13.125 29.375C 13.125 28.684643 13.684644 28.125 14.375 28.125L 29.375 28.125C 30.065355 28.125 30.625 27.565357 30.625 26.875C 30.625 26.184643 30.065355 25.625 29.375 25.625L 13.125 25.625C 12.434644 25.625 11.875 25.065357 11.875 24.375C 11.875 23.684643 12.434644 23.125 13.125 23.125L 30 23.125C 30.690355 23.125 31.25 22.565357 31.25 21.875C 31.25 21.184643 30.690355 20.625 30 20.625L 11.875 20.625C 11.184644 20.625 10.625 20.065357 10.625 19.375C 10.625 18.684645 11.184644 18.125 11.875 18.125L 31.875 18.125M 15.62 35C 15.620001 36.035534 16.459467 36.875 17.495001 36.875C 18.530535 36.875 19.370001 36.035534 19.370001 35C 19.370001 33.964466 18.530535 33.125 17.495001 33.125C 16.459467 33.125 15.620001 33.964466 15.620001 35ZM 29.370001 35C 29.370001 36.035534 30.209467 36.875 31.245001 36.875C 32.280537 36.875 33.119999 36.035534 33.119999 35C 33.119999 33.964466 32.280537 33.125 31.245001 33.125C 30.209467 33.125 29.370001 33.964466 29.370001 35Z"></path></g></g></g><g id="g-root-truc_dil2zw33bjta-stroke" data-item-order="1000000000" data-item-id="truc_dil2zw33bjta" data-item-class="Icon Stroke" data-item-index="none" data-renderer-id="0" transform="translate(602, 285)"><g id="truc_dil2zw33bjta-stroke" fill="none" stroke-linecap="round" stroke-linejoin="round" stroke-miterlimit="4" stroke="#FD6A65" stroke-width="2"><g><path d="M 17.5 10.625C 13.703042 10.625 10.625 13.703042 10.625 17.5L 10.625 20.625C 10.625 21.315357 11.184644 21.875 11.875 21.875L 12.06625 21.875C 12.677273 21.875282 13.198543 22.317251 13.29875 22.92L 13.57625 24.58C 13.676457 25.182749 14.197727 25.624718 14.80875 25.625L 20.19125 25.625C 20.802273 25.624718 21.323544 25.182749 21.42375 24.58L 21.70125 22.92C 21.801456 22.317251 22.322727 21.875282 22.93375 21.875L 23.125 21.875C 23.815357 21.875 24.375 21.315357 24.375 20.625L 24.375 17.5C 24.375 13.703042 21.296957 10.625 17.5 10.625ZM 13.125 18.125C 13.125 18.815355 13.684644 19.375 14.375 19.375C 15.065356 19.375 15.625 18.815355 15.625 18.125C 15.625 17.434645 15.065356 16.875 14.375 16.875C 13.684644 16.875 13.125 17.434645 13.125 18.125M 19.375 18.125C 19.375 18.815355 19.934645 19.375 20.625 19.375C 21.315357 19.375 21.875 18.815355 21.875 18.125C 21.875 17.434645 21.315357 16.875 20.625 16.875C 19.934645 16.875 19.375 17.434645 19.375 18.125M 15.625 25.625L 15.625 22.5M 19.375 25.625L 19.375 22.5M 28.125 33.75L 28.125 20.625L 34.375 20.625C 37.136425 20.625 39.375 22.863577 39.375 25.625L 39.375 35.625C 39.375 36.315353 38.815353 36.875 38.125 36.875L 36.875 36.875M 29.375 36.875C 29.375 38.255714 30.494287 39.375 31.875 39.375C 33.255714 39.375 34.375 38.255714 34.375 36.875C 34.375 35.494286 33.255714 34.375 31.875 34.375C 30.494287 34.375 29.375 35.494286 29.375 36.875M 13.125 36.875C 13.125 38.255714 14.244288 39.375 15.625 39.375C 17.005713 39.375 18.125 38.255714 18.125 36.875C 18.125 35.494286 17.005713 34.375 15.625 34.375C 14.244288 34.375 13.125 35.494286 13.125 36.875M 28.125 31.875L 11.875 31.875C 11.184644 31.875 10.625 32.434647 10.625 33.125L 10.625 35M 39.375 28.125L 33.125 28.125C 32.434647 28.125 31.875 27.565357 31.875 26.875L 31.875 20.625M 28.125 20.625L 28.125 16.875M 29.375 36.875L 20.625 36.875M 39.375 33.75L 36.875 33.75"></path></g></g></g><g id="g-root-tx_shopping_4077033fqq2-stroke" data-item-order="1000000000" data-item-id="tx_shopping_4077033fqq2" data-item-class="Label Stroke" data-item-index="none" data-renderer-id="0" transform="translate(158, 300)"></g><g id="g-root-tx_risksofa_me838s33bj0l-stroke" data-item-order="1000000000" data-item-id="tx_risksofa_me838s33bj0l" data-item-class="Label Stroke" data-item-index="none" data-renderer-id="0" transform="translate(638, 288)"></g><g id="g-root-cu_dgpnqk33fs3z-stroke" data-item-order="1000000000" data-item-id="cu_dgpnqk33fs3z" data-item-class="Curve Stroke ColorStrokeBlack" data-item-index="none" data-renderer-id="0" transform="translate(614, 327)"><g id="cu_dgpnqk33fs3z-stroke" fill="none" stroke-linecap="round" stroke-linejoin="round" stroke-miterlimit="4" stroke="#666666" stroke-width="2" stroke-dasharray="5.0, 7.0"><g><path d="M 10 10L 10 22L 10 34L 19 34L 28 34"></path></g></g></g><g id="g-root-cu_90w5m433fswa-stroke" data-item-order="1000000000" data-item-id="cu_90w5m433fswa" data-item-class="Curve Stroke ColorStrokeBlack" data-item-index="none" data-renderer-id="0" transform="translate(614, 327)"><g id="cu_90w5m433fswa-stroke" fill="none" stroke-linecap="round" stroke-linejoin="round" stroke-miterlimit="4" stroke="#666666" stroke-width="2" stroke-dasharray="5.0, 7.0"><g><path d="M 10 10L 10 40L 10 70L 19 70L 28 70"></path></g></g></g><g id="g-root-cu_90w5m433fswc-stroke" data-item-order="1000000000" data-item-id="cu_90w5m433fswc" data-item-class="Curve Stroke ColorStrokeBlack" data-item-index="none" data-renderer-id="0" transform="translate(614, 327)"><g id="cu_90w5m433fswc-stroke" fill="none" stroke-linecap="round" stroke-linejoin="round" stroke-miterlimit="4" stroke="#666666" stroke-width="2" stroke-dasharray="5.0, 7.0"><g><path d="M 10 10L 10 22L 10 94C 10.000004 100.627423 15.372587 106.000006 22.000005 106.000005L 22.1 106L 28 106"></path></g></g></g><g id="g-root-tx_knowyour_dgpnqk33czr5-stroke" data-item-order="1000000000" data-item-id="tx_knowyour_dgpnqk33czr5" data-item-class="Label Stroke" data-item-index="none" data-renderer-id="0" transform="translate(38, 351)"></g><g id="g-root-cu_4lp4ks33fqiu-stroke" data-item-order="1000000000" data-item-id="cu_4lp4ks33fqiu" data-item-class="Curve Stroke ColorStrokeBlack" data-item-index="none" data-renderer-id="0" transform="translate(296, 339)"><g id="cu_4lp4ks33fqiu-stroke" fill="none" stroke-linecap="round" stroke-linejoin="round" stroke-miterlimit="4" stroke="#666666" stroke-width="2" stroke-dasharray="5.0, 7.0"><g><path d="M 28 10L 28 22L 28 34L 19 34L 10 34"></path></g></g></g><g id="g-root-cu_4lp4ks33fqix-stroke" data-item-order="1000000000" data-item-id="cu_4lp4ks33fqix" data-item-class="Curve Stroke ColorStrokeBlack" data-item-index="none" data-renderer-id="0" transform="translate(296, 339)"><g id="cu_4lp4ks33fqix-stroke" fill="none" stroke-linecap="round" stroke-linejoin="round" stroke-miterlimit="4" stroke="#666666" stroke-width="2" stroke-dasharray="5.0, 7.0"><g><path d="M 28 10L 28 40L 28 70L 19 70L 10 70"></path></g></g></g><g id="g-root-cu_5vmgc33frb7-stroke" data-item-order="1000000000" data-item-id="cu_5vmgc33frb7" data-item-class="Curve Stroke ColorStrokeBlack" data-item-index="none" data-renderer-id="0" transform="translate(296, 339)"><g id="cu_5vmgc33frb7-stroke" fill="none" stroke-linecap="round" stroke-linejoin="round" stroke-miterlimit="4" stroke="#666666" stroke-width="2" stroke-dasharray="5.0, 7.0"><g><path d="M 28 10L 28 22L 28 94C 28.000002 100.627415 22.627419 105.999998 16.000002 105.999998L 15.9 106L 10 106"></path></g></g></g><g id="g-root-tx_imperfec_mccnzg33cy6m-stroke" data-item-order="1000000000" data-item-id="tx_imperfec_mccnzg33cy6m" data-item-class="Label Stroke" data-item-index="none" data-renderer-id="0" transform="translate(638, 339)"></g><g id="g-root-tx_referenc_4lp4ks33cxe2-stroke" data-item-order="1000000000" data-item-id="tx_referenc_4lp4ks33cxe2" data-item-class="Label Stroke" data-item-index="none" data-renderer-id="0" transform="translate(62, 387)"></g><g id="g-root-tx_shortene_hwj5v033cyyv-stroke" data-item-order="1000000000" data-item-id="tx_shortene_hwj5v033cyyv" data-item-class="Label Stroke" data-item-index="none" data-renderer-id="0" transform="translate(638, 375)"></g><g id="g-root-tx_chooseat_5vmgc33cy6b-stroke" data-item-order="1000000000" data-item-id="tx_chooseat_5vmgc33cy6b" data-item-class="Label Stroke" data-item-index="none" data-renderer-id="0" transform="translate(74, 423)"></g><g id="g-root-tx_benefits_8zn7fw33ebrh-stroke" data-item-order="1000000000" data-item-id="tx_benefits_8zn7fw33ebrh" data-item-class="Label Stroke" data-item-index="none" data-renderer-id="0" transform="translate(206, 18)"></g><g id="g-root-cu_zn6p9o33fs3w-stroke" data-item-order="1000000000" data-item-id="cu_zn6p9o33fs3w" data-item-class="Curve Stroke ColorStrokeBlack" data-item-index="none" data-renderer-id="0" transform="translate(296, 57)"><g id="cu_zn6p9o33fs3w-stroke" fill="none" stroke-linecap="round" stroke-linejoin="round" stroke-miterlimit="4" stroke="#666666" stroke-width="2" stroke-dasharray="5.0, 7.0"><g><path d="M 28 10L 28 46L 28 82L 19 82L 10 82"></path></g></g></g></g></g></svg>