<?xml version="1.0" encoding="utf-8" standalone="yes"?>
<!DOCTYPE svg PUBLIC "-//W3C//DTD SVG 1.1//EN" "http://www.w3.org/Graphics/SVG/1.1/DTD/svg11.dtd">
<svg width="914" height="320" viewBox="0 0 914 320" style="fill:none;stroke:none;fill-rule:evenodd;clip-rule:evenodd;stroke-linecap:round;stroke-linejoin:round;stroke-miterlimit:1.5;" version="1.1" xmlns="http://www.w3.org/2000/svg" xmlns:xlink="http://www.w3.org/1999/xlink"><style id="fontImports">@import url("https://fonts.googleapis.com/css2?family=Roboto:wght@400;700&amp;display=block");</style><g id="items" style="isolation: isolate"><g id="blend" style="mix-blend-mode:normal"><g id="g-root-ro_1lw62zg1fnsht-fill" data-item-order="999982720" data-item-id="ro_1lw62zg1fnsht" data-item-class="Shape Stroke Fill" data-item-index="none" data-renderer-id="0" transform="translate(475, 93)"><g id="ro_1lw62zg1fnsht-fill" stroke="none" fill="#224754"><g><path d="M 22 10L 178 10C 178 10 190 10 190 22L 190 94C 190 94 190 106 178 106L 22 106C 22 106 10 106 10 94L 10 22C 10 22 10 10 22 10"></path></g></g></g><g id="g-root-ro_hwjlp81fqneq-fill" data-item-order="999982720" data-item-id="ro_hwjlp81fqneq" data-item-class="Shape Stroke Fill" data-item-index="none" data-renderer-id="0" transform="translate(711, 197)"><g id="ro_hwjlp81fqneq-fill" stroke="none" fill="#224754"><g><path d="M 22 10L 178 10C 178 10 190 10 190 22L 190 94C 190 94 190 106 178 106L 22 106C 22 106 10 106 10 94L 10 22C 10 22 10 10 22 10"></path></g></g></g><g id="g-root-ro_1umtajg1fi8ea-fill" data-item-order="999983872" data-item-id="ro_1umtajg1fi8ea" data-item-class="Shape Stroke Fill" data-item-index="none" data-renderer-id="0" transform="translate(3, 93)"><g id="ro_1umtajg1fi8ea-fill" stroke="none" fill="#505050"><g><path d="M 22 10L 166 10C 166 10 178 10 178 22L 178 94C 178 94 178 106 166 106L 22 106C 22 106 10 106 10 94L 10 22C 10 22 10 10 22 10"></path></g></g></g><g id="g-root-ro_145ijks1fmdjc-fill" data-item-order="999986176" data-item-id="ro_145ijks1fmdjc" data-item-class="Shape Stroke Fill" data-item-index="none" data-renderer-id="0" transform="translate(227, 225)"><g id="ro_145ijks1fmdjc-fill" stroke="none" fill="#224754"><g><path d="M 22 10L 190 10C 190 10 202 10 202 22L 202 70C 202 70 202 82 190 82L 22 82C 22 82 10 82 10 70L 10 22C 10 22 10 10 22 10"></path></g></g></g><g id="g-root-ro_1d3ng641fp8nb-fill" data-item-order="999987040" data-item-id="ro_1d3ng641fp8nb" data-item-class="Shape Stroke Fill" data-item-index="none" data-renderer-id="0" transform="translate(711, 105)"><g id="ro_1d3ng641fp8nb-fill" stroke="none" fill="#224754"><g><path d="M 22 10L 178 10C 178 10 190 10 190 22L 190 70C 190 70 190 82 178 82L 22 82C 22 82 10 82 10 70L 10 22C 10 22 10 10 22 10"></path></g></g></g><g id="g-root-ro_8xs80s1fp8un-fill" data-item-order="999987040" data-item-id="ro_8xs80s1fp8un" data-item-class="Shape Stroke Fill" data-item-index="none" data-renderer-id="0" transform="translate(711, 13)"><g id="ro_8xs80s1fp8un-fill" stroke="none" fill="#224754"><g><path d="M 22 10L 178 10C 178 10 190 10 190 22L 190 70C 190 70 190 82 178 82L 22 82C 22 82 10 82 10 70L 10 22C 10 22 10 10 22 10"></path></g></g></g><g id="g-root-ro_hz1i1o1fjl70-fill" data-item-order="999989632" data-item-id="ro_hz1i1o1fjl70" data-item-class="Shape Stroke Fill" data-item-index="none" data-renderer-id="0" transform="translate(227, 77)"><g id="ro_hz1i1o1fjl70-fill" stroke="none" fill="#224754"><g><path d="M 22 10L 190 10C 190 10 202 10 202 22L 202 52C 202 52 202 64 190 64L 22 64C 22 64 10 64 10 52L 10 22C 10 22 10 10 22 10"></path></g></g></g><g id="g-root-ro_mczkws1fkzkd-fill" data-item-order="999989632" data-item-id="ro_mczkws1fkzkd" data-item-class="Shape Stroke Fill" data-item-index="none" data-renderer-id="0" transform="translate(227, 151)"><g id="ro_mczkws1fkzkd-fill" stroke="none" fill="#224754"><g><path d="M 22 10L 190 10C 190 10 202 10 202 22L 202 52C 202 52 202 64 190 64L 22 64C 22 64 10 64 10 52L 10 22C 10 22 10 10 22 10"></path></g></g></g><g id="g-root-ro_dcz9241fjkeb-fill" data-item-order="999989632" data-item-id="ro_dcz9241fjkeb" data-item-class="Shape Stroke Fill" data-item-index="none" data-renderer-id="0" transform="translate(227, 3)"><g id="ro_dcz9241fjkeb-fill" stroke="none" fill="#224754"><g><path d="M 22 10L 190 10C 190 10 202 10 202 22L 202 52C 202 52 202 64 190 64L 22 64C 22 64 10 64 10 52L 10 22C 10 22 10 10 22 10"></path></g></g></g><g id="g-root-9_18kpkm41fmfwv-fill" data-item-order="1000000000" data-item-id="9_18kpkm41fmfwv" data-item-class="Icon Stroke" data-item-index="none" data-renderer-id="0" transform="translate(239, 246)"></g><g id="g-root-sear_htf89o1fp81y-fill" data-item-order="1000000000" data-item-id="sear_htf89o1fp81y" data-item-class="Icon Stroke" data-item-index="none" data-renderer-id="0" transform="translate(723, 34)"></g><g id="g-root-tx_highqual_m98qe41fp79p-fill" data-item-order="1000000000" data-item-id="tx_highqual_m98qe41fp79p" data-item-class="Label Stroke" data-item-index="none" data-renderer-id="0" transform="translate(759, 25)"><g id="tx_highqual_m98qe41fp79p-fill" stroke="none" fill="#1AC6FF"><g><text style="font: 20px Roboto, sans-serif; white-space: pre;" font-size="20px" font-family="Roboto, sans-serif"><tspan x="12" y="34" dominant-baseline="ideographic">High-Quality </tspan><tspan x="12" y="58" dominant-baseline="ideographic">Parts</tspan></text></g></g></g><g id="g-root-tx_affordab_qntacc1fjlz5-fill" data-item-order="1000000000" data-item-id="tx_affordab_qntacc1fjlz5" data-item-class="Label Stroke" data-item-index="none" data-renderer-id="0" transform="translate(275, 18)"><g id="tx_affordab_qntacc1fjlz5-fill" stroke="none" fill="#1AC6FF"><g><text style="font: 20px Roboto, sans-serif; white-space: pre;" font-size="20px" font-family="Roboto, sans-serif"><tspan x="12" y="34" dominant-baseline="ideographic">Affordability</tspan></text></g></g></g><g id="g-root-brow_hz1i1o1fjl6z-fill" data-item-order="1000000000" data-item-id="brow_hz1i1o1fjl6z" data-item-class="Icon Stroke" data-item-index="none" data-renderer-id="0" transform="translate(239, 89)"></g><g id="g-root-tx_convenie_quoiak1fjkea-fill" data-item-order="1000000000" data-item-id="tx_convenie_quoiak1fjkea" data-item-class="Label Stroke" data-item-index="none" data-renderer-id="0" transform="translate(275, 92)"><g id="tx_convenie_quoiak1fjkea-fill" stroke="none" fill="#1AC6FF"><g><text style="font: 20px Roboto, sans-serif; white-space: pre;" font-size="20px" font-family="Roboto, sans-serif"><tspan x="12" y="34" dominant-baseline="ideographic">Convenience</tspan></text></g></g></g><g id="g-root-tx_decision_1iqos1fi7t4-fill" data-item-order="1000000000" data-item-id="tx_decision_1iqos1fi7t4" data-item-class="Label Stroke" data-item-index="none" data-renderer-id="0" transform="translate(51, 105)"><g id="tx_decision_1iqos1fi7t4-fill" stroke="none" fill="#A3A3A3"><g><text style="font: 20px Roboto, sans-serif; white-space: pre;" font-size="20px" font-family="Roboto, sans-serif"><tspan x="12" y="34" dominant-baseline="ideographic">Decision to </tspan><tspan x="12" y="58" dominant-baseline="ideographic">Buy Used </tspan><tspan x="12" y="82" dominant-baseline="ideographic">Auto Parts</tspan></text></g></g></g><g id="g-root-tx_exceptio_v8042k1fqlts-fill" data-item-order="1000000000" data-item-id="tx_exceptio_v8042k1fqlts" data-item-class="Label Stroke" data-item-index="none" data-renderer-id="0" transform="translate(759, 209)"><g id="tx_exceptio_v8042k1fqlts-fill" stroke="none" fill="#1AC6FF"><g><text style="font: 20px Roboto, sans-serif; white-space: pre;" font-size="20px" font-family="Roboto, sans-serif"><tspan x="12" y="34" dominant-baseline="ideographic">Exceptional </tspan><tspan x="12" y="58" dominant-baseline="ideographic">Customer </tspan><tspan x="12" y="82" dominant-baseline="ideographic">Service</tspan></text></g></g></g><g id="g-root-tx_widesele_1hgckv01fmf46-fill" data-item-order="1000000000" data-item-id="tx_widesele_1hgckv01fmf46" data-item-class="Label Stroke" data-item-index="none" data-renderer-id="0" transform="translate(275, 237)"><g id="tx_widesele_1hgckv01fmf46-fill" stroke="none" fill="#1AC6FF"><g><text style="font: 20px Roboto, sans-serif; white-space: pre;" font-size="20px" font-family="Roboto, sans-serif"><tspan x="12" y="34" dominant-baseline="ideographic">Wide </tspan><tspan x="12" y="58" dominant-baseline="ideographic">Selection</tspan></text></g></g></g><g id="g-root-incr_dcz9241fjkea-fill" data-item-order="1000000000" data-item-id="incr_dcz9241fjkea" data-item-class="Icon Stroke" data-item-index="none" data-renderer-id="0" transform="translate(239, 15)"></g><g id="g-root-tx_choosebi_1ur6m581fnu33-fill" data-item-order="1000000000" data-item-id="tx_choosebi_1ur6m581fnu33" data-item-class="Label Stroke" data-item-index="none" data-renderer-id="0" transform="translate(523, 105)"><g id="tx_choosebi_1ur6m581fnu33-fill" stroke="none" fill="#1AC6FF"><g><text style="font: 20px Roboto, sans-serif; white-space: pre;" font-size="20px" font-family="Roboto, sans-serif"><tspan x="12" y="34" dominant-baseline="ideographic">Choose </tspan><tspan x="12" y="58" dominant-baseline="ideographic">BionicsAuto</tspan><tspan x="12" y="82" dominant-baseline="ideographic">Parts.com</tspan></text></g></g></g><g id="g-root-3_mcd3to1fqmmh-fill" data-item-order="1000000000" data-item-id="3_mcd3to1fqmmh" data-item-class="Icon Stroke" data-item-index="none" data-renderer-id="0" transform="translate(723, 230)"></g><g id="g-root-1_1iqos1fi7t5-fill" data-item-order="1000000000" data-item-id="1_1iqos1fi7t5" data-item-class="Icon Stroke" data-item-index="none" data-renderer-id="0" transform="translate(15, 126)"></g><g id="g-root-shop_1qbd40s1fnuvc-fill" data-item-order="1000000000" data-item-id="shop_1qbd40s1fnuvc" data-item-class="Icon Stroke" data-item-index="none" data-renderer-id="0" transform="translate(487, 126)"></g><g id="g-root-star_1hjgyak1fp7v2-fill" data-item-order="1000000000" data-item-id="star_1hjgyak1fp7v2" data-item-class="Icon Stroke" data-item-index="none" data-renderer-id="0" transform="translate(723, 126)"></g><g id="g-root-tx_fastship_1qf3yjg1fp72d-fill" data-item-order="1000000000" data-item-id="tx_fastship_1qf3yjg1fp72d" data-item-class="Label Stroke" data-item-index="none" data-renderer-id="0" transform="translate(759, 117)"><g id="tx_fastship_1qf3yjg1fp72d-fill" stroke="none" fill="#1AC6FF"><g><text style="font: 20px Roboto, sans-serif; white-space: pre;" font-size="20px" font-family="Roboto, sans-serif"><tspan x="12" y="34" dominant-baseline="ideographic">Fast </tspan><tspan x="12" y="58" dominant-baseline="ideographic">Shipping</tspan></text></g></g></g><g id="g-root-tx_sustaina_zntm701fl157-fill" data-item-order="1000000000" data-item-id="tx_sustaina_zntm701fl157" data-item-class="Label Stroke" data-item-index="none" data-renderer-id="0" transform="translate(275, 166)"><g id="tx_sustaina_zntm701fl157-fill" stroke="none" fill="#1AC6FF"><g><text style="font: 20px Roboto, sans-serif; white-space: pre;" font-size="20px" font-family="Roboto, sans-serif"><tspan x="12" y="34" dominant-baseline="ideographic">Sustainability</tspan></text></g></g></g><g id="g-root-refr_mczkws1fkzkc-fill" data-item-order="1000000000" data-item-id="refr_mczkws1fkzkc" data-item-class="Icon Stroke" data-item-index="none" data-renderer-id="0" transform="translate(239, 163)"></g><g id="g-root-cu_18kpkm41fqmf9-fill" data-item-order="1000000002" data-item-id="cu_18kpkm41fqmf9" data-item-class="Curve Stroke" data-item-index="none" data-renderer-id="0" transform="translate(419, 141)"></g><g id="g-root-cu_144w2ho1fqmfi-fill" data-item-order="1000000002" data-item-id="cu_144w2ho1fqmfi" data-item-class="Curve Stroke" data-item-index="none" data-renderer-id="0" transform="translate(655, 141)"></g><g id="g-root-cu_18kpkm41fqmf6-fill" data-item-order="1000000002" data-item-id="cu_18kpkm41fqmf6" data-item-class="Curve Stroke" data-item-index="none" data-renderer-id="0" transform="translate(419, 141)"></g><g id="g-root-cu_144w2ho1fqn7q-fill" data-item-order="1000000002" data-item-id="cu_144w2ho1fqn7q" data-item-class="Curve Stroke" data-item-index="none" data-renderer-id="0" transform="translate(171, 141)"></g><g id="g-root-cu_144w2ho1fqn7n-fill" data-item-order="1000000002" data-item-id="cu_144w2ho1fqn7n" data-item-class="Curve Stroke" data-item-index="none" data-renderer-id="0" transform="translate(171, 141)"></g><g id="g-root-cu_zp2kd81fqn7z-fill" data-item-order="1000000002" data-item-id="cu_zp2kd81fqn7z" data-item-class="Curve Stroke" data-item-index="none" data-renderer-id="0" transform="translate(419, 104)"></g><g id="g-root-cu_zp2kd81fqo00-fill" data-item-order="1000000002" data-item-id="cu_zp2kd81fqo00" data-item-class="Curve Stroke" data-item-index="none" data-renderer-id="0" transform="translate(171, 104)"></g><g id="g-root-cu_18kpkm41fqmf4-fill" data-item-order="1000000002" data-item-id="cu_18kpkm41fqmf4" data-item-class="Curve Stroke" data-item-index="none" data-renderer-id="0" transform="translate(655, 49)"></g><g id="g-root-cu_144w2ho1fqn7l-fill" data-item-order="1000000002" data-item-id="cu_144w2ho1fqn7l" data-item-class="Curve Stroke" data-item-index="none" data-renderer-id="0" transform="translate(419, 30)"></g><g id="g-root-cu_zp2kd81fqo02-fill" data-item-order="1000000002" data-item-id="cu_zp2kd81fqo02" data-item-class="Curve Stroke" data-item-index="none" data-renderer-id="0" transform="translate(171, 30)"></g><g id="g-root-cu_1d0j2qk1fqlmr-fill" data-item-order="1000000002" data-item-id="cu_1d0j2qk1fqlmr" data-item-class="Curve Stroke" data-item-index="none" data-renderer-id="0" transform="translate(655, 141)"></g><g id="g-root-ro_1lw62zg1fnsht-stroke" data-item-order="999982720" data-item-id="ro_1lw62zg1fnsht" data-item-class="Shape Stroke Fill" data-item-index="none" data-renderer-id="0" transform="translate(475, 93)"><g id="ro_1lw62zg1fnsht-stroke" fill="none" stroke-linecap="round" stroke-linejoin="round" stroke-miterlimit="4" stroke="#1AC6FF" stroke-width="2"><g><path d="M 22 10L 178 10C 178 10 190 10 190 22L 190 94C 190 94 190 106 178 106L 22 106C 22 106 10 106 10 94L 10 22C 10 22 10 10 22 10"></path></g></g></g><g id="g-root-ro_hwjlp81fqneq-stroke" data-item-order="999982720" data-item-id="ro_hwjlp81fqneq" data-item-class="Shape Stroke Fill" data-item-index="none" data-renderer-id="0" transform="translate(711, 197)"><g id="ro_hwjlp81fqneq-stroke" fill="none" stroke-linecap="round" stroke-linejoin="round" stroke-miterlimit="4" stroke="#1AC6FF" stroke-width="2"><g><path d="M 22 10L 178 10C 178 10 190 10 190 22L 190 94C 190 94 190 106 178 106L 22 106C 22 106 10 106 10 94L 10 22C 10 22 10 10 22 10"></path></g></g></g><g id="g-root-ro_1umtajg1fi8ea-stroke" data-item-order="999983872" data-item-id="ro_1umtajg1fi8ea" data-item-class="Shape Stroke Fill" data-item-index="none" data-renderer-id="0" transform="translate(3, 93)"><g id="ro_1umtajg1fi8ea-stroke" fill="none" stroke-linecap="round" stroke-linejoin="round" stroke-miterlimit="4" stroke="#A3A3A3" stroke-width="2"><g><path d="M 22 10L 166 10C 166 10 178 10 178 22L 178 94C 178 94 178 106 166 106L 22 106C 22 106 10 106 10 94L 10 22C 10 22 10 10 22 10"></path></g></g></g><g id="g-root-ro_145ijks1fmdjc-stroke" data-item-order="999986176" data-item-id="ro_145ijks1fmdjc" data-item-class="Shape Stroke Fill" data-item-index="none" data-renderer-id="0" transform="translate(227, 225)"><g id="ro_145ijks1fmdjc-stroke" fill="none" stroke-linecap="round" stroke-linejoin="round" stroke-miterlimit="4" stroke="#1AC6FF" stroke-width="2"><g><path d="M 22 10L 190 10C 190 10 202 10 202 22L 202 70C 202 70 202 82 190 82L 22 82C 22 82 10 82 10 70L 10 22C 10 22 10 10 22 10"></path></g></g></g><g id="g-root-ro_1d3ng641fp8nb-stroke" data-item-order="999987040" data-item-id="ro_1d3ng641fp8nb" data-item-class="Shape Stroke Fill" data-item-index="none" data-renderer-id="0" transform="translate(711, 105)"><g id="ro_1d3ng641fp8nb-stroke" fill="none" stroke-linecap="round" stroke-linejoin="round" stroke-miterlimit="4" stroke="#1AC6FF" stroke-width="2"><g><path d="M 22 10L 178 10C 178 10 190 10 190 22L 190 70C 190 70 190 82 178 82L 22 82C 22 82 10 82 10 70L 10 22C 10 22 10 10 22 10"></path></g></g></g><g id="g-root-ro_8xs80s1fp8un-stroke" data-item-order="999987040" data-item-id="ro_8xs80s1fp8un" data-item-class="Shape Stroke Fill" data-item-index="none" data-renderer-id="0" transform="translate(711, 13)"><g id="ro_8xs80s1fp8un-stroke" fill="none" stroke-linecap="round" stroke-linejoin="round" stroke-miterlimit="4" stroke="#1AC6FF" stroke-width="2"><g><path d="M 22 10L 178 10C 178 10 190 10 190 22L 190 70C 190 70 190 82 178 82L 22 82C 22 82 10 82 10 70L 10 22C 10 22 10 10 22 10"></path></g></g></g><g id="g-root-ro_hz1i1o1fjl70-stroke" data-item-order="999989632" data-item-id="ro_hz1i1o1fjl70" data-item-class="Shape Stroke Fill" data-item-index="none" data-renderer-id="0" transform="translate(227, 77)"><g id="ro_hz1i1o1fjl70-stroke" fill="none" stroke-linecap="round" stroke-linejoin="round" stroke-miterlimit="4" stroke="#1AC6FF" stroke-width="2"><g><path d="M 22 10L 190 10C 190 10 202 10 202 22L 202 52C 202 52 202 64 190 64L 22 64C 22 64 10 64 10 52L 10 22C 10 22 10 10 22 10"></path></g></g></g><g id="g-root-ro_mczkws1fkzkd-stroke" data-item-order="999989632" data-item-id="ro_mczkws1fkzkd" data-item-class="Shape Stroke Fill" data-item-index="none" data-renderer-id="0" transform="translate(227, 151)"><g id="ro_mczkws1fkzkd-stroke" fill="none" stroke-linecap="round" stroke-linejoin="round" stroke-miterlimit="4" stroke="#1AC6FF" stroke-width="2"><g><path d="M 22 10L 190 10C 190 10 202 10 202 22L 202 52C 202 52 202 64 190 64L 22 64C 22 64 10 64 10 52L 10 22C 10 22 10 10 22 10"></path></g></g></g><g id="g-root-ro_dcz9241fjkeb-stroke" data-item-order="999989632" data-item-id="ro_dcz9241fjkeb" data-item-class="Shape Stroke Fill" data-item-index="none" data-renderer-id="0" transform="translate(227, 3)"><g id="ro_dcz9241fjkeb-stroke" fill="none" stroke-linecap="round" stroke-linejoin="round" stroke-miterlimit="4" stroke="#1AC6FF" stroke-width="2"><g><path d="M 22 10L 190 10C 190 10 202 10 202 22L 202 52C 202 52 202 64 190 64L 22 64C 22 64 10 64 10 52L 10 22C 10 22 10 10 22 10"></path></g></g></g><g id="g-root-9_18kpkm41fmfwv-stroke" data-item-order="1000000000" data-item-id="9_18kpkm41fmfwv" data-item-class="Icon Stroke" data-item-index="none" data-renderer-id="0" transform="translate(239, 246)"><g id="9_18kpkm41fmfwv-stroke" fill="none" stroke-linecap="round" stroke-linejoin="round" stroke-miterlimit="4" stroke="#1AC6FF" stroke-width="2"><g><path d="M 39.331249 27.866251L 39.331249 20.2225C 39.33194 18.815268 38.190979 17.674309 36.783749 17.674999C 36.432358 17.675001 36.147503 17.959858 36.147503 18.311251L 36.147499 20.2225L 32.325001 20.2225L 32.325001 17.674999C 32.325333 17.506041 32.258446 17.343885 32.139088 17.224295C 32.019733 17.104704 31.857712 17.0375 31.688749 17.0375L 29.7775 17.0375L 27.866251 14.49L 19.58625 14.49L 17.674999 16.401249L 15.125 16.401249C 14.956039 16.400919 14.793885 16.467804 14.674295 16.58716C 14.554705 16.706516 14.4875 16.86854 14.4875 17.0375L 14.4875 25.955C 14.4875 26.307081 14.772919 26.592501 15.125 26.592501L 17.674999 26.592501L 20.2225 31.05125L 22.133749 31.05125M 24.68125 14.49L 24.68125 10.66875M 29.139999 10.66875L 20.2225 10.66875M 10.66875 16.401249L 10.66875 26.592501M 10.66875 21.49625L 14.49 21.49625M 34.655003 34.655003L 39.331249 39.331249M 25.955 31.05125C 25.954582 33.866127 28.236374 36.148258 31.05125 36.148258C 33.866127 36.148258 36.147919 33.866127 36.147503 31.05125C 36.147919 28.236374 33.866127 25.954243 31.05125 25.954243C 28.236374 25.954243 25.954582 28.236374 25.955 31.05125M 32.325001 20.2225L 32.325001 23.3675M 36.147499 20.2225L 36.147499 23.3675M 17.674999 16.401249L 17.674999 26.592501"></path></g></g></g><g id="g-root-sear_htf89o1fp81y-stroke" data-item-order="1000000000" data-item-id="sear_htf89o1fp81y" data-item-class="Icon Stroke" data-item-index="none" data-renderer-id="0" transform="translate(723, 34)"><g id="sear_htf89o1fp81y-stroke" fill="none" stroke-linecap="round" stroke-linejoin="round" stroke-miterlimit="4" stroke="#1AC6FF" stroke-width="2"><g><path d="M 11.071428 22.685715C 11.070206 29.100971 16.270456 34.302216 22.685715 34.302216C 29.100971 34.302216 34.30122 29.100971 34.299999 22.685715C 34.30122 16.270456 29.100971 11.069214 22.685715 11.069214C 16.270456 11.069214 11.070206 16.270456 11.071428 22.685715M 38.92857 38.92857L 30.892857 30.892857"></path></g></g></g><g id="g-root-tx_highqual_m98qe41fp79p-stroke" data-item-order="1000000000" data-item-id="tx_highqual_m98qe41fp79p" data-item-class="Label Stroke" data-item-index="none" data-renderer-id="0" transform="translate(759, 25)"></g><g id="g-root-tx_affordab_qntacc1fjlz5-stroke" data-item-order="1000000000" data-item-id="tx_affordab_qntacc1fjlz5" data-item-class="Label Stroke" data-item-index="none" data-renderer-id="0" transform="translate(275, 18)"></g><g id="g-root-brow_hz1i1o1fjl6z-stroke" data-item-order="1000000000" data-item-id="brow_hz1i1o1fjl6z" data-item-class="Icon Stroke" data-item-index="none" data-renderer-id="0" transform="translate(239, 89)"><g id="brow_hz1i1o1fjl6z-stroke" fill="none" stroke-linecap="round" stroke-linejoin="round" stroke-miterlimit="4" stroke="#1AC6FF" stroke-width="2"><g><path d="M 10.625 20L 39.375 20M 14.6875 16.875C 14.514911 16.875 14.375 17.014912 14.375 17.1875C 14.375 17.360088 14.514911 17.5 14.6875 17.5C 14.860089 17.5 15 17.360088 15 17.1875C 15 17.014912 14.860089 16.875 14.6875 16.875L 14.6875 16.875M 18.65 16.875C 18.477411 16.875 18.3375 17.014912 18.3375 17.1875C 18.3375 17.360088 18.477411 17.5 18.65 17.5C 18.82259 17.5 18.9625 17.360088 18.9625 17.1875C 18.9625 17.014912 18.82259 16.875 18.65 16.875L 18.65 16.875M 22.625 16.875C 22.45241 16.875 22.3125 17.014912 22.3125 17.1875C 22.3125 17.360088 22.45241 17.5 22.625 17.5C 22.797588 17.5 22.9375 17.360088 22.9375 17.1875C 22.9375 17.014912 22.797588 16.875 22.625 16.875L 22.625 16.875M 13.125 13.75L 36.875 13.75C 36.875 13.75 39.375 13.75 39.375 16.25L 39.375 33.75C 39.375 33.75 39.375 36.25 36.875 36.25L 13.125 36.25C 13.125 36.25 10.625 36.25 10.625 33.75L 10.625 16.25C 10.625 16.25 10.625 13.75 13.125 13.75M 30 23.125L 28.275 29.5875C 28.182547 29.83267 27.949495 29.996302 27.6875 30L 22.5875 30C 22.339149 29.997677 22.114756 29.851334 22.012499 29.625L 20.674999 25.875C 20.590513 25.681423 20.609512 25.458271 20.725504 25.281759C 20.841497 25.105249 21.038792 24.999264 21.25 25L 29.5 25M 22.8125 31.875C 22.985088 31.875 23.125 32.014912 23.125 32.1875C 23.125 32.360088 22.985088 32.5 22.8125 32.5C 22.639912 32.5 22.5 32.360088 22.5 32.1875C 22.5 32.014912 22.639912 31.875 22.8125 31.875M 27.1875 31.875C 27.360088 31.875 27.5 32.014912 27.5 32.1875C 27.5 32.360088 27.360088 32.5 27.1875 32.5C 27.014912 32.5 26.875 32.360088 26.875 32.1875C 26.875 32.014912 27.014912 31.875 27.1875 31.875"></path></g></g></g><g id="g-root-tx_convenie_quoiak1fjkea-stroke" data-item-order="1000000000" data-item-id="tx_convenie_quoiak1fjkea" data-item-class="Label Stroke" data-item-index="none" data-renderer-id="0" transform="translate(275, 92)"></g><g id="g-root-tx_decision_1iqos1fi7t4-stroke" data-item-order="1000000000" data-item-id="tx_decision_1iqos1fi7t4" data-item-class="Label Stroke" data-item-index="none" data-renderer-id="0" transform="translate(51, 105)"></g><g id="g-root-tx_exceptio_v8042k1fqlts-stroke" data-item-order="1000000000" data-item-id="tx_exceptio_v8042k1fqlts" data-item-class="Label Stroke" data-item-index="none" data-renderer-id="0" transform="translate(759, 209)"></g><g id="g-root-tx_widesele_1hgckv01fmf46-stroke" data-item-order="1000000000" data-item-id="tx_widesele_1hgckv01fmf46" data-item-class="Label Stroke" data-item-index="none" data-renderer-id="0" transform="translate(275, 237)"></g><g id="g-root-incr_dcz9241fjkea-stroke" data-item-order="1000000000" data-item-id="incr_dcz9241fjkea" data-item-class="Icon Stroke" data-item-index="none" data-renderer-id="0" transform="translate(239, 15)"><g id="incr_dcz9241fjkea-stroke" fill="none" stroke-linecap="round" stroke-linejoin="round" stroke-miterlimit="4" stroke="#1AC6FF" stroke-width="2"><g><path d="M 16.258751 30.636251C 6.55875 25.467499 10.1875 10.625 21.25 10.625C 25.21664 10.63364 28.848982 12.848588 30.672981 16.370995C 32.496983 19.8934 32.209618 24.138081 29.9275 27.3825M 20.62125 25.5L 20.62125 26.91625M 20.62125 15.58375L 20.62125 17.002501M 18.5 23.375C 18.5 24.548605 19.451395 25.5 20.625002 25.5C 21.798607 25.5 22.75 24.548605 22.75 23.375C 22.75 22.201397 21.798607 21.250002 20.625002 21.250002C 19.451395 21.250002 18.5 20.298607 18.5 19.125C 18.5 17.951395 19.451395 17 20.625002 17C 21.798607 17 22.75 17.951395 22.75 19.125M 12.5 39.375L 22.96125 30.074999C 23.416578 29.670591 24.097076 29.65317 24.5725 30.033751L 29.15625 33.699997C 29.640858 34.08757 30.33642 34.060959 30.790001 33.637501L 39.375 25.625M 34.37125 25.625L 39.37125 25.625L 39.37125 30.625"></path></g></g></g><g id="g-root-tx_choosebi_1ur6m581fnu33-stroke" data-item-order="1000000000" data-item-id="tx_choosebi_1ur6m581fnu33" data-item-class="Label Stroke" data-item-index="none" data-renderer-id="0" transform="translate(523, 105)"></g><g id="g-root-3_mcd3to1fqmmh-stroke" data-item-order="1000000000" data-item-id="3_mcd3to1fqmmh" data-item-class="Icon Stroke" data-item-index="none" data-renderer-id="0" transform="translate(723, 230)"><g id="3_mcd3to1fqmmh-stroke" fill="none" stroke-linecap="round" stroke-linejoin="round" stroke-miterlimit="4" stroke="#1AC6FF" stroke-width="2"><g><path d="M 15.528571 22.857143L 15.528571 20.178572C 15.634048 15.050377 19.871613 10.975795 25 11.071428L 25 11.071428C 30.128387 10.975795 34.365952 15.050377 34.471428 20.178572L 34.471428 22.857143M 13.214286 22.857143L 16.428572 22.857143C 17.020306 22.857143 17.5 23.336838 17.5 23.928572L 17.5 29.821428C 17.5 30.41316 17.020306 30.892857 16.428572 30.892857L 13.214286 30.892857C 12.030818 30.892857 11.071428 29.933468 11.071428 28.75L 11.071428 25C 11.071428 23.816532 12.030818 22.857143 13.214286 22.857143ZM 36.785713 30.892857L 33.571426 30.892857C 32.979694 30.892857 32.5 30.41316 32.5 29.821428L 32.5 23.928572C 32.5 23.336838 32.979694 22.857143 33.571426 22.857143L 36.785713 22.857143C 37.969181 22.857143 38.92857 23.816532 38.92857 25L 38.92857 28.75C 38.92857 29.933466 37.969181 30.892857 36.785713 30.892857ZM 34.471428 30.892857L 34.471428 31.964285L 34.471428 31.964285C 34.472363 33.13126 33.997375 34.248158 33.156181 35.056999C 32.314983 35.865841 31.180328 36.29668 30.014286 36.25L 29.285713 36.25M 29.285713 36.25C 29.285713 37.729336 28.086477 38.92857 26.607141 38.92857L 23.392857 38.92857C 21.913523 38.92857 20.714285 37.729336 20.714285 36.25C 20.714285 34.770668 21.913523 33.571426 23.392857 33.571426L 26.607141 33.571426C 28.086477 33.571426 29.285713 34.770668 29.285713 36.25Z"></path></g></g></g><g id="g-root-1_1iqos1fi7t5-stroke" data-item-order="1000000000" data-item-id="1_1iqos1fi7t5" data-item-class="Icon Stroke" data-item-index="none" data-renderer-id="0" transform="translate(15, 126)"><g id="1_1iqos1fi7t5-stroke" fill="none" stroke-linecap="round" stroke-linejoin="round" stroke-miterlimit="4" stroke="#A3A3A3" stroke-width="2"><g><path d="M 16.875 31.875L 16.875 33.75C 16.875 34.095177 16.595179 34.375 16.25 34.375L 13.75 34.375C 13.404822 34.375 13.125 34.095177 13.125 33.75L 13.125 31.875M 36.875 31.875L 36.875 33.75C 36.875 34.095177 36.595177 34.375 36.25 34.375L 33.75 34.375C 33.404823 34.375 33.125 34.095177 33.125 33.75L 33.125 31.875M 37.5 31.875C 37.845177 31.875 38.125 31.595177 38.125 31.25L 38.125 27.133749C 38.124966 26.968309 38.059338 26.809631 37.942501 26.692501L 34.375 23.125L 15.625 23.125L 12.0575 26.692501C 11.940663 26.809631 11.875035 26.968309 11.875 27.133749L 11.875 31.25C 11.875 31.595177 12.154822 31.875 12.5 31.875ZM 34.375 23.125L 32.017502 16.0525C 31.932528 15.797379 31.693899 15.625204 31.424999 15.625L 18.575001 15.625C 18.306101 15.625204 18.067472 15.797379 17.9825 16.0525L 15.625 23.125M 15.625 23.125L 12.5 23.125C 12.154822 23.125 11.875 22.845177 11.875 22.5L 11.875 21.25C 11.875 20.904823 12.154822 20.625 12.5 20.625L 16.45875 20.625M 33.541252 20.625L 37.5 20.625C 37.845177 20.625 38.125 20.904823 38.125 21.25L 38.125 22.5C 38.125 22.845177 37.845177 23.125 37.5 23.125L 34.375 23.125M 11.9325 26.875L 16.25 26.875C 16.595179 26.875 16.875 27.154823 16.875 27.5L 16.875 28.75C 16.875 29.095177 16.595179 29.375 16.25 29.375L 11.875 29.375M 38.125 29.375L 33.75 29.375C 33.404823 29.375 33.125 29.095177 33.125 28.75L 33.125 27.5C 33.125 27.154823 33.404823 26.875 33.75 26.875L 38.067501 26.875"></path></g></g></g><g id="g-root-shop_1qbd40s1fnuvc-stroke" data-item-order="1000000000" data-item-id="shop_1qbd40s1fnuvc" data-item-class="Icon Stroke" data-item-index="none" data-renderer-id="0" transform="translate(487, 126)"><g id="shop_1qbd40s1fnuvc-stroke" fill="none" stroke-linecap="round" stroke-linejoin="round" stroke-miterlimit="4" stroke="#1AC6FF" stroke-width="2"><g><path d="M 10.625 25C 10.625 32.939095 17.060907 39.375 25 39.375C 32.939095 39.375 39.375 32.939095 39.375 25C 39.375 17.060907 32.939095 10.625 25 10.625C 17.060907 10.625 10.625 17.060907 10.625 25M 15 25C 15 30.522846 19.477152 35 25 35C 30.522846 35 35 30.522846 35 25C 35 19.477152 30.522846 15 25 15C 19.477152 15 15 19.477152 15 25M 20.5375 26.0625C 24.4375 25.5625 28.975 23.5625 28.6875 21.1875C 28.424999 19.075001 25.674999 19.125 24.025 20C 20.599998 21.8375 18.9125 28.75 22.5 30.35C 25.325001 31.6 27.737499 28.099998 27.737499 28.099998"></path></g></g></g><g id="g-root-star_1hjgyak1fp7v2-stroke" data-item-order="1000000000" data-item-id="star_1hjgyak1fp7v2" data-item-class="Icon Stroke" data-item-index="none" data-renderer-id="0" transform="translate(723, 126)"><g id="star_1hjgyak1fp7v2-stroke" fill="none" stroke-linecap="round" stroke-linejoin="round" stroke-miterlimit="4" stroke="#1AC6FF" stroke-width="2"><g><path d="M 32.7575 24.9125L 34.681252 29.375L 38.424999 29.375C 38.812244 29.360359 39.167038 29.590267 39.311878 29.949705C 39.456718 30.309141 39.360455 30.720808 39.071251 30.978752L 35.821251 33.873753L 37.62125 38.014999C 37.783226 38.403385 37.679527 38.85181 37.363491 39.129654C 37.047451 39.407497 36.589436 39.452896 36.225002 39.2425L 31.875 36.791252L 27.525002 39.2425C 27.160566 39.452896 26.702553 39.407497 26.386513 39.129654C 26.070473 38.85181 25.966774 38.403385 26.128752 38.014999L 27.928751 33.873753L 24.678749 30.978752C 24.388639 30.721844 24.291212 30.310371 24.435326 29.950653C 24.579435 29.590935 24.934008 29.360542 25.321251 29.375L 29.071251 29.375L 30.997501 24.9125C 31.172066 24.589077 31.509974 24.387474 31.877501 24.387474C 32.245026 24.387474 32.582935 24.589077 32.7575 24.9125ZM 20.625 29.375L 11.875 29.375C 11.184644 29.375 10.625 28.815357 10.625 28.125L 10.625 16.1425C 10.625071 15.811007 10.756813 15.493115 10.99125 15.25875L 15.25875 10.99125C 15.493115 10.756813 15.811007 10.625071 16.1425 10.625L 22.6075 10.625C 22.938993 10.625071 23.256884 10.756813 23.491251 10.99125L 27.758749 15.25875C 27.993187 15.493115 28.124929 15.811007 28.125 16.1425L 28.125 23.125M 28.012501 15.625L 10.7375 15.625M 19.375 10.625L 19.375 15.625"></path></g></g></g><g id="g-root-tx_fastship_1qf3yjg1fp72d-stroke" data-item-order="1000000000" data-item-id="tx_fastship_1qf3yjg1fp72d" data-item-class="Label Stroke" data-item-index="none" data-renderer-id="0" transform="translate(759, 117)"></g><g id="g-root-tx_sustaina_zntm701fl157-stroke" data-item-order="1000000000" data-item-id="tx_sustaina_zntm701fl157" data-item-class="Label Stroke" data-item-index="none" data-renderer-id="0" transform="translate(275, 166)"></g><g id="g-root-refr_mczkws1fkzkc-stroke" data-item-order="1000000000" data-item-id="refr_mczkws1fkzkc" data-item-class="Icon Stroke" data-item-index="none" data-renderer-id="0" transform="translate(239, 163)"><g id="refr_mczkws1fkzkc-stroke" fill="none" stroke-linecap="round" stroke-linejoin="round" stroke-miterlimit="4" stroke="#1AC6FF" stroke-width="2"><g><path d="M 20.555 26.07C 20.046249 28.20125 20.72875 30.055 24.305 29.221251C 27.11875 31.584999 28.51375 30.463751 29.077499 28.110001C 29.588749 25.971251 28.237499 21.921249 26.182501 19.9175C 26.043282 19.781502 25.848656 19.718121 25.65605 19.746056C 25.463446 19.773991 25.294846 19.890055 25.200001 20.060001C 23.7775 22.606251 21.143749 23.615 20.555 26.07ZM 24.375 31.875C 24.16 29.1175 24.19875 25.571249 25.463751 23.5625M 33.096249 18.125C 30.212252 14.731414 25.517889 13.496538 21.337343 15.031759C 17.156796 16.56698 14.377307 20.546476 14.375 25L 14.375 28.125M 18.125 23.125L 14.375 28.125L 10.625 23.125M 16.903749 31.881248C 19.78849 35.275707 24.484421 36.510254 28.665588 34.973412C 32.84676 33.436565 35.625313 29.454668 35.625 25L 35.625 21.875M 31.875 26.875L 35.625 21.875L 39.375 26.875"></path></g></g></g><g id="g-root-cu_18kpkm41fqmf9-stroke" data-item-order="1000000002" data-item-id="cu_18kpkm41fqmf9" data-item-class="Curve Stroke" data-item-index="none" data-renderer-id="0" transform="translate(419, 141)"><g id="cu_18kpkm41fqmf9-stroke" fill="none" stroke-linecap="round" stroke-linejoin="round" stroke-miterlimit="4" stroke="#A3A3A3" stroke-width="2"><g><path d="M 10 47L 24 47L 38 47L 38 28.5L 38 10L 52 10L 64 10"></path><path d="M 58 16.5L 64.5 10L 58 3.5" stroke-dasharray="none"></path></g></g></g><g id="g-root-cu_144w2ho1fqmfi-stroke" data-item-order="1000000002" data-item-id="cu_144w2ho1fqmfi" data-item-class="Curve Stroke" data-item-index="none" data-renderer-id="0" transform="translate(655, 141)"><g id="cu_144w2ho1fqmfi-stroke" fill="none" stroke-linecap="round" stroke-linejoin="round" stroke-miterlimit="4" stroke="#A3A3A3" stroke-width="2"><g><path d="M 10 10L 38 10L 64 10"></path><path d="M 58 16.5L 64.5 10L 58 3.5" stroke-dasharray="none"></path></g></g></g><g id="g-root-cu_18kpkm41fqmf6-stroke" data-item-order="1000000002" data-item-id="cu_18kpkm41fqmf6" data-item-class="Curve Stroke" data-item-index="none" data-renderer-id="0" transform="translate(419, 141)"><g id="cu_18kpkm41fqmf6-stroke" fill="none" stroke-linecap="round" stroke-linejoin="round" stroke-miterlimit="4" stroke="#A3A3A3" stroke-width="2"><g><path d="M 10 130L 24 130L 38 130L 38 70L 38 10L 52 10L 64 10"></path><path d="M 58 16.5L 64.5 10L 58 3.5" stroke-dasharray="none"></path></g></g></g><g id="g-root-cu_144w2ho1fqn7q-stroke" data-item-order="1000000002" data-item-id="cu_144w2ho1fqn7q" data-item-class="Curve Stroke" data-item-index="none" data-renderer-id="0" transform="translate(171, 141)"><g id="cu_144w2ho1fqn7q-stroke" fill="none" stroke-linecap="round" stroke-linejoin="round" stroke-miterlimit="4" stroke="#A3A3A3" stroke-width="2"><g><path d="M 10 10L 24 10L 38 10L 38 28.5L 38 47L 52 47L 64 47"></path><path d="M 58 53.5L 64.5 47L 58 40.5" stroke-dasharray="none"></path></g></g></g><g id="g-root-cu_144w2ho1fqn7n-stroke" data-item-order="1000000002" data-item-id="cu_144w2ho1fqn7n" data-item-class="Curve Stroke" data-item-index="none" data-renderer-id="0" transform="translate(171, 141)"><g id="cu_144w2ho1fqn7n-stroke" fill="none" stroke-linecap="round" stroke-linejoin="round" stroke-miterlimit="4" stroke="#A3A3A3" stroke-width="2"><g><path d="M 10 10L 24 10L 38 10L 38 70L 38 130L 52 130L 64 130"></path><path d="M 58 136.5L 64.5 130L 58 123.5" stroke-dasharray="none"></path></g></g></g><g id="g-root-cu_zp2kd81fqn7z-stroke" data-item-order="1000000002" data-item-id="cu_zp2kd81fqn7z" data-item-class="Curve Stroke" data-item-index="none" data-renderer-id="0" transform="translate(419, 104)"><g id="cu_zp2kd81fqn7z-stroke" fill="none" stroke-linecap="round" stroke-linejoin="round" stroke-miterlimit="4" stroke="#A3A3A3" stroke-width="2"><g><path d="M 10 10L 24 10L 38 10L 38 28.5L 38 47L 52 47L 64 47"></path><path d="M 58 53.5L 64.5 47L 58 40.5" stroke-dasharray="none"></path></g></g></g><g id="g-root-cu_zp2kd81fqo00-stroke" data-item-order="1000000002" data-item-id="cu_zp2kd81fqo00" data-item-class="Curve Stroke" data-item-index="none" data-renderer-id="0" transform="translate(171, 104)"><g id="cu_zp2kd81fqo00-stroke" fill="none" stroke-linecap="round" stroke-linejoin="round" stroke-miterlimit="4" stroke="#A3A3A3" stroke-width="2"><g><path d="M 10 47L 24 47L 38 47L 38 28.5L 38 10L 52 10L 64 10"></path><path d="M 58 16.5L 64.5 10L 58 3.5" stroke-dasharray="none"></path></g></g></g><g id="g-root-cu_18kpkm41fqmf4-stroke" data-item-order="1000000002" data-item-id="cu_18kpkm41fqmf4" data-item-class="Curve Stroke" data-item-index="none" data-renderer-id="0" transform="translate(655, 49)"><g id="cu_18kpkm41fqmf4-stroke" fill="none" stroke-linecap="round" stroke-linejoin="round" stroke-miterlimit="4" stroke="#A3A3A3" stroke-width="2"><g><path d="M 10 102L 24 102L 38 102L 38 56L 38 10L 52 10L 64 10"></path><path d="M 58 16.5L 64.5 10L 58 3.5" stroke-dasharray="none"></path></g></g></g><g id="g-root-cu_144w2ho1fqn7l-stroke" data-item-order="1000000002" data-item-id="cu_144w2ho1fqn7l" data-item-class="Curve Stroke" data-item-index="none" data-renderer-id="0" transform="translate(419, 30)"><g id="cu_144w2ho1fqn7l-stroke" fill="none" stroke-linecap="round" stroke-linejoin="round" stroke-miterlimit="4" stroke="#A3A3A3" stroke-width="2"><g><path d="M 10 10L 24 10L 38 10L 38 65.5L 38 121L 52 121L 64 121"></path><path d="M 58 127.5L 64.5 121L 58 114.5" stroke-dasharray="none"></path></g></g></g><g id="g-root-cu_zp2kd81fqo02-stroke" data-item-order="1000000002" data-item-id="cu_zp2kd81fqo02" data-item-class="Curve Stroke" data-item-index="none" data-renderer-id="0" transform="translate(171, 30)"><g id="cu_zp2kd81fqo02-stroke" fill="none" stroke-linecap="round" stroke-linejoin="round" stroke-miterlimit="4" stroke="#A3A3A3" stroke-width="2"><g><path d="M 10 121L 24 121L 38 121L 38 65.5L 38 10L 52 10L 64 10"></path><path d="M 58 16.5L 64.5 10L 58 3.5" stroke-dasharray="none"></path></g></g></g><g id="g-root-cu_1d0j2qk1fqlmr-stroke" data-item-order="1000000002" data-item-id="cu_1d0j2qk1fqlmr" data-item-class="Curve Stroke" data-item-index="none" data-renderer-id="0" transform="translate(655, 141)"><g id="cu_1d0j2qk1fqlmr-stroke" fill="none" stroke-linecap="round" stroke-linejoin="round" stroke-miterlimit="4" stroke="#A3A3A3" stroke-width="2"><g><path d="M 10 10L 24 10L 38 10L 38 62L 38 114L 52 114L 64 114"></path><path d="M 58 120.5L 64.5 114L 58 107.5" stroke-dasharray="none"></path></g></g></g></g></g></svg>