<?xml version="1.0" encoding="utf-8" standalone="yes"?>
<!DOCTYPE svg PUBLIC "-//W3C//DTD SVG 1.1//EN" "http://www.w3.org/Graphics/SVG/1.1/DTD/svg11.dtd">
<svg width="756" height="331" viewBox="0 0 756 331" style="fill:none;stroke:none;fill-rule:evenodd;clip-rule:evenodd;stroke-linecap:round;stroke-linejoin:round;stroke-miterlimit:1.5;" version="1.1" xmlns="http://www.w3.org/2000/svg" xmlns:xlink="http://www.w3.org/1999/xlink"><style id="fontImports">@import url("https://fonts.googleapis.com/css2?family=Roboto:wght@400;700&amp;display=block");</style><g id="items" style="isolation: isolate"><g id="blend" style="mix-blend-mode:normal"><g id="g-root-3.line_sy_zlxeho3nc64m-fill" data-item-order="999961157" data-item-id="3.line_sy_zlxeho3nc64m" data-item-class="Curve Stroke Part Indexed" data-item-index="3" data-renderer-id="0" transform="translate(290, 129)"></g><g id="g-root-1.line_sy_qqwvbw3nc3rj-fill" data-item-order="999961163" data-item-id="1.line_sy_qqwvbw3nc3rj" data-item-class="Curve Stroke Part Indexed Indexed_1" data-item-index="1" data-renderer-id="0" transform="translate(289.9999084472656, 21)"></g><g id="g-root-2.line_sy_v6qdgc3nc3r4-fill" data-item-order="999961169" data-item-id="2.line_sy_v6qdgc3nc3r4" data-item-class="Curve Stroke Part Indexed" data-item-index="2" data-renderer-id="0" transform="translate(289.9997863769531, 129)"></g><g id="g-root-0.line_sy_mb3d7g3nc4jt-fill" data-item-order="999961173" data-item-id="0.line_sy_mb3d7g3nc4jt" data-item-class="Curve Stroke Part Indexed_0" data-item-index="0" data-renderer-id="0" transform="translate(218, 129)"></g><g id="g-root-mega_8zmxzw3n3och-fill" data-item-order="1000000000" data-item-id="mega_8zmxzw3n3och" data-item-class="Icon Stroke Indexed Indexed_1" data-item-index="1" data-renderer-id="0" transform="translate(410, 3)"></g><g id="g-root-tx_checkbra_1qa3dek3nc553-fill" data-item-order="1000000000" data-item-id="tx_checkbra_1qa3dek3nc553" data-item-class="Label Stroke Indexed Indexed_1" data-item-index="1" data-renderer-id="0" transform="translate(458, 9)"><g id="tx_checkbra_1qa3dek3nc553-fill" stroke="none" fill="#4F92FF"><g><text style="font: bold 20px Roboto, sans-serif; white-space: pre;" font-weight="bold" font-size="20px" font-family="Roboto, sans-serif"><tspan x="12" y="34" dominant-baseline="ideographic">Check Branding</tspan></text></g></g></g><g id="g-root-1_qteroc3nm03z-fill" data-item-order="1000000000" data-item-id="1_qteroc3nm03z" data-item-class="Icon Stroke Title" data-item-index="none" data-renderer-id="0" transform="translate(74, 57)"></g><g id="g-root-tx_lookform_1upwvj03nc4cu-fill" data-item-order="1000000000" data-item-id="tx_lookform_1upwvj03nc4cu" data-item-class="Label Stroke Indexed Indexed_1" data-item-index="1" data-renderer-id="0" transform="translate(458, 45)"><g id="tx_lookform_1upwvj03nc4cu-fill" stroke="none" fill="#A3A3A3"><g><text style="font: 20px Roboto, sans-serif; white-space: pre;" font-size="20px" font-family="Roboto, sans-serif"><tspan x="12" y="34" dominant-baseline="ideographic">Look for manufacturer's logo </tspan><tspan x="12" y="58" dominant-baseline="ideographic">and part numbers to confirm </tspan><tspan x="12" y="82" dominant-baseline="ideographic">authenticity.</tspan></text></g></g></g><g id="g-root-lock_1upwvj03nj4sh-fill" data-item-order="1000000000" data-item-id="lock_1upwvj03nj4sh" data-item-class="Icon Stroke Indexed" data-item-index="2" data-renderer-id="0" transform="translate(410, 111)"></g><g id="g-root-tx_howtoens_1lu9va43nc5xc-fill" data-item-order="1000000000" data-item-id="tx_howtoens_1lu9va43nc5xc" data-item-class="Label Stroke Title ColorFillGray ColorStrokeGray" data-item-index="none" data-renderer-id="0" transform="translate(2, 129)"><g id="tx_howtoens_1lu9va43nc5xc-fill" stroke="none" fill="#A3A3A3"><g><text style="font: bold 20px Roboto, sans-serif; white-space: pre;" font-weight="bold" font-size="20px" font-family="Roboto, sans-serif"><tspan x="30.48" y="34" dominant-baseline="ideographic">How to ensure the </tspan><tspan x="20.31" y="58" dominant-baseline="ideographic">purchase of genuine </tspan><tspan x="13.23" y="82" dominant-baseline="ideographic">OEM used auto parts?</tspan></text></g></g></g><g id="g-root-tx_choosetr_4kftss3nc3r9-fill" data-item-order="1000000000" data-item-id="tx_choosetr_4kftss3nc3r9" data-item-class="Label Stroke Indexed" data-item-index="2" data-renderer-id="0" transform="translate(458, 117)"><g id="tx_choosetr_4kftss3nc3r9-fill" stroke="none" fill="#44E095"><g><text style="font: bold 20px Roboto, sans-serif; white-space: pre;" font-weight="bold" font-size="20px" font-family="Roboto, sans-serif"><tspan x="12" y="34" dominant-baseline="ideographic">Choose Trusted Seller</tspan></text></g></g></g><g id="g-root-tx_selectre_8zmuu43nc64s-fill" data-item-order="1000000000" data-item-id="tx_selectre_8zmuu43nc64s" data-item-class="Label Stroke Indexed" data-item-index="2" data-renderer-id="0" transform="translate(458, 153)"><g id="tx_selectre_8zmuu43nc64s-fill" stroke="none" fill="#A3A3A3"><g><text style="font: 20px Roboto, sans-serif; white-space: pre;" font-size="20px" font-family="Roboto, sans-serif"><tspan x="12" y="34" dominant-baseline="ideographic">Select reputable sellers like </tspan><tspan x="12" y="58" dominant-baseline="ideographic">BionicsAutoParts.com for </tspan><tspan x="12" y="82" dominant-baseline="ideographic">guaranteed authenticity.</tspan></text></g></g></g><g id="g-root-prot_qqae8s3nge8e-fill" data-item-order="1000000000" data-item-id="prot_qqae8s3nge8e" data-item-class="Icon Stroke Indexed" data-item-index="3" data-renderer-id="0" transform="translate(410, 219)"></g><g id="g-root-tx_askabout_hv9v303nc5c3-fill" data-item-order="1000000000" data-item-id="tx_askabout_hv9v303nc5c3" data-item-class="Label Stroke Indexed" data-item-index="3" data-renderer-id="0" transform="translate(458, 225)"><g id="tx_askabout_hv9v303nc5c3-fill" stroke="none" fill="#A8DD38"><g><text style="font: bold 20px Roboto, sans-serif; white-space: pre;" font-weight="bold" font-size="20px" font-family="Roboto, sans-serif"><tspan x="12" y="34" dominant-baseline="ideographic">Ask About Warranty</tspan></text></g></g></g><g id="g-root-tx_ensureth_mb3d7g3nc4ju-fill" data-item-order="1000000000" data-item-id="tx_ensureth_mb3d7g3nc4ju" data-item-class="Label Stroke Indexed" data-item-index="3" data-renderer-id="0" transform="translate(458, 261)"><g id="tx_ensureth_mb3d7g3nc4ju-fill" stroke="none" fill="#A3A3A3"><g><text style="font: 20px Roboto, sans-serif; white-space: pre;" font-size="20px" font-family="Roboto, sans-serif"><tspan x="12" y="34" dominant-baseline="ideographic">Ensure the seller offers a </tspan><tspan x="12" y="58" dominant-baseline="ideographic">warranty for peace of mind.</tspan></text></g></g></g><g id="g-root-3.line_sy_zlxeho3nc64m-stroke" data-item-order="999961157" data-item-id="3.line_sy_zlxeho3nc64m" data-item-class="Curve Stroke Part Indexed" data-item-index="3" data-renderer-id="0" transform="translate(290, 129)"><g id="3.line_sy_zlxeho3nc64m-stroke" fill="none" stroke-linecap="round" stroke-linejoin="round" stroke-miterlimit="4" stroke="#A8DD38" stroke-width="2"><g><path d="M 116 118L 57.95 118C 44.7 118 33.95 107.25 33.95 94L 33.95 33.95C 33.95 20.72 23.23 10 10 10"></path><path d="M 110 124.5L 116.5 118L 110 111.5" stroke-dasharray="none"></path></g></g></g><g id="g-root-1.line_sy_qqwvbw3nc3rj-stroke" data-item-order="999961163" data-item-id="1.line_sy_qqwvbw3nc3rj" data-item-class="Curve Stroke Part Indexed Indexed_1" data-item-index="1" data-renderer-id="0" transform="translate(289.9999084472656, 21)"><g id="1.line_sy_qqwvbw3nc3rj-stroke" fill="none" stroke-linecap="round" stroke-linejoin="round" stroke-miterlimit="4" stroke="#4F92FF" stroke-width="2"><g><path d="M 116.000092 10L 58.950092 10C 45.700092 10 34.950092 20.75 34.950092 34L 34.950092 94.05C 34.950092 107.28 24.230092 118 11.000092 118L 10.000092 118"></path><path d="M 110.000092 16.5L 116.500092 10L 110.000092 3.5" stroke-dasharray="none"></path></g></g></g><g id="g-root-2.line_sy_v6qdgc3nc3r4-stroke" data-item-order="999961169" data-item-id="2.line_sy_v6qdgc3nc3r4" data-item-class="Curve Stroke Part Indexed" data-item-index="2" data-renderer-id="0" transform="translate(289.9997863769531, 129)"><g id="2.line_sy_v6qdgc3nc3r4-stroke" fill="none" stroke-linecap="round" stroke-linejoin="round" stroke-miterlimit="4" stroke="#44E095" stroke-width="2"><g><path d="M 116.000214 10L 58.950214 10C 22.400214 10 10.000214 10 10.000214 10"></path><path d="M 110.000214 16.5L 116.500214 10L 110.000214 3.5" stroke-dasharray="none"></path></g></g></g><g id="g-root-0.line_sy_mb3d7g3nc4jt-stroke" data-item-order="999961173" data-item-id="0.line_sy_mb3d7g3nc4jt" data-item-class="Curve Stroke Part Indexed_0" data-item-index="0" data-renderer-id="0" transform="translate(218, 129)"><g id="0.line_sy_mb3d7g3nc4jt-stroke" fill="none" stroke-linecap="round" stroke-linejoin="round" stroke-miterlimit="4" stroke="#A3A3A3" stroke-width="2"><g><path d="M 82 10L 10 10"></path></g></g></g><g id="g-root-mega_8zmxzw3n3och-stroke" data-item-order="1000000000" data-item-id="mega_8zmxzw3n3och" data-item-class="Icon Stroke Indexed Indexed_1" data-item-index="1" data-renderer-id="0" transform="translate(410, 3)"><g id="mega_8zmxzw3n3och-stroke" fill="none" stroke-linecap="round" stroke-linejoin="round" stroke-miterlimit="4" stroke="#A3A3A3" stroke-width="2"><g><path d="M 10.891 39.298L 13.4095 43.093002M 24.818501 22.397501L 34.389999 36.817001M 33.887501 36.057999L 12.9055 42.334L 11.395 40.056999L 25.320999 23.1565L 33.887501 36.057999ZM 23.823999 39.067001C 24.604082 39.961964 24.822134 41.216305 24.389851 42.322021C 23.957563 43.427742 22.946583 44.201588 21.766346 44.330154C 20.586111 44.458725 19.432222 43.920708 18.771999 42.933998L 17.456501 40.952499M 15.382 28.690001L 14.3755 27.623499C 14.103102 27.334581 14.103102 26.883417 14.3755 26.5945L 17.0755 23.744499L 16.175501 19.925501C 16.084269 19.538696 16.3106 19.147881 16.6915 19.0345L 20.453499 17.914L 21.573999 14.151999C 21.685225 13.776325 22.066872 13.54956 22.450001 13.6315L 26.2675 14.539L 29.1175 11.839C 29.406418 11.566602 29.857582 11.566602 30.1465 11.839L 32.996502 14.539L 36.815502 13.639C 37.202301 13.547769 37.593117 13.7741 37.706501 14.155L 38.827 17.917L 42.589001 19.0375C 42.974209 19.150978 43.201683 19.547737 43.105 19.9375L 42.211002 23.74L 44.910999 26.59C 45.183399 26.878918 45.183399 27.330082 44.910999 27.618999L 42.211002 30.469L 43.1185 34.286499C 43.210632 34.673798 42.984112 35.065598 42.602501 35.179001L 38.8405 36.2995L 37.720001 40.061501C 37.605972 40.442509 37.214355 40.668262 36.827499 40.576L 33.010002 39.676003L 30.16 42.375999C 29.871082 42.648399 29.419918 42.648399 29.131001 42.375999L 28.5895 41.864502"></path></g></g></g><g id="g-root-tx_checkbra_1qa3dek3nc553-stroke" data-item-order="1000000000" data-item-id="tx_checkbra_1qa3dek3nc553" data-item-class="Label Stroke Indexed Indexed_1" data-item-index="1" data-renderer-id="0" transform="translate(458, 9)"></g><g id="g-root-1_qteroc3nm03z-stroke" data-item-order="1000000000" data-item-id="1_qteroc3nm03z" data-item-class="Icon Stroke Title" data-item-index="none" data-renderer-id="0" transform="translate(74, 57)"><g id="1_qteroc3nm03z-stroke" fill="none" stroke-linecap="round" stroke-linejoin="round" stroke-miterlimit="4" stroke="#A3A3A3" stroke-width="2"><g><path d="M 23.75 53.75L 23.75 57.5C 23.75 58.190353 23.190357 58.75 22.5 58.75L 17.5 58.75C 16.809645 58.75 16.25 58.190353 16.25 57.5L 16.25 53.75M 63.75 53.75L 63.75 57.5C 63.75 58.190353 63.190353 58.75 62.5 58.75L 57.5 58.75C 56.809647 58.75 56.25 58.190353 56.25 57.5L 56.25 53.75M 65 53.75C 65.690353 53.75 66.25 53.190353 66.25 52.5L 66.25 44.267498C 66.249931 43.936619 66.118675 43.619263 65.885002 43.385002L 58.75 36.25L 21.25 36.25L 14.115 43.385002C 13.881328 43.619263 13.750071 43.936619 13.75 44.267498L 13.75 52.5C 13.75 53.190353 14.309644 53.75 15 53.75ZM 58.75 36.25L 54.035 22.105C 53.865055 21.594757 53.387798 21.250408 52.849998 21.25L 27.15 21.25C 26.612202 21.250408 26.134945 21.594757 25.965 22.105L 21.25 36.25M 21.25 36.25L 15 36.25C 14.309644 36.25 13.75 35.690353 13.75 35L 13.75 32.5C 13.75 31.809645 14.309644 31.25 15 31.25L 22.9175 31.25M 57.0825 31.25L 65 31.25C 65.690353 31.25 66.25 31.809645 66.25 32.5L 66.25 35C 66.25 35.690353 65.690353 36.25 65 36.25L 58.75 36.25M 13.865 43.75L 22.5 43.75C 23.190357 43.75 23.75 44.309647 23.75 45L 23.75 47.5C 23.75 48.190353 23.190357 48.75 22.5 48.75L 13.75 48.75M 66.25 48.75L 57.5 48.75C 56.809647 48.75 56.25 48.190353 56.25 47.5L 56.25 45C 56.25 44.309647 56.809647 43.75 57.5 43.75L 66.135002 43.75"></path></g></g></g><g id="g-root-tx_lookform_1upwvj03nc4cu-stroke" data-item-order="1000000000" data-item-id="tx_lookform_1upwvj03nc4cu" data-item-class="Label Stroke Indexed Indexed_1" data-item-index="1" data-renderer-id="0" transform="translate(458, 45)"></g><g id="g-root-lock_1upwvj03nj4sh-stroke" data-item-order="1000000000" data-item-id="lock_1upwvj03nj4sh" data-item-class="Icon Stroke Indexed" data-item-index="2" data-renderer-id="0" transform="translate(410, 111)"><g id="lock_1upwvj03nj4sh-stroke" fill="none" stroke-linecap="round" stroke-linejoin="round" stroke-miterlimit="4" stroke="#A3A3A3" stroke-width="2"><g><path d="M 10.75 45.25L 10.75 30.25M 10.75 33.25L 21.25 33.25C 23.735283 33.25 25.75 35.264717 25.75 37.75L 34.75 37.75C 37.235283 37.75 39.25 39.764717 39.25 42.25L 10.75 42.25ZM 25.75 37.75L 21.25 37.75M 31.75 18.25L 43.75 18.25C 43.75 18.25 45.25 18.25 45.25 19.75L 45.25 30.25C 45.25 30.25 45.25 31.75 43.75 31.75L 31.75 31.75C 31.75 31.75 30.25 31.75 30.25 30.25L 30.25 19.75C 30.25 19.75 30.25 18.25 31.75 18.25M 33.25 18.25L 33.25 15.25C 33.25 12.764719 35.264717 10.75 37.75 10.75C 40.235283 10.75 42.25 12.764719 42.25 15.25L 42.25 18.25M 35.5 25C 35.5 26.242641 36.507362 27.25 37.75 27.25C 38.992641 27.25 40 26.242641 40 25C 40 23.75736 38.992641 22.75 37.75 22.75C 36.507362 22.75 35.5 23.75736 35.5 25"></path></g></g></g><g id="g-root-tx_howtoens_1lu9va43nc5xc-stroke" data-item-order="1000000000" data-item-id="tx_howtoens_1lu9va43nc5xc" data-item-class="Label Stroke Title ColorFillGray ColorStrokeGray" data-item-index="none" data-renderer-id="0" transform="translate(2, 129)"></g><g id="g-root-tx_choosetr_4kftss3nc3r9-stroke" data-item-order="1000000000" data-item-id="tx_choosetr_4kftss3nc3r9" data-item-class="Label Stroke Indexed" data-item-index="2" data-renderer-id="0" transform="translate(458, 117)"></g><g id="g-root-tx_selectre_8zmuu43nc64s-stroke" data-item-order="1000000000" data-item-id="tx_selectre_8zmuu43nc64s" data-item-class="Label Stroke Indexed" data-item-index="2" data-renderer-id="0" transform="translate(458, 153)"></g><g id="g-root-prot_qqae8s3nge8e-stroke" data-item-order="1000000000" data-item-id="prot_qqae8s3nge8e" data-item-class="Icon Stroke Indexed" data-item-index="3" data-renderer-id="0" transform="translate(410, 219)"><g id="prot_qqae8s3nge8e-stroke" fill="none" stroke-linecap="round" stroke-linejoin="round" stroke-miterlimit="4" stroke="#A3A3A3" stroke-width="2"><g><path d="M 21.280001 23.6695C 21.279526 25.517227 22.777273 27.015356 24.625 27.015356C 26.472727 27.015356 27.970472 25.517227 27.969999 23.6695C 27.970472 21.821774 26.472727 20.323643 24.625 20.323643C 22.777273 20.323643 21.279526 21.821774 21.280001 23.6695M 19.1395 32.5C 19.139578 30.398129 20.340677 28.481106 22.232006 27.564184C 24.123333 26.647264 26.372305 26.891684 28.022499 28.193501M 25.75 36.625L 12.625 36.625C 11.796573 36.625 11.125 35.953426 11.125 35.125L 11.125 16.375L 38.125 16.375L 38.125 23.875M 12.625 11.125L 36.625 11.125C 37.453426 11.125 38.125 11.796573 38.125 12.625L 38.125 16.375L 38.125 16.375L 11.125 16.375L 11.125 16.375L 11.125 12.625C 11.125 11.796573 11.796573 11.125 12.625 11.125ZM 39.863503 43.855L 37.620998 44.875L 35.380001 43.855C 32.401798 42.597534 30.439558 39.708504 30.3685 36.476498L 30.3685 30.849998L 37.620998 28.375L 44.875 30.849998L 44.875 36.476498C 44.803185 39.70826 42.841194 42.596924 39.863503 43.855003ZM 34.6105 36.564999L 36.786999 38.743L 41.142998 33.2995"></path></g></g></g><g id="g-root-tx_askabout_hv9v303nc5c3-stroke" data-item-order="1000000000" data-item-id="tx_askabout_hv9v303nc5c3" data-item-class="Label Stroke Indexed" data-item-index="3" data-renderer-id="0" transform="translate(458, 225)"></g><g id="g-root-tx_ensureth_mb3d7g3nc4ju-stroke" data-item-order="1000000000" data-item-id="tx_ensureth_mb3d7g3nc4ju" data-item-class="Label Stroke Indexed" data-item-index="3" data-renderer-id="0" transform="translate(458, 261)"></g></g></g></svg>