<?xml version="1.0" encoding="utf-8" standalone="yes"?>
<!DOCTYPE svg PUBLIC "-//W3C//DTD SVG 1.1//EN" "http://www.w3.org/Graphics/SVG/1.1/DTD/svg11.dtd">
<svg width="852" height="373" viewBox="0 0 852 373" style="fill:none;stroke:none;fill-rule:evenodd;clip-rule:evenodd;stroke-linecap:round;stroke-linejoin:round;stroke-miterlimit:1.5;" version="1.1" xmlns="http://www.w3.org/2000/svg" xmlns:xlink="http://www.w3.org/1999/xlink"><style id="fontImports">@import url("https://fonts.googleapis.com/css2?family=Roboto:wght@400;700&amp;display=block");</style><g id="items" style="isolation: isolate"><g id="blend" style="mix-blend-mode:normal"><g id="g-root-ro_18kolv01pj7kd-fill" data-item-order="999972856" data-item-id="ro_18kolv01pj7kd" data-item-class="Shape Stroke Fill" data-item-index="none" data-renderer-id="0" transform="translate(374, 15)"><g id="ro_18kolv01pj7kd-fill" stroke="none" fill="#505050"><g><path d="M 34 10L 142 10C 142 10 166 10 166 34L 166 160C 166 160 166 184 142 184L 34 184C 34 184 10 184 10 160L 10 34C 10 34 10 10 34 10"></path></g></g></g><g id="g-root-ro_13zvb1o1pndvv-fill" data-item-order="999985096" data-item-id="ro_13zvb1o1pndvv" data-item-class="Shape Stroke Fill" data-item-index="none" data-renderer-id="0" transform="translate(50, 3)"><g id="ro_13zvb1o1pndvv-fill" stroke="none" fill="#2b503e"><g><path d="M 22 10L 274 10C 274 10 286 10 286 22L 286 52C 286 52 286 64 274 64L 22 64C 22 64 10 64 10 52L 10 22C 10 22 10 10 22 10"></path></g></g></g><g id="g-root-ro_v7co8c1pm1ov-fill" data-item-order="999985744" data-item-id="ro_v7co8c1pm1ov" data-item-class="Shape Stroke Fill" data-item-index="none" data-renderer-id="0" transform="translate(320, 225)"><g id="ro_v7co8c1pm1ov-fill" stroke="none" fill="#224754"><g><path d="M 22 10L 262 10C 262 10 274 10 274 22L 274 52C 274 52 274 64 262 64L 22 64C 22 64 10 64 10 52L 10 22C 10 22 10 10 22 10"></path></g></g></g><g id="g-root-ro_1uua0to1pkmwx-fill" data-item-order="999987040" data-item-id="ro_1uua0to1pkmwx" data-item-class="Shape Stroke Fill" data-item-index="none" data-renderer-id="0" transform="translate(578, 3)"><g id="ro_1uua0to1pkmwx-fill" stroke="none" fill="#293f64"><g><path d="M 22 10L 238 10C 238 10 250 10 250 22L 250 52C 250 52 250 64 238 64L 22 64C 22 64 10 64 10 52L 10 22C 10 22 10 10 22 10"></path></g></g></g><g id="g-root-1_8zgz01pkmbs-fill" data-item-order="1000000000" data-item-id="1_8zgz01pkmbs" data-item-class="Icon Stroke" data-item-index="none" data-renderer-id="0" transform="translate(590, 15)"></g><g id="g-root-cu_zk1sx81pneo4-fill" data-item-order="1000000000" data-item-id="cu_zk1sx81pneo4" data-item-class="Curve Stroke ColorStrokeBlack" data-item-index="none" data-renderer-id="0" transform="translate(326, 30)"></g><g id="g-root-cu_qoesoc1pnfgv-fill" data-item-order="1000000000" data-item-id="cu_qoesoc1pnfgv" data-item-class="Curve Stroke ColorStrokeBlack" data-item-index="none" data-renderer-id="0" transform="translate(530, 30)"></g><g id="g-root-tx_economic_4osz3g1pkljj-fill" data-item-order="1000000000" data-item-id="tx_economic_4osz3g1pkljj" data-item-class="Label Stroke" data-item-index="none" data-renderer-id="0" transform="translate(626, 18)"><g id="tx_economic_4osz3g1pkljj-fill" stroke="none" fill="#4F92FF"><g><text style="font: 20px Roboto, sans-serif; white-space: pre;" font-size="20px" font-family="Roboto, sans-serif"><tspan x="17.05" y="34" dominant-baseline="ideographic">Economic Benefits</tspan></text></g></g></g><g id="g-root-bag_1hgbm3w1pj6ro-fill" data-item-order="1000000000" data-item-id="bag_1hgbm3w1pj6ro" data-item-class="Icon Stroke" data-item-index="none" data-renderer-id="0" transform="translate(428, 39)"></g><g id="g-root-tx_reducesl_qs5n701plzbc-fill" data-item-order="1000000000" data-item-id="tx_reducesl_qs5n701plzbc" data-item-class="Label Stroke" data-item-index="none" data-renderer-id="0" transform="translate(62, 69)"><g id="tx_reducesl_qs5n701plzbc-fill" stroke="none" fill="#A3A3A3"><g><text style="font: 20px Roboto, sans-serif; white-space: pre;" font-size="20px" font-family="Roboto, sans-serif"><tspan x="14.51" y="34" dominant-baseline="ideographic">Reduces Landfill Waste</tspan></text></g></g></g><g id="g-root-cu_v48ass1pnfgl-fill" data-item-order="1000000000" data-item-id="cu_v48ass1pnfgl" data-item-class="Curve Stroke ColorStrokeBlack" data-item-index="none" data-renderer-id="0" transform="translate(284, 57)"></g><g id="g-root-cu_qoesoc1png8w-fill" data-item-order="1000000000" data-item-id="cu_qoesoc1png8w" data-item-class="Curve Stroke ColorStrokeBlack" data-item-index="none" data-renderer-id="0" transform="translate(284, 57)"></g><g id="g-root-cu_qoesoc1png8y-fill" data-item-order="1000000000" data-item-id="cu_qoesoc1png8y" data-item-class="Curve Stroke ColorStrokeBlack" data-item-index="none" data-renderer-id="0" transform="translate(602, 57)"></g><g id="g-root-cu_hte9ik1pndvx-fill" data-item-order="1000000000" data-item-id="cu_hte9ik1pndvx" data-item-class="Curve Stroke ColorStrokeBlack" data-item-index="none" data-renderer-id="0" transform="translate(602, 57)"></g><g id="g-root-tx_affordab_dgp4to1pm0wa-fill" data-item-order="1000000000" data-item-id="tx_affordab_dgp4to1pm0wa" data-item-class="Label Stroke" data-item-index="none" data-renderer-id="0" transform="translate(626, 69)"><g id="tx_affordab_dgp4to1pm0wa-fill" stroke="none" fill="#A3A3A3"><g><text style="font: 20px Roboto, sans-serif; white-space: pre;" font-size="20px" font-family="Roboto, sans-serif"><tspan x="15.02" y="34" dominant-baseline="ideographic">Affordable Alternative</tspan></text></g></g></g><g id="g-root-tx_conserve_mcc52k1pm03l-fill" data-item-order="1000000000" data-item-id="tx_conserve_mcc52k1pm03l" data-item-class="Label Stroke" data-item-index="none" data-renderer-id="0" transform="translate(2, 105)"><g id="tx_conserve_mcc52k1pm03l-fill" stroke="none" fill="#A3A3A3"><g><text style="font: 20px Roboto, sans-serif; white-space: pre;" font-size="20px" font-family="Roboto, sans-serif"><tspan x="16.95" y="34" dominant-baseline="ideographic">Conserves Natural Resources</tspan></text></g></g></g><g id="g-root-tx_benefits_1ur5ne41pj8cj-fill" data-item-order="1000000000" data-item-id="tx_benefits_1ur5ne41pj8cj" data-item-class="Label Stroke" data-item-index="none" data-renderer-id="0" transform="translate(398, 93)"><g id="tx_benefits_1ur5ne41pj8cj-fill" stroke="none" fill="#A3A3A3"><g><text style="font: 20px Roboto, sans-serif; white-space: pre;" font-size="20px" font-family="Roboto, sans-serif"><tspan x="13.57" y="34" dominant-baseline="ideographic">Benefits of </tspan><tspan x="21.55" y="58" dominant-baseline="ideographic">Recycled </tspan><tspan x="14.45" y="82" dominant-baseline="ideographic">Auto Parts</tspan></text></g></g></g><g id="g-root-tx_comparab_dgp4to1pm0wb-fill" data-item-order="1000000000" data-item-id="tx_comparab_dgp4to1pm0wb" data-item-class="Label Stroke" data-item-index="none" data-renderer-id="0" transform="translate(626, 105)"><g id="tx_comparab_dgp4to1pm0wb-fill" stroke="none" fill="#A3A3A3"><g><text style="font: 20px Roboto, sans-serif; white-space: pre;" font-size="20px" font-family="Roboto, sans-serif"><tspan x="12.85" y="34" dominant-baseline="ideographic">Comparable Quality</tspan></text></g></g></g><g id="g-root-cu_v48ass1pnfgi-fill" data-item-order="1000000000" data-item-id="cu_v48ass1pnfgi" data-item-class="Curve Stroke ColorStrokeBlack" data-item-index="none" data-renderer-id="0" transform="translate(452, 189)"></g><g id="g-root-dam_1cuvu7g1png8y-fill" data-item-order="1000000000" data-item-id="dam_1cuvu7g1png8y" data-item-class="Icon Stroke" data-item-index="none" data-renderer-id="0" transform="translate(284, 15)"></g><g id="g-root-1_142zoh81pm0w6-fill" data-item-order="1000000000" data-item-id="1_142zoh81pm0w6" data-item-class="Icon Stroke" data-item-index="none" data-renderer-id="0" transform="translate(332, 237)"></g><g id="g-root-tx_bionicsa_18it6lo1pm03x-fill" data-item-order="1000000000" data-item-id="tx_bionicsa_18it6lo1pm03x" data-item-class="Label Stroke" data-item-index="none" data-renderer-id="0" transform="translate(368, 240)"><g id="tx_bionicsa_18it6lo1pm03x-fill" stroke="none" fill="#1AC6FF"><g><text style="font: 20px Roboto, sans-serif; white-space: pre;" font-size="20px" font-family="Roboto, sans-serif"><tspan x="12.38" y="34" dominant-baseline="ideographic">BionicsAutoParts.com</tspan></text></g></g></g><g id="g-root-tx_qualityi_5v3jg1plzbh-fill" data-item-order="1000000000" data-item-id="tx_qualityi_5v3jg1plzbh" data-item-class="Label Stroke" data-item-index="none" data-renderer-id="0" transform="translate(368, 327)"><g id="tx_qualityi_5v3jg1plzbh-fill" stroke="none" fill="#A3A3A3"><g><text style="font: 20px Roboto, sans-serif; white-space: pre;" font-size="20px" font-family="Roboto, sans-serif"><tspan x="14.39" y="34" dominant-baseline="ideographic">Quality Inspection</tspan></text></g></g></g><g id="g-root-cu_ddkre41pneoa-fill" data-item-order="1000000000" data-item-id="cu_ddkre41pneoa" data-item-class="Curve Stroke ColorStrokeBlack" data-item-index="none" data-renderer-id="0" transform="translate(344, 279)"></g><g id="g-root-tx_ecofrien_90vmp81pm1ok-fill" data-item-order="1000000000" data-item-id="tx_ecofrien_90vmp81pm1ok" data-item-class="Label Stroke" data-item-index="none" data-renderer-id="0" transform="translate(368, 291)"><g id="tx_ecofrien_90vmp81pm1ok-fill" stroke="none" fill="#A3A3A3"><g><text style="font: 20px Roboto, sans-serif; white-space: pre;" font-size="20px" font-family="Roboto, sans-serif"><tspan x="15.59" y="34" dominant-baseline="ideographic">Eco-friendly Parts</tspan></text></g></g></g><g id="g-root-tx_environm_1hapcbw1pnfgp-fill" data-item-order="1000000000" data-item-id="tx_environm_1hapcbw1pnfgp" data-item-class="Label Stroke" data-item-index="none" data-renderer-id="0" transform="translate(62, 18)"><g id="tx_environm_1hapcbw1pnfgp-fill" stroke="none" fill="#44E095"><g><text style="font: 20px Roboto, sans-serif; white-space: pre;" font-size="20px" font-family="Roboto, sans-serif"><tspan x="15.53" y="34" dominant-baseline="ideographic">Environmental Benefits</tspan></text></g></g></g><g id="g-root-cu_hte9ik1pndvz-fill" data-item-order="1000000000" data-item-id="cu_hte9ik1pndvz" data-item-class="Curve Stroke ColorStrokeBlack" data-item-index="none" data-renderer-id="0" transform="translate(344, 279)"></g><g id="g-root-ro_18kolv01pj7kd-stroke" data-item-order="999972856" data-item-id="ro_18kolv01pj7kd" data-item-class="Shape Stroke Fill" data-item-index="none" data-renderer-id="0" transform="translate(374, 15)"><g id="ro_18kolv01pj7kd-stroke" fill="none" stroke-linecap="round" stroke-linejoin="round" stroke-miterlimit="4" stroke="#A3A3A3" stroke-width="2"><g><path d="M 34 10L 142 10C 142 10 166 10 166 34L 166 160C 166 160 166 184 142 184L 34 184C 34 184 10 184 10 160L 10 34C 10 34 10 10 34 10"></path></g></g></g><g id="g-root-ro_13zvb1o1pndvv-stroke" data-item-order="999985096" data-item-id="ro_13zvb1o1pndvv" data-item-class="Shape Stroke Fill" data-item-index="none" data-renderer-id="0" transform="translate(50, 3)"><g id="ro_13zvb1o1pndvv-stroke" fill="none" stroke-linecap="round" stroke-linejoin="round" stroke-miterlimit="4" stroke="#44E095" stroke-width="2"><g><path d="M 22 10L 274 10C 274 10 286 10 286 22L 286 52C 286 52 286 64 274 64L 22 64C 22 64 10 64 10 52L 10 22C 10 22 10 10 22 10"></path></g></g></g><g id="g-root-ro_v7co8c1pm1ov-stroke" data-item-order="999985744" data-item-id="ro_v7co8c1pm1ov" data-item-class="Shape Stroke Fill" data-item-index="none" data-renderer-id="0" transform="translate(320, 225)"><g id="ro_v7co8c1pm1ov-stroke" fill="none" stroke-linecap="round" stroke-linejoin="round" stroke-miterlimit="4" stroke="#1AC6FF" stroke-width="2"><g><path d="M 22 10L 262 10C 262 10 274 10 274 22L 274 52C 274 52 274 64 262 64L 22 64C 22 64 10 64 10 52L 10 22C 10 22 10 10 22 10"></path></g></g></g><g id="g-root-ro_1uua0to1pkmwx-stroke" data-item-order="999987040" data-item-id="ro_1uua0to1pkmwx" data-item-class="Shape Stroke Fill" data-item-index="none" data-renderer-id="0" transform="translate(578, 3)"><g id="ro_1uua0to1pkmwx-stroke" fill="none" stroke-linecap="round" stroke-linejoin="round" stroke-miterlimit="4" stroke="#4F92FF" stroke-width="2"><g><path d="M 22 10L 238 10C 238 10 250 10 250 22L 250 52C 250 52 250 64 238 64L 22 64C 22 64 10 64 10 52L 10 22C 10 22 10 10 22 10"></path></g></g></g><g id="g-root-1_8zgz01pkmbs-stroke" data-item-order="1000000000" data-item-id="1_8zgz01pkmbs" data-item-class="Icon Stroke" data-item-index="none" data-renderer-id="0" transform="translate(590, 15)"><g id="1_8zgz01pkmbs-stroke" fill="none" stroke-linecap="round" stroke-linejoin="round" stroke-miterlimit="4" stroke="#4F92FF" stroke-width="2"><g><path d="M 25 14.375L 25 37.5M 11.25 30L 15.625 20.668751L 20 30M 15.625 34.375C 16.794004 34.404114 17.923801 33.952538 18.750669 33.125671C 19.577538 32.298801 20.029118 31.169004 20 29.999998L 11.25 30C 11.220882 31.169004 11.672462 32.298801 12.499331 33.125671C 13.326199 33.952538 14.455995 34.404114 15.625 34.375ZM 38.75 22.5L 34.375 13.016251L 30 22.5M 34.375 26.875C 33.205994 26.904118 32.076195 26.452538 31.249331 25.625669C 30.422461 24.798801 29.970882 23.669004 29.999998 22.5L 38.75 22.5C 38.779114 23.669004 38.327538 24.798801 37.500671 25.625669C 36.673801 26.452538 35.544006 26.904118 34.375 26.875ZM 26.8675 16.11875L 35.625 12.5M 13.0575 21.706249L 26.8675 16.11875M 19.375 37.5L 30.625 37.5"></path></g></g></g><g id="g-root-cu_zk1sx81pneo4-stroke" data-item-order="1000000000" data-item-id="cu_zk1sx81pneo4" data-item-class="Curve Stroke ColorStrokeBlack" data-item-index="none" data-renderer-id="0" transform="translate(326, 30)"><g id="cu_zk1sx81pneo4-stroke" fill="none" stroke-linecap="round" stroke-linejoin="round" stroke-miterlimit="4" stroke="#666666" stroke-width="2" stroke-dasharray="5.0, 7.0"><g><path d="M 58 53L 55 53L 54.9 53C 43.357252 53.000001 34.000002 43.642752 34.000002 32.1L 34 32L 34 30.9C 33.999998 19.357248 24.64275 10 13.1 10L 13 10L 10 10"></path></g></g></g><g id="g-root-cu_qoesoc1pnfgv-stroke" data-item-order="1000000000" data-item-id="cu_qoesoc1pnfgv" data-item-class="Curve Stroke ColorStrokeBlack" data-item-index="none" data-renderer-id="0" transform="translate(530, 30)"><g id="cu_qoesoc1pnfgv-stroke" fill="none" stroke-linecap="round" stroke-linejoin="round" stroke-miterlimit="4" stroke="#666666" stroke-width="2" stroke-dasharray="5.0, 7.0"><g><path d="M 10 53L 13 53L 13.1 53C 24.642753 52.999998 34.000001 43.642749 34 32.099998L 34 32L 34 30.9C 33.999999 19.357249 43.357248 10.000001 54.899999 10.000002L 55 10L 58 10"></path></g></g></g><g id="g-root-tx_economic_4osz3g1pkljj-stroke" data-item-order="1000000000" data-item-id="tx_economic_4osz3g1pkljj" data-item-class="Label Stroke" data-item-index="none" data-renderer-id="0" transform="translate(626, 18)"></g><g id="g-root-bag_1hgbm3w1pj6ro-stroke" data-item-order="1000000000" data-item-id="bag_1hgbm3w1pj6ro" data-item-class="Icon Stroke" data-item-index="none" data-renderer-id="0" transform="translate(428, 39)"><g id="bag_1hgbm3w1pj6ro-stroke" fill="none" stroke-linecap="round" stroke-linejoin="round" stroke-miterlimit="4" stroke="#A3A3A3" stroke-width="2"><g><path d="M 17 27L 51 27C 51 27 53 27 53 29L 53 55C 53 55 53 57 51 57L 17 57C 17 57 15 57 15 55L 15 29C 15 29 15 27 17 27M 25 22.838001L 25 20C 25 15.029438 29.029438 11 34 11C 38.970562 11 43 15.029438 43 20L 43 22.838001M 40.021999 35L 39.021999 39L 35.021999 39M 24.014 43L 28.014 43L 29.014 47M 38.031998 53.973999L 35.634003 51L 38.031998 47.973999M 41.321999 44.057999L 43.444 48.057999C 43.772171 48.677689 43.751831 49.423985 43.390396 50.024879C 43.028957 50.625774 42.379223 50.993488 41.678001 50.993999L 35.634003 50.993999M 30.087999 37.650002L 32.332001 33.835999C 32.685974 33.233803 33.328487 32.859924 34.026939 32.849705C 34.725388 32.839485 35.378563 33.194416 35.75 33.785999L 39.021999 39M 30.014 51L 26.614 51C 25.88666 50.999729 25.216805 50.604614 24.864706 49.968178C 24.512608 49.331741 24.533783 48.554329 24.92 47.938L 28.014 43"></path></g></g></g><g id="g-root-tx_reducesl_qs5n701plzbc-stroke" data-item-order="1000000000" data-item-id="tx_reducesl_qs5n701plzbc" data-item-class="Label Stroke" data-item-index="none" data-renderer-id="0" transform="translate(62, 69)"></g><g id="g-root-cu_v48ass1pnfgl-stroke" data-item-order="1000000000" data-item-id="cu_v48ass1pnfgl" data-item-class="Curve Stroke ColorStrokeBlack" data-item-index="none" data-renderer-id="0" transform="translate(284, 57)"><g id="cu_v48ass1pnfgl-stroke" fill="none" stroke-linecap="round" stroke-linejoin="round" stroke-miterlimit="4" stroke="#666666" stroke-width="2" stroke-dasharray="5.0, 7.0"><g><path d="M 28 10L 28 22L 28 34L 19 34L 10 34"></path></g></g></g><g id="g-root-cu_qoesoc1png8w-stroke" data-item-order="1000000000" data-item-id="cu_qoesoc1png8w" data-item-class="Curve Stroke ColorStrokeBlack" data-item-index="none" data-renderer-id="0" transform="translate(284, 57)"><g id="cu_qoesoc1png8w-stroke" fill="none" stroke-linecap="round" stroke-linejoin="round" stroke-miterlimit="4" stroke="#666666" stroke-width="2" stroke-dasharray="5.0, 7.0"><g><path d="M 28 10L 28 17.5L 28 58C 27.999999 64.627415 22.627416 69.999998 16 69.999998L 15.9 70L 10 70"></path></g></g></g><g id="g-root-cu_qoesoc1png8y-stroke" data-item-order="1000000000" data-item-id="cu_qoesoc1png8y" data-item-class="Curve Stroke ColorStrokeBlack" data-item-index="none" data-renderer-id="0" transform="translate(602, 57)"><g id="cu_qoesoc1png8y-stroke" fill="none" stroke-linecap="round" stroke-linejoin="round" stroke-miterlimit="4" stroke="#666666" stroke-width="2" stroke-dasharray="5.0, 7.0"><g><path d="M 10 10L 10 22L 10 34L 19 34L 28 34"></path></g></g></g><g id="g-root-cu_hte9ik1pndvx-stroke" data-item-order="1000000000" data-item-id="cu_hte9ik1pndvx" data-item-class="Curve Stroke ColorStrokeBlack" data-item-index="none" data-renderer-id="0" transform="translate(602, 57)"><g id="cu_hte9ik1pndvx-stroke" fill="none" stroke-linecap="round" stroke-linejoin="round" stroke-miterlimit="4" stroke="#666666" stroke-width="2" stroke-dasharray="5.0, 7.0"><g><path d="M 10 10L 10 17.5L 10 58C 10.000002 64.627417 15.372585 70 22.000002 69.999999L 22.1 70L 28 70"></path></g></g></g><g id="g-root-tx_affordab_dgp4to1pm0wa-stroke" data-item-order="1000000000" data-item-id="tx_affordab_dgp4to1pm0wa" data-item-class="Label Stroke" data-item-index="none" data-renderer-id="0" transform="translate(626, 69)"></g><g id="g-root-tx_conserve_mcc52k1pm03l-stroke" data-item-order="1000000000" data-item-id="tx_conserve_mcc52k1pm03l" data-item-class="Label Stroke" data-item-index="none" data-renderer-id="0" transform="translate(2, 105)"></g><g id="g-root-tx_benefits_1ur5ne41pj8cj-stroke" data-item-order="1000000000" data-item-id="tx_benefits_1ur5ne41pj8cj" data-item-class="Label Stroke" data-item-index="none" data-renderer-id="0" transform="translate(398, 93)"></g><g id="g-root-tx_comparab_dgp4to1pm0wb-stroke" data-item-order="1000000000" data-item-id="tx_comparab_dgp4to1pm0wb" data-item-class="Label Stroke" data-item-index="none" data-renderer-id="0" transform="translate(626, 105)"></g><g id="g-root-cu_v48ass1pnfgi-stroke" data-item-order="1000000000" data-item-id="cu_v48ass1pnfgi" data-item-class="Curve Stroke ColorStrokeBlack" data-item-index="none" data-renderer-id="0" transform="translate(452, 189)"><g id="cu_v48ass1pnfgi-stroke" fill="none" stroke-linecap="round" stroke-linejoin="round" stroke-miterlimit="4" stroke="#666666" stroke-width="2" stroke-dasharray="5.0, 7.0"><g><path d="M 10 10L 10 28L 10 46"></path></g></g></g><g id="g-root-dam_1cuvu7g1png8y-stroke" data-item-order="1000000000" data-item-id="dam_1cuvu7g1png8y" data-item-class="Icon Stroke" data-item-index="none" data-renderer-id="0" transform="translate(284, 15)"><g id="dam_1cuvu7g1png8y-stroke" fill="none" stroke-linecap="round" stroke-linejoin="round" stroke-miterlimit="4" stroke="#44E095" stroke-width="2"><g><path d="M 38.75 28.609999C 36.03875 29.26125 34.355 26.13625 34.355 26.13625C 33.584873 27.618662 32.0979 28.592609 30.43125 28.706249C 28.780788 28.552792 27.314259 27.589781 26.517502 26.13625C 25.707401 27.631657 24.195398 28.615353 22.500002 28.750002M 38.75 33.653751C 36.03875 34.305 34.35125 31.18 34.35125 31.18C 33.582897 32.662876 32.096302 33.637196 30.43 33.75C 28.778765 33.596024 27.311317 32.633331 26.512501 31.18C 26.095924 31.907799 25.527651 32.53746 24.846251 33.026253M 38.75 22.984999C 36.03875 23.63625 34.355 20.51125 34.355 20.51125C 33.584873 21.993662 32.0979 22.967609 30.43125 23.081249C 28.780788 22.927792 27.314259 21.964781 26.517502 20.51125C 25.707401 22.006657 24.195398 22.990353 22.500002 23.125002M 22.1875 35C 22.435234 35.000313 22.659769 34.854279 22.759932 34.627693C 22.860092 34.401115 22.816973 34.136757 22.65 33.953751C 20.7425 31.86125 17.0175 26.403749 16.875 15.61625C 16.870214 15.274494 16.591789 14.999967 16.25 15L 11.875 15C 11.529822 15 11.25 15.279821 11.25 15.625L 11.25 34.375C 11.25 34.720177 11.529822 35 11.875 35Z"></path></g></g></g><g id="g-root-1_142zoh81pm0w6-stroke" data-item-order="1000000000" data-item-id="1_142zoh81pm0w6" data-item-class="Icon Stroke" data-item-index="none" data-renderer-id="0" transform="translate(332, 237)"><g id="1_142zoh81pm0w6-stroke" fill="none" stroke-linecap="round" stroke-linejoin="round" stroke-miterlimit="4" stroke="#1AC6FF" stroke-width="2"><g><path d="M 16.875 31.875L 16.875 33.75C 16.875 34.095177 16.595179 34.375 16.25 34.375L 13.75 34.375C 13.404822 34.375 13.125 34.095177 13.125 33.75L 13.125 31.875M 36.875 31.875L 36.875 33.75C 36.875 34.095177 36.595177 34.375 36.25 34.375L 33.75 34.375C 33.404823 34.375 33.125 34.095177 33.125 33.75L 33.125 31.875M 37.5 31.875C 37.845177 31.875 38.125 31.595177 38.125 31.25L 38.125 27.133749C 38.124966 26.968309 38.059338 26.809631 37.942501 26.692501L 34.375 23.125L 15.625 23.125L 12.0575 26.692501C 11.940663 26.809631 11.875035 26.968309 11.875 27.133749L 11.875 31.25C 11.875 31.595177 12.154822 31.875 12.5 31.875ZM 34.375 23.125L 32.017502 16.0525C 31.932528 15.797379 31.693899 15.625204 31.424999 15.625L 18.575001 15.625C 18.306101 15.625204 18.067472 15.797379 17.9825 16.0525L 15.625 23.125M 15.625 23.125L 12.5 23.125C 12.154822 23.125 11.875 22.845177 11.875 22.5L 11.875 21.25C 11.875 20.904823 12.154822 20.625 12.5 20.625L 16.45875 20.625M 33.541252 20.625L 37.5 20.625C 37.845177 20.625 38.125 20.904823 38.125 21.25L 38.125 22.5C 38.125 22.845177 37.845177 23.125 37.5 23.125L 34.375 23.125M 11.9325 26.875L 16.25 26.875C 16.595179 26.875 16.875 27.154823 16.875 27.5L 16.875 28.75C 16.875 29.095177 16.595179 29.375 16.25 29.375L 11.875 29.375M 38.125 29.375L 33.75 29.375C 33.404823 29.375 33.125 29.095177 33.125 28.75L 33.125 27.5C 33.125 27.154823 33.404823 26.875 33.75 26.875L 38.067501 26.875"></path></g></g></g><g id="g-root-tx_bionicsa_18it6lo1pm03x-stroke" data-item-order="1000000000" data-item-id="tx_bionicsa_18it6lo1pm03x" data-item-class="Label Stroke" data-item-index="none" data-renderer-id="0" transform="translate(368, 240)"></g><g id="g-root-tx_qualityi_5v3jg1plzbh-stroke" data-item-order="1000000000" data-item-id="tx_qualityi_5v3jg1plzbh" data-item-class="Label Stroke" data-item-index="none" data-renderer-id="0" transform="translate(368, 327)"></g><g id="g-root-cu_ddkre41pneoa-stroke" data-item-order="1000000000" data-item-id="cu_ddkre41pneoa" data-item-class="Curve Stroke ColorStrokeBlack" data-item-index="none" data-renderer-id="0" transform="translate(344, 279)"><g id="cu_ddkre41pneoa-stroke" fill="none" stroke-linecap="round" stroke-linejoin="round" stroke-miterlimit="4" stroke="#666666" stroke-width="2" stroke-dasharray="5.0, 7.0"><g><path d="M 10 10L 10 17.5L 10 58C 10.000002 64.627417 15.372585 70 22.000002 69.999999L 22.1 70L 28 70"></path></g></g></g><g id="g-root-tx_ecofrien_90vmp81pm1ok-stroke" data-item-order="1000000000" data-item-id="tx_ecofrien_90vmp81pm1ok" data-item-class="Label Stroke" data-item-index="none" data-renderer-id="0" transform="translate(368, 291)"></g><g id="g-root-tx_environm_1hapcbw1pnfgp-stroke" data-item-order="1000000000" data-item-id="tx_environm_1hapcbw1pnfgp" data-item-class="Label Stroke" data-item-index="none" data-renderer-id="0" transform="translate(62, 18)"></g><g id="g-root-cu_hte9ik1pndvz-stroke" data-item-order="1000000000" data-item-id="cu_hte9ik1pndvz" data-item-class="Curve Stroke ColorStrokeBlack" data-item-index="none" data-renderer-id="0" transform="translate(344, 279)"><g id="cu_hte9ik1pndvz-stroke" fill="none" stroke-linecap="round" stroke-linejoin="round" stroke-miterlimit="4" stroke="#666666" stroke-width="2" stroke-dasharray="5.0, 7.0"><g><path d="M 10 10L 10 22L 10 34L 19 34L 28 34"></path></g></g></g></g></g></svg>