<?xml version="1.0" encoding="utf-8" standalone="yes"?>
<!DOCTYPE svg PUBLIC "-//W3C//DTD SVG 1.1//EN" "http://www.w3.org/Graphics/SVG/1.1/DTD/svg11.dtd">
<svg width="756" height="565" viewBox="0 0 756 565" style="fill:none;stroke:none;fill-rule:evenodd;clip-rule:evenodd;stroke-linecap:round;stroke-linejoin:round;stroke-miterlimit:1.5;" version="1.1" xmlns="http://www.w3.org/2000/svg" xmlns:xlink="http://www.w3.org/1999/xlink"><style id="fontImports">@import url("https://fonts.googleapis.com/css2?family=Roboto:wght@400;700&amp;display=block");</style><g id="items" style="isolation: isolate"><g id="blend" style="mix-blend-mode:normal"><g id="g-root--1.cu_sy_1cymiek2thjwg-fill" data-item-order="999876454" data-item-id="-1.cu_sy_1cymiek2thjwg" data-item-class="Part Fill Stroke ColorFillBlack ColorStrokeBlack" data-item-index="-1" data-renderer-id="0" transform="translate(362, 74)"></g><g id="g-root-6.line_sy_142zi5o2thkp5-fill" data-item-order="999876461" data-item-id="6.line_sy_142zi5o2thkp5" data-item-class="Curve Stroke Part Indexed ColorFillBlack" data-item-index="6" data-renderer-id="0" transform="translate(278, 350)"></g><g id="g-root-5.line_sy_zn60182thlhe-fill" data-item-order="999876467" data-item-id="5.line_sy_zn60182thlhe" data-item-class="Curve Stroke Part Indexed ColorFillBlack" data-item-index="5" data-renderer-id="0" transform="translate(278, 336)"></g><g id="g-root-4.line_sy_zn60182thlhf-fill" data-item-order="999876473" data-item-id="4.line_sy_zn60182thlhf" data-item-class="Curve Stroke Part Indexed ColorFillBlack" data-item-index="4" data-renderer-id="0" transform="translate(278, 318)"></g><g id="g-root-3.line_sy_qs5gvg2thj4c-fill" data-item-order="999876479" data-item-id="3.line_sy_qs5gvg2thj4c" data-item-class="Curve Stroke Part Indexed ColorFillBlack" data-item-index="3" data-renderer-id="0" transform="translate(278.109375, 266)"></g><g id="g-root-2.line_sy_qs5gvg2thj4d-fill" data-item-order="999876485" data-item-id="2.line_sy_qs5gvg2thj4d" data-item-class="Curve Stroke Part Indexed ColorFillBlack" data-item-index="2" data-renderer-id="0" transform="translate(278, 182)"></g><g id="g-root-1.line_sy_qs5gvg2thj4e-fill" data-item-order="999876491" data-item-id="1.line_sy_qs5gvg2thj4e" data-item-class="Curve Stroke Part Indexed Indexed_1 ColorFillBlack" data-item-index="1" data-renderer-id="0" transform="translate(278, 98)"></g><g id="g-root-tx_onlineau_1lymu982tolcc-fill" data-item-order="1000000000" data-item-id="tx_onlineau_1lymu982tolcc" data-item-class="Label Stroke Title ColorStrokeGray" data-item-index="none" data-renderer-id="0" transform="translate(266, 2)"><g id="tx_onlineau_1lymu982tolcc-fill" stroke="none" fill="#A3A3A3"><g><text style="font: 20px Roboto, sans-serif; white-space: pre;" font-size="20px" font-family="Roboto, sans-serif"><tspan x="12.81" y="34" dominant-baseline="ideographic">Online Auto Parts Marketplace</tspan></text></g></g></g><g id="g-root-tx_bionicsa_1uu9ui42tokjn-fill" data-item-order="1000000000" data-item-id="tx_bionicsa_1uu9ui42tokjn" data-item-class="Label Stroke Indexed Indexed_1 ColorStrokeGray" data-item-index="1" data-renderer-id="0" transform="translate(2, 86)"><g id="tx_bionicsa_1uu9ui42tokjn-fill" stroke="none" fill="#A3A3A3"><g><text style="font: 20px Roboto, sans-serif; white-space: pre;" font-size="20px" font-family="Roboto, sans-serif"><tspan x="12.75" y="34" dominant-baseline="ideographic">BionicsAutoParts.com</tspan></text></g></g></g><g id="g-root-1_vagvcc2tombw-fill" data-item-order="1000000000" data-item-id="1_vagvcc2tombw" data-item-class="Icon Stroke Indexed Indexed_1" data-item-index="1" data-renderer-id="0" transform="translate(218, 74)"></g><g id="g-root-tx_lkqcom_8zang2tojyi-fill" data-item-order="1000000000" data-item-id="tx_lkqcom_8zang2tojyi" data-item-class="Label Stroke Indexed ColorStrokeGray" data-item-index="2" data-renderer-id="0" transform="translate(110, 170)"><g id="tx_lkqcom_8zang2tojyi-fill" stroke="none" fill="#A3A3A3"><g><text style="font: 20px Roboto, sans-serif; white-space: pre;" font-size="20px" font-family="Roboto, sans-serif"><tspan x="22.58" y="34" dominant-baseline="ideographic">LKQ.com</tspan></text></g></g></g><g id="g-root-3_147zauk2tn6di-fill" data-item-order="1000000000" data-item-id="3_147zauk2tn6di" data-item-class="Icon Stroke Indexed" data-item-index="2" data-renderer-id="0" transform="translate(218, 158)"></g><g id="g-root-tx_carpartc_93ztt82tombl-fill" data-item-order="1000000000" data-item-id="tx_carpartc_93ztt82tombl" data-item-class="Label Stroke Indexed ColorStrokeGray" data-item-index="3" data-renderer-id="0" transform="translate(74, 254)"><g id="tx_carpartc_93ztt82tombl-fill" stroke="none" fill="#A3A3A3"><g><text style="font: 20px Roboto, sans-serif; white-space: pre;" font-size="20px" font-family="Roboto, sans-serif"><tspan x="21.97" y="34" dominant-baseline="ideographic">Car-Part.com</tspan></text></g></g></g><g id="g-root-13_1ltn1kc2tlssh-fill" data-item-order="1000000000" data-item-id="13_1ltn1kc2tlssh" data-item-class="Icon Stroke Indexed" data-item-index="3" data-renderer-id="0" transform="translate(218, 242)"></g><g id="g-root-5_1unemjw2tizv2-fill" data-item-order="1000000000" data-item-id="5_1unemjw2tizv2" data-item-class="Icon Stroke ColorStrokeGray" data-item-index="none" data-renderer-id="0" transform="translate(542, 284)"></g><g id="g-root-tx_reliable_qv9ub02tojyd-fill" data-item-order="1000000000" data-item-id="tx_reliable_qv9ub02tojyd" data-item-class="Label Stroke ColorStrokeGray" data-item-index="none" data-renderer-id="0" transform="translate(602, 284)"><g id="tx_reliable_qv9ub02tojyd-fill" stroke="none" fill="#A3A3A3"><g><text style="font: 20px Roboto, sans-serif; white-space: pre;" font-size="20px" font-family="Roboto, sans-serif"><tspan x="12" y="34" dominant-baseline="ideographic">Reliable Auto </tspan><tspan x="12" y="58" dominant-baseline="ideographic">Parts</tspan></text></g></g></g><g id="g-root-tx_partsgee_djtbxo2toljc-fill" data-item-order="1000000000" data-item-id="tx_partsgee_djtbxo2toljc" data-item-class="Label Stroke Indexed ColorStrokeGray" data-item-index="4" data-renderer-id="0" transform="translate(62, 338)"><g id="tx_partsgee_djtbxo2toljc-fill" stroke="none" fill="#A3A3A3"><g><text style="font: 20px Roboto, sans-serif; white-space: pre;" font-size="20px" font-family="Roboto, sans-serif"><tspan x="14.89" y="34" dominant-baseline="ideographic">PartsGeek.com</tspan></text></g></g></g><g id="g-root-70_8vvnos2tlslj-fill" data-item-order="1000000000" data-item-id="70_8vvnos2tlslj" data-item-class="Icon Stroke Indexed" data-item-index="4" data-renderer-id="0" transform="translate(218, 326)"></g><g id="g-root-tx_rockauto_djtbxo2toljb-fill" data-item-order="1000000000" data-item-id="tx_rockauto_djtbxo2toljb" data-item-class="Label Stroke Indexed ColorStrokeGray" data-item-index="5" data-renderer-id="0" transform="translate(62, 422)"><g id="tx_rockauto_djtbxo2toljb-fill" stroke="none" fill="#A3A3A3"><g><text style="font: 20px Roboto, sans-serif; white-space: pre;" font-size="20px" font-family="Roboto, sans-serif"><tspan x="21.3" y="34" dominant-baseline="ideographic">RockAuto.com</tspan></text></g></g></g><g id="g-root-add_1lvigto2tkdmz-fill" data-item-order="1000000000" data-item-id="add_1lvigto2tkdmz" data-item-class="Icon Stroke Indexed" data-item-index="5" data-renderer-id="0" transform="translate(218, 410)"></g><g id="g-root-tx_autozone_hzmu242tokr2-fill" data-item-order="1000000000" data-item-id="tx_autozone_hzmu242tokr2" data-item-class="Label Stroke Indexed ColorStrokeGray" data-item-index="6" data-renderer-id="0" transform="translate(62, 506)"><g id="tx_autozone_hzmu242tokr2-fill" stroke="none" fill="#A3A3A3"><g><text style="font: 20px Roboto, sans-serif; white-space: pre;" font-size="20px" font-family="Roboto, sans-serif"><tspan x="20.81" y="34" dominant-baseline="ideographic">AutoZone.com</tspan></text></g></g></g><g id="g-root-shop_1cuvnvw2tkf0s-fill" data-item-order="1000000000" data-item-id="shop_1cuvnvw2tkf0s" data-item-class="Icon Stroke Indexed" data-item-index="6" data-renderer-id="0" transform="translate(218, 494)"></g><g id="g-root--1.cu_sy_1cymiek2thjwg-stroke" data-item-order="999876454" data-item-id="-1.cu_sy_1cymiek2thjwg" data-item-class="Part Fill Stroke ColorFillBlack ColorStrokeBlack" data-item-index="-1" data-renderer-id="0" transform="translate(362, 74)"><g id="-1.cu_sy_1cymiek2thjwg-stroke" fill="none" stroke-linecap="round" stroke-linejoin="round" stroke-miterlimit="4" stroke="#666666" stroke-width="2"><g><path d="M 65.766602 478C 80.754802 478 106.000002 373.2347 106.000002 244C 106.000002 114.7654 80.754802 10 65.766602 10C 80.775202 10.0122 92.941702 115.0836 92.941702 244C 92.941702 372.9165 80.775202 477.9878 65.766602 478ZM 65.765897 478C 80.774597 477.9878 92.941097 372.9165 92.941097 244C 92.941097 115.0836 80.774597 10.0122 65.765897 10L 51.957397 10C 66.060697 18.3945 77.199297 120.2626 77.199297 244C 77.199297 367.7375 65.382597 469.6055 51.279297 478L 65.765897 478ZM 77.2 244C 77.2 367.7375 65.3833 469.6055 51.28 478L 50.0615 478C 35.0734 478 10 373.2347 10 244C 10 114.7654 35.0734 10 50.0615 10C 50.6991 10 51.9581 10 51.9581 10C 66.0614 18.3945 77.2 120.2626 77.2 244Z"></path></g></g></g><g id="g-root-6.line_sy_142zi5o2thkp5-stroke" data-item-order="999876461" data-item-id="6.line_sy_142zi5o2thkp5" data-item-class="Curve Stroke Part Indexed ColorFillBlack" data-item-index="6" data-renderer-id="0" transform="translate(278, 350)"><g id="6.line_sy_142zi5o2thkp5-stroke" fill="none" stroke-linecap="round" stroke-linejoin="round" stroke-miterlimit="4" stroke="#FD6A65" stroke-width="2"><g><path d="M 272.7 11.52002L 130 178.00002L 10 178.00002"></path><path d="M 273.7 20.32002L 273 11.12002L 263.9 11.82002" stroke-dasharray="none"></path></g></g></g><g id="g-root-5.line_sy_zn60182thlhe-stroke" data-item-order="999876467" data-item-id="5.line_sy_zn60182thlhe" data-item-class="Curve Stroke Part Indexed ColorFillBlack" data-item-index="5" data-renderer-id="0" transform="translate(278, 336)"><g id="5.line_sy_zn60182thlhe-stroke" fill="none" stroke-linecap="round" stroke-linejoin="round" stroke-miterlimit="4" stroke="#F99539" stroke-width="2"><g><path d="M 257.41 11.209961L 130 107.999961L 10 107.999961"></path><path d="M 256.6 20.009961L 257.8 10.909961L 248.7 9.709961" stroke-dasharray="none"></path></g></g></g><g id="g-root-4.line_sy_zn60182thlhf-stroke" data-item-order="999876473" data-item-id="4.line_sy_zn60182thlhf" data-item-class="Curve Stroke Part Indexed ColorFillBlack" data-item-index="4" data-renderer-id="0" transform="translate(278, 318)"><g id="4.line_sy_zn60182thlhf-stroke" fill="none" stroke-linecap="round" stroke-linejoin="round" stroke-miterlimit="4" stroke="#FFE60A" stroke-width="2"><g><path d="M 250.07 10.51001L 130 42.00001L 10 42.00001"></path><path d="M 245.9 18.31001L 250.5 10.41001L 242.6 5.71001" stroke-dasharray="none"></path></g></g></g><g id="g-root-3.line_sy_qs5gvg2thj4c-stroke" data-item-order="999876479" data-item-id="3.line_sy_qs5gvg2thj4c" data-item-class="Curve Stroke Part Indexed ColorFillBlack" data-item-index="3" data-renderer-id="0" transform="translate(278.109375, 266)"><g id="3.line_sy_qs5gvg2thj4c-stroke" fill="none" stroke-linecap="round" stroke-linejoin="round" stroke-miterlimit="4" stroke="#1AC6FF" stroke-width="2"><g><path d="M 249.96061 41.49L 129.89061 10L 10.00061 10"></path><path d="M 242.50061 46.3L 250.40061 41.6L 245.80061 33.7" stroke-dasharray="none"></path></g></g></g><g id="g-root-2.line_sy_qs5gvg2thj4d-stroke" data-item-order="999876485" data-item-id="2.line_sy_qs5gvg2thj4d" data-item-class="Curve Stroke Part Indexed ColorFillBlack" data-item-index="2" data-renderer-id="0" transform="translate(278, 182)"><g id="2.line_sy_qs5gvg2thj4d-stroke" fill="none" stroke-linecap="round" stroke-linejoin="round" stroke-miterlimit="4" stroke="#A8DD38" stroke-width="2"><g><path d="M 257.41 106.79L 130 10L 10 10"></path><path d="M 248.7 108.3L 257.8 107.1L 256.6 98" stroke-dasharray="none"></path></g></g></g><g id="g-root-1.line_sy_qs5gvg2thj4e-stroke" data-item-order="999876491" data-item-id="1.line_sy_qs5gvg2thj4e" data-item-class="Curve Stroke Part Indexed Indexed_1 ColorFillBlack" data-item-index="1" data-renderer-id="0" transform="translate(278, 98)"><g id="1.line_sy_qs5gvg2thj4e-stroke" fill="none" stroke-linecap="round" stroke-linejoin="round" stroke-miterlimit="4" stroke="#44E095" stroke-width="2"><g><path d="M 272.7 176.48L 130 10L 10 10"></path><path d="M 263.9 176.2L 273 176.9L 273.7 167.7" stroke-dasharray="none"></path></g></g></g><g id="g-root-tx_onlineau_1lymu982tolcc-stroke" data-item-order="1000000000" data-item-id="tx_onlineau_1lymu982tolcc" data-item-class="Label Stroke Title ColorStrokeGray" data-item-index="none" data-renderer-id="0" transform="translate(266, 2)"></g><g id="g-root-tx_bionicsa_1uu9ui42tokjn-stroke" data-item-order="1000000000" data-item-id="tx_bionicsa_1uu9ui42tokjn" data-item-class="Label Stroke Indexed Indexed_1 ColorStrokeGray" data-item-index="1" data-renderer-id="0" transform="translate(2, 86)"></g><g id="g-root-1_vagvcc2tombw-stroke" data-item-order="1000000000" data-item-id="1_vagvcc2tombw" data-item-class="Icon Stroke Indexed Indexed_1" data-item-index="1" data-renderer-id="0" transform="translate(218, 74)"><g id="1_vagvcc2tombw-stroke" fill="none" stroke-linecap="round" stroke-linejoin="round" stroke-miterlimit="4" stroke="#44E095" stroke-width="2"><g><path d="M 21 45L 21 48C 21 48.552284 20.552284 49 20 49L 16 49C 15.447716 49 15 48.552284 15 48L 15 45M 53 45L 53 48C 53 48.552284 52.552284 49 52 49L 48 49C 47.447716 49 47 48.552284 47 48L 47 45M 54 45C 54.552284 45 55 44.552284 55 44L 55 37.414001C 54.999943 37.149296 54.894939 36.895409 54.708 36.708L 49 31L 19 31L 13.292 36.708C 13.105062 36.895409 13.000056 37.149296 13 37.414001L 13 44C 13 44.552284 13.447716 45 14 45ZM 49 31L 45.228001 19.684C 45.092045 19.275806 44.710239 19.000328 44.279999 19L 23.720001 19C 23.289761 19.000328 22.907955 19.275806 22.771999 19.684L 19 31M 19 31L 14 31C 13.447716 31 13 30.552284 13 30L 13 28C 13 27.447716 13.447716 27 14 27L 20.334 27M 47.666 27L 54 27C 54.552284 27 55 27.447716 55 28L 55 30C 55 30.552284 54.552284 31 54 31L 49 31M 13.092 37L 20 37C 20.552284 37 21 37.447716 21 38L 21 40C 21 40.552284 20.552284 41 20 41L 13 41M 55 41L 48 41C 47.447716 41 47 40.552284 47 40L 47 38C 47 37.447716 47.447716 37 48 37L 54.908001 37"></path></g></g></g><g id="g-root-tx_lkqcom_8zang2tojyi-stroke" data-item-order="1000000000" data-item-id="tx_lkqcom_8zang2tojyi" data-item-class="Label Stroke Indexed ColorStrokeGray" data-item-index="2" data-renderer-id="0" transform="translate(110, 170)"></g><g id="g-root-3_147zauk2tn6di-stroke" data-item-order="1000000000" data-item-id="3_147zauk2tn6di" data-item-class="Icon Stroke Indexed" data-item-index="2" data-renderer-id="0" transform="translate(218, 158)"><g id="3_147zauk2tn6di-stroke" fill="none" stroke-linecap="round" stroke-linejoin="round" stroke-miterlimit="4" stroke="#A8DD38" stroke-width="2"><g><path d="M 14 22L 14 49M 54 22L 54 49M 21 43L 34 43L 34 43L 34 57L 34 57L 21 57C 20.447716 57 20 56.552284 20 56L 20 44C 20 43.447716 20.447716 43 21 43ZM 34 43L 47 43C 47.552284 43 48 43.447716 48 44L 48 56C 48 56.552284 47.552284 57 47 57L 34 57L 34 57L 34 43L 34 43ZM 28 29L 40 29C 40.552284 29 41 29.447716 41 30L 41 43L 41 43L 27 43L 27 43L 27 30C 27 29.447716 27.447716 29 28 29ZM 31 29L 37 29L 37 29L 37 34C 37 34.552284 36.552284 35 36 35L 32 35C 31.447716 35 31 34.552284 31 34L 31 29L 31 29ZM 24 43L 30 43L 30 43L 30 48C 30 48.552284 29.552284 49 29 49L 25 49C 24.447716 49 24 48.552284 24 48L 24 43L 24 43ZM 38 43L 44 43L 44 43L 44 48C 44 48.552284 43.552284 49 43 49L 39 49C 38.447716 49 38 48.552284 38 48L 38 43L 38 43ZM 55 22C 55.552284 22 56 21.552284 56 21L 56 18.720001C 55.996834 18.293766 55.723839 17.916388 55.32 17.780001L 34.599998 11.1C 34.212349 10.959426 33.787651 10.959426 33.400002 11.1L 12.7 17.780001C 12.281256 17.91168 11.997342 18.301048 12 18.74L 12 21C 12 21.552284 12.447716 22 13 22Z"></path></g></g></g><g id="g-root-tx_carpartc_93ztt82tombl-stroke" data-item-order="1000000000" data-item-id="tx_carpartc_93ztt82tombl" data-item-class="Label Stroke Indexed ColorStrokeGray" data-item-index="3" data-renderer-id="0" transform="translate(74, 254)"></g><g id="g-root-13_1ltn1kc2tlssh-stroke" data-item-order="1000000000" data-item-id="13_1ltn1kc2tlssh" data-item-class="Icon Stroke Indexed" data-item-index="3" data-renderer-id="0" transform="translate(218, 242)"><g id="13_1ltn1kc2tlssh-stroke" fill="none" stroke-linecap="round" stroke-linejoin="round" stroke-miterlimit="4" stroke="#1AC6FF" stroke-width="2"><g><path d="M 15.48 49.259998C 15.48 51.060452 16.939552 52.52 18.740002 52.52C 20.540447 52.52 22 51.060452 22 49.260002C 22 47.459553 20.540447 46 18.740002 46C 16.939552 46 15.48 47.459553 15.48 49.260002M 11.11 49.259998C 11.109718 53.474133 14.525868 56.890511 18.74 56.890511C 22.954132 56.890511 26.370281 53.474133 26.370001 49.260002C 26.370281 45.045868 22.954132 41.62949 18.74 41.62949C 14.525868 41.62949 11.109718 45.045868 11.11 49.260002M 46 49.259998C 46 51.060452 47.459553 52.52 49.260002 52.52C 51.060452 52.52 52.52 51.060452 52.52 49.260002C 52.52 47.459553 51.060452 46 49.260002 46C 47.459553 46 46 47.459553 46 49.260002M 31.358 49.259998C 31.358 50.719135 32.540863 51.902 34 51.902C 35.459137 51.902 36.641998 50.719135 36.641998 49.260002C 36.641998 47.800865 35.459137 46.618 34 46.618C 32.540863 46.618 31.358 47.800865 31.358 49.260002M 41.629997 49.259998C 41.629719 53.474133 45.045868 56.890511 49.260002 56.890511C 53.474133 56.890511 56.890282 53.474133 56.889999 49.260002C 56.890282 45.045868 53.474133 41.62949 49.260002 41.62949C 45.045868 41.62949 41.629719 45.045868 41.630001 49.260002M 23.318001 21.792C 23.317606 27.691784 28.100216 32.474716 34 32.474716C 39.899784 32.474716 44.682396 27.691784 44.681999 21.792C 44.682396 15.892216 39.899784 11.109285 34 11.109285C 28.100216 11.109285 23.317606 15.892216 23.318001 21.792M 30.948 21.792C 30.948 23.477573 32.31443 24.844002 34 24.844002C 35.685574 24.844002 37.052002 23.477573 37.052002 21.792C 37.052002 20.106426 35.685574 18.740002 34 18.740002C 32.31443 18.740002 30.948 20.106426 30.948 21.792M 34 17.214001L 34 18.74M 30.035999 19.504L 31.358 20.265999M 30.035999 24.082001L 31.358 23.318001M 34 26.370001L 34 24.844M 37.964001 24.082001L 36.641998 23.318001M 37.964001 19.504L 36.641998 20.265999M 24.136 54.653999L 31.92 47.574001M 43.863998 54.653999L 36.080002 47.574001M 11.84 46L 24.029999 17.976M 56.16 46L 43.970001 17.976"></path></g></g></g><g id="g-root-5_1unemjw2tizv2-stroke" data-item-order="1000000000" data-item-id="5_1unemjw2tizv2" data-item-class="Icon Stroke ColorStrokeGray" data-item-index="none" data-renderer-id="0" transform="translate(542, 284)"><g id="5_1unemjw2tizv2-stroke" fill="none" stroke-linecap="round" stroke-linejoin="round" stroke-miterlimit="4" stroke="#A3A3A3" stroke-width="2"><g><path d="M 29.799999 23.692001L 27.142 25.218L 24.098 24.018L 20.546 26.056L 20.046 29.288L 17.388 30.813999L 11.282 20.181999C 10.724598 19.204746 11.062654 17.960735 12.038 17.4L 20.897999 12.312C 21.368889 12.038937 21.929245 11.964976 22.454853 12.106516C 22.980465 12.248055 23.427908 12.593401 23.698 13.066ZM 20.296 27.672001L 27.068001 39.466M 25.612 24.619999L 32.295998 36.260002M 48.577999 38.426003L 46.237999 36.444L 46.332001 33.174L 43.214001 30.532L 40 31.16L 37.66 29.177999L 45.599998 19.824001C 46.329727 18.963303 47.618881 18.856768 48.48 19.585999L 56.279999 26.186001C 56.693802 26.53614 56.951408 27.036442 56.996052 27.57666C 57.040695 28.11688 56.868713 28.652683 56.518002 29.066ZM 41.608002 30.846001L 36.246002 37.174M 46.285999 34.809998L 42.046001 39.812M 31.472 45.549999C 31.472 46.82909 32.508911 47.866001 33.788002 47.866001C 35.067093 47.866001 36.104 46.82909 36.104 45.549999C 36.104 44.270908 35.067093 43.234001 33.788002 43.234001C 32.508911 43.234001 31.472 44.270908 31.472 45.549999M 35.753998 36.599998L 36.436001 38.841999C 36.669144 39.614788 37.461288 40.074684 38.248001 39.893997L 40.52 39.365997C 41.404137 39.166527 42.315048 39.566597 42.766357 40.352604C 43.217667 41.138611 43.103981 42.126987 42.486 42.790001L 40.896 44.504002C 40.348335 45.097649 40.348335 46.012348 40.895996 46.605999L 42.486 48.321999C 43.103981 48.985012 43.217667 49.973392 42.766357 50.759399C 42.315048 51.545403 41.404137 51.945477 40.52 51.746002L 38.248001 51.217999C 37.461288 51.037312 36.669144 51.497211 36.435997 52.27L 35.753998 54.512001C 35.492943 55.38018 34.693581 55.974537 33.786999 55.974537C 32.880417 55.974537 32.081055 55.38018 31.819998 54.511997L 31.138 52.27C 30.90572 51.497494 30.114202 51.037453 29.327999 51.217999L 27.054001 51.745998C 26.169865 51.945477 25.258953 51.545403 24.807644 50.759399C 24.356333 49.973392 24.47002 48.985012 25.088001 48.322002L 26.688 46.605999C 27.237593 46.013107 27.237593 45.096893 26.688002 44.504002L 25.088001 42.790001C 24.47002 42.126987 24.356333 41.138611 24.807644 40.352604C 25.258953 39.566597 26.169865 39.166527 27.054001 39.366001L 29.327999 39.893997C 30.114202 40.074543 30.90572 39.614502 31.137999 38.841995L 31.82 36.599998C 32.081055 35.731819 32.880417 35.137459 33.786999 35.137459C 34.693581 35.137459 35.492943 35.731819 35.753998 36.599998ZM 18.757999 20.653999C 18.757999 21.078156 19.101845 21.422001 19.526001 21.422001C 19.950155 21.422001 20.294001 21.078156 20.294001 20.653999C 20.294001 20.229847 19.950155 19.886002 19.526001 19.886002C 19.101845 19.886002 18.757999 20.229847 18.757999 20.653999M 47.327999 27.993999C 47.328003 28.418156 47.671848 28.762001 48.096001 28.762001C 48.520157 28.762001 48.864002 28.418156 48.864002 27.994001C 48.864002 27.569845 48.520157 27.226 48.096001 27.226C 47.671848 27.226 47.328003 27.569845 47.328003 27.994001"></path></g></g></g><g id="g-root-tx_reliable_qv9ub02tojyd-stroke" data-item-order="1000000000" data-item-id="tx_reliable_qv9ub02tojyd" data-item-class="Label Stroke ColorStrokeGray" data-item-index="none" data-renderer-id="0" transform="translate(602, 284)"></g><g id="g-root-tx_partsgee_djtbxo2toljc-stroke" data-item-order="1000000000" data-item-id="tx_partsgee_djtbxo2toljc" data-item-class="Label Stroke Indexed ColorStrokeGray" data-item-index="4" data-renderer-id="0" transform="translate(62, 338)"></g><g id="g-root-70_8vvnos2tlslj-stroke" data-item-order="1000000000" data-item-id="70_8vvnos2tlslj" data-item-class="Icon Stroke Indexed" data-item-index="4" data-renderer-id="0" transform="translate(218, 326)"><g id="70_8vvnos2tlslj-stroke" fill="none" stroke-linecap="round" stroke-linejoin="round" stroke-miterlimit="4" stroke="#FFE60A" stroke-width="2"><g><path d="M 11 57L 57 11M 13 20C 13 23.865993 16.134007 27 20 27C 23.865993 27 27 23.865993 27 20C 27 16.134007 23.865993 13 20 13C 16.134007 13 13 16.134007 13 20ZM 41 48C 41 51.865993 44.13401 55 48 55C 51.865993 55 55 51.865993 55 48C 55 44.13401 51.865993 41 48 41C 44.13401 41 41 44.13401 41 48ZM 57 24L 57 11L 44 11"></path></g></g></g><g id="g-root-tx_rockauto_djtbxo2toljb-stroke" data-item-order="1000000000" data-item-id="tx_rockauto_djtbxo2toljb" data-item-class="Label Stroke Indexed ColorStrokeGray" data-item-index="5" data-renderer-id="0" transform="translate(62, 422)"></g><g id="g-root-add_1lvigto2tkdmz-stroke" data-item-order="1000000000" data-item-id="add_1lvigto2tkdmz" data-item-class="Icon Stroke Indexed" data-item-index="5" data-renderer-id="0" transform="translate(218, 410)"><g id="add_1lvigto2tkdmz-stroke" fill="none" stroke-linecap="round" stroke-linejoin="round" stroke-miterlimit="4" stroke="#F99539" stroke-width="2"><g><path d="M 35 22C 35 28.075132 39.92487 33 46 33C 52.075134 33 57 28.075132 57 22C 57 15.924868 52.075134 11 46 11C 39.92487 11 35 15.924868 35 22M 46 16.5L 46 27.5M 40.5 22L 51.5 22M 29 33L 17 33C 13.686292 33 11 35.686295 11 39L 11 51C 11 52.104568 11.895431 53 13 53L 15 53M 19 53C 19 55.209141 20.790861 57 23 57C 25.209139 57 27 55.209141 27 53C 27 50.790859 25.209139 49 23 49C 20.790861 49 19 50.790859 19 53M 45 53C 45 55.209141 46.790859 57 49 57C 51.209141 57 53 55.209141 53 53C 53 50.790859 51.209141 49 49 49C 46.790859 49 45 50.790859 45 53M 29 47.998001L 29 45L 57 45L 57 49M 11 43L 21 43C 22.104568 43 23 42.104568 23 41L 23 33M 31 53L 40 53M 11 48L 15 48M 57 33.5L 57 45L 29 45L 29 29C 29 27.89543 29.89543 27 31 27"></path></g></g></g><g id="g-root-tx_autozone_hzmu242tokr2-stroke" data-item-order="1000000000" data-item-id="tx_autozone_hzmu242tokr2" data-item-class="Label Stroke Indexed ColorStrokeGray" data-item-index="6" data-renderer-id="0" transform="translate(62, 506)"></g><g id="g-root-shop_1cuvnvw2tkf0s-stroke" data-item-order="1000000000" data-item-id="shop_1cuvnvw2tkf0s" data-item-class="Icon Stroke Indexed" data-item-index="6" data-renderer-id="0" transform="translate(218, 494)"><g id="shop_1cuvnvw2tkf0s-stroke" fill="none" stroke-linecap="round" stroke-linejoin="round" stroke-miterlimit="4" stroke="#FD6A65" stroke-width="2"><g><path d="M 53 29.676001L 53 52C 53 53.104568 52.104568 54 51 54L 17 54C 15.895431 54 15 53.104568 15 52L 15 29.676001M 19 36L 35 36L 35 48L 19 48ZM 49 54L 39 54L 39 37C 39 36.447716 39.447716 36 40 36L 48 36C 48.552284 36 49 36.447716 49 37ZM 53.551998 15.106C 53.213474 14.428541 52.521332 14.000404 51.764 14L 16.236 14C 15.478668 14.000404 14.786528 14.428541 14.448 15.106L 11 22L 57 22ZM 57 24C 57.083736 26.411758 55.645897 28.616974 53.405285 29.513218C 51.164677 30.409462 48.602646 29.804195 47 28C 45.686481 30.221279 43.392712 31.683304 40.824547 31.936169C 38.256378 32.189034 35.721516 31.202444 34 29.279999C 32.278481 31.202444 29.743618 32.189034 27.175453 31.936169C 24.607288 31.683304 22.313519 30.221279 21 28C 19.396399 29.801754 16.835665 30.405405 14.596159 29.509604C 12.356651 28.6138 10.918639 26.41065 11 24L 11 22L 57 22ZM 21 28L 21 22L 23 14M 34 29.290001L 34 22L 34 14M 47 28L 47 22L 45 14"></path></g></g></g></g></g></svg>