<?xml version="1.0" encoding="utf-8" standalone="yes"?>
<!DOCTYPE svg PUBLIC "-//W3C//DTD SVG 1.1//EN" "http://www.w3.org/Graphics/SVG/1.1/DTD/svg11.dtd">
<svg width="794" height="530" viewBox="0 0 794 530" style="fill:none;stroke:none;fill-rule:evenodd;clip-rule:evenodd;stroke-linecap:round;stroke-linejoin:round;stroke-miterlimit:1.5;" version="1.1" xmlns="http://www.w3.org/2000/svg" xmlns:xlink="http://www.w3.org/1999/xlink"><style id="fontImports">@import url("https://fonts.googleapis.com/css2?family=Roboto:wght@400;700&amp;display=block");</style><g id="items" style="isolation: isolate"><g id="blend" style="mix-blend-mode:normal"><g id="g-root-ro_1lwsdrw1pf0uf-fill" data-item-order="999981568" data-item-id="ro_1lwsdrw1pf0uf" data-item-class="Shape Stroke Fill" data-item-index="none" data-renderer-id="0" transform="translate(203, 283)"><g id="ro_1lwsdrw1pf0uf-fill" stroke="none" fill="#224754"><g><path d="M 22 10L 190 10C 190 10 202 10 202 22L 202 94C 202 94 202 106 190 106L 22 106C 22 106 10 106 10 94L 10 22C 10 22 10 10 22 10"></path></g></g></g><g id="g-root-ro_1449f3w1pgefj-fill" data-item-order="999981568" data-item-id="ro_1449f3w1pgefj" data-item-class="Shape Stroke Fill" data-item-index="none" data-renderer-id="0" transform="translate(415, 283)"><g id="ro_1449f3w1pgefj-fill" stroke="none" fill="#224754"><g><path d="M 22 10L 190 10C 190 10 202 10 202 22L 202 94C 202 94 202 106 190 106L 22 106C 22 106 10 106 10 94L 10 22C 10 22 10 10 22 10"></path></g></g></g><g id="g-root-ro_1hd814s1p7ym8-fill" data-item-order="999982720" data-item-id="ro_1hd814s1p7ym8" data-item-class="Shape Stroke Fill" data-item-index="none" data-renderer-id="0" transform="translate(315, 3)"><g id="ro_1hd814s1p7ym8-fill" stroke="none" fill="#505050"><g><path d="M 22 10L 178 10C 178 10 190 10 190 22L 190 94C 190 94 190 106 178 106L 22 106C 22 106 10 106 10 94L 10 22C 10 22 10 10 22 10"></path></g></g></g><g id="g-root-ro_qs6fng1pdjwo-fill" data-item-order="999982720" data-item-id="ro_qs6fng1pdjwo" data-item-class="Shape Stroke Fill" data-item-index="none" data-renderer-id="0" transform="translate(3, 283)"><g id="ro_qs6fng1pdjwo-fill" stroke="none" fill="#224754"><g><path d="M 22 10L 178 10C 178 10 190 10 190 22L 190 94C 190 94 190 106 178 106L 22 106C 22 106 10 106 10 94L 10 22C 10 22 10 10 22 10"></path></g></g></g><g id="g-root-ro_1uooji41phtl2-fill" data-item-order="999986176" data-item-id="ro_1uooji41phtl2" data-item-class="Shape Stroke Fill" data-item-index="none" data-renderer-id="0" transform="translate(627, 283)"><g id="ro_1uooji41phtl2-fill" stroke="none" fill="#224754"><g><path d="M 22 10L 142 10C 142 10 154 10 154 22L 154 94C 154 94 154 106 142 106L 22 106C 22 106 10 106 10 94L 10 22C 10 22 10 10 22 10"></path></g></g></g><g id="g-root-ro_4l2x181pj66i-fill" data-item-order="999987040" data-item-id="ro_4l2x181pj66i" data-item-class="Shape Stroke Fill" data-item-index="none" data-renderer-id="0" transform="translate(315, 435)"><g id="ro_4l2x181pj66i-fill" stroke="none" fill="#224754"><g><path d="M 22 10L 178 10C 178 10 190 10 190 22L 190 70C 190 70 190 82 178 82L 22 82C 22 82 10 82 10 70L 10 22C 10 22 10 10 22 10"></path></g></g></g><g id="g-root-ro_dfgz3w1parr6-fill" data-item-order="999987904" data-item-id="ro_dfgz3w1parr6" data-item-class="Shape Stroke Fill" data-item-index="none" data-renderer-id="0" transform="translate(321, 155)"><g id="ro_dfgz3w1parr6-fill" stroke="none" fill="#224754"><g><path d="M 22 10L 166 10C 166 10 178 10 178 22L 178 70C 178 70 178 82 166 82L 22 82C 22 82 10 82 10 70L 10 22C 10 22 10 10 22 10"></path></g></g></g><g id="g-root-tx_needforc_1q8v1do1p7x1q-fill" data-item-order="1000000000" data-item-id="tx_needforc_1q8v1do1p7x1q" data-item-class="Label Stroke" data-item-index="none" data-renderer-id="0" transform="translate(363, 15)"><g id="tx_needforc_1q8v1do1p7x1q-fill" stroke="none" fill="#A3A3A3"><g><text style="font: 20px Roboto, sans-serif; white-space: pre;" font-size="20px" font-family="Roboto, sans-serif"><tspan x="12" y="34" dominant-baseline="ideographic">Need for </tspan><tspan x="12" y="58" dominant-baseline="ideographic">Classic Car </tspan><tspan x="12" y="82" dominant-baseline="ideographic">Parts</tspan></text></g></g></g><g id="g-root-plug_1lt1j981p7xtz-fill" data-item-order="1000000000" data-item-id="plug_1lt1j981p7xtz" data-item-class="Icon Stroke" data-item-index="none" data-renderer-id="0" transform="translate(327, 36)"></g><g id="g-root-1_dg3g701pj8jl-fill" data-item-order="1000000000" data-item-id="1_dg3g701pj8jl" data-item-class="Icon Stroke" data-item-index="none" data-renderer-id="0" transform="translate(327, 456)"></g><g id="g-root-hold_hvah8c1paqyx-fill" data-item-order="1000000000" data-item-id="hold_hvah8c1paqyx" data-item-class="Icon Stroke" data-item-index="none" data-renderer-id="0" transform="translate(333, 176)"></g><g id="g-root-tx_buyuseda_qqxhh81paq68-fill" data-item-order="1000000000" data-item-id="tx_buyuseda_qqxhh81paq68" data-item-class="Label Stroke" data-item-index="none" data-renderer-id="0" transform="translate(369, 167)"><g id="tx_buyuseda_qqxhh81paq68-fill" stroke="none" fill="#1AC6FF"><g><text style="font: 20px Roboto, sans-serif; white-space: pre;" font-size="20px" font-family="Roboto, sans-serif"><tspan x="12" y="34" dominant-baseline="ideographic">Buy Used </tspan><tspan x="12" y="58" dominant-baseline="ideographic">Auto Parts</tspan></text></g></g></g><g id="g-root-tx_bionicsa_hvwybg1pj7rc-fill" data-item-order="1000000000" data-item-id="tx_bionicsa_hvwybg1pj7rc" data-item-class="Label Stroke" data-item-index="none" data-renderer-id="0" transform="translate(363, 447)"><g id="tx_bionicsa_hvwybg1pj7rc-fill" stroke="none" fill="#1AC6FF"><g><text style="font: 20px Roboto, sans-serif; white-space: pre;" font-size="20px" font-family="Roboto, sans-serif"><tspan x="12" y="34" dominant-baseline="ideographic">BionicsAuto</tspan><tspan x="12" y="58" dominant-baseline="ideographic">Parts.com</tspan></text></g></g></g><g id="g-root-tx_reliable_8z0zwc1phs78-fill" data-item-order="1000000000" data-item-id="tx_reliable_8z0zwc1phs78" data-item-class="Label Stroke" data-item-index="none" data-renderer-id="0" transform="translate(675, 307)"><g id="tx_reliable_8z0zwc1phs78-fill" stroke="none" fill="#1AC6FF"><g><text style="font: 20px Roboto, sans-serif; white-space: pre;" font-size="20px" font-family="Roboto, sans-serif"><tspan x="12" y="34" dominant-baseline="ideographic">Reliable </tspan><tspan x="12" y="58" dominant-baseline="ideographic">Quality</tspan></text></g></g></g><g id="g-root-shop_3dzng1phszx-fill" data-item-order="1000000000" data-item-id="shop_3dzng1phszx" data-item-class="Icon Stroke" data-item-index="none" data-renderer-id="0" transform="translate(639, 316)"></g><g id="g-root-tx_hardtofi_40gqk1pdkwe-fill" data-item-order="1000000000" data-item-id="tx_hardtofi_40gqk1pdkwe" data-item-class="Label Stroke" data-item-index="none" data-renderer-id="0" transform="translate(51, 307)"><g id="tx_hardtofi_40gqk1pdkwe-fill" stroke="none" fill="#1AC6FF"><g><text style="font: 20px Roboto, sans-serif; white-space: pre;" font-size="20px" font-family="Roboto, sans-serif"><tspan x="12" y="34" dominant-baseline="ideographic">Hard-to-Find </tspan><tspan x="12" y="58" dominant-baseline="ideographic">Parts</tspan></text></g></g></g><g id="g-root-decr_1qclvwc1pf026-fill" data-item-order="1000000000" data-item-id="decr_1qclvwc1pf026" data-item-class="Icon Stroke" data-item-index="none" data-renderer-id="0" transform="translate(215, 316)"></g><g id="g-root-tx_costeffe_4mycak1peyod-fill" data-item-order="1000000000" data-item-id="tx_costeffe_4mycak1peyod" data-item-class="Label Stroke" data-item-index="none" data-renderer-id="0" transform="translate(251, 307)"><g id="tx_costeffe_4mycak1peyod-fill" stroke="none" fill="#1AC6FF"><g><text style="font: 20px Roboto, sans-serif; white-space: pre;" font-size="20px" font-family="Roboto, sans-serif"><tspan x="12" y="34" dominant-baseline="ideographic">Cost-</tspan><tspan x="12" y="58" dominant-baseline="ideographic">Effectiveness</tspan></text></g></g></g><g id="g-root-tx_preserva_1qaqgn01pgf7p-fill" data-item-order="1000000000" data-item-id="tx_preserva_1qaqgn01pgf7p" data-item-class="Label Stroke" data-item-index="none" data-renderer-id="0" transform="translate(463, 295)"><g id="tx_preserva_1qaqgn01pgf7p-fill" stroke="none" fill="#1AC6FF"><g><text style="font: 20px Roboto, sans-serif; white-space: pre;" font-size="20px" font-family="Roboto, sans-serif"><tspan x="12" y="34" dominant-baseline="ideographic">Preservation </tspan><tspan x="12" y="58" dominant-baseline="ideographic">of </tspan><tspan x="12" y="82" dominant-baseline="ideographic">Authenticity</tspan></text></g></g></g><g id="g-root-car_1czwfcs1pgdmu-fill" data-item-order="1000000000" data-item-id="car_1czwfcs1pgdmu" data-item-class="Icon Stroke" data-item-index="none" data-renderer-id="0" transform="translate(427, 316)"></g><g id="g-root-cu_1449f3w1pj7k5-fill" data-item-order="1000000002" data-item-id="cu_1449f3w1pj7k5" data-item-class="Curve Stroke" data-item-index="none" data-renderer-id="0" transform="translate(405, 227)"></g><g id="g-root-cu_1449f3w1pj7k7-fill" data-item-order="1000000002" data-item-id="cu_1449f3w1pj7k7" data-item-class="Curve Stroke" data-item-index="none" data-renderer-id="0" transform="translate(93, 379)"></g><g id="g-root-cu_zofwzg1pj8ci-fill" data-item-order="1000000002" data-item-id="cu_zofwzg1pj8ci" data-item-class="Curve Stroke" data-item-index="none" data-renderer-id="0" transform="translate(299, 379)"></g><g id="g-root-cu_zofwzg1pj8ck-fill" data-item-order="1000000002" data-item-id="cu_zofwzg1pj8ck" data-item-class="Curve Stroke" data-item-index="none" data-renderer-id="0" transform="translate(405, 379)"></g><g id="g-root-cu_zofwzg1pj8cm-fill" data-item-order="1000000002" data-item-id="cu_zofwzg1pj8cm" data-item-class="Curve Stroke" data-item-index="none" data-renderer-id="0" transform="translate(405, 379)"></g><g id="g-root-cu_1449f3w1pj7k3-fill" data-item-order="1000000002" data-item-id="cu_1449f3w1pj7k3" data-item-class="Curve Stroke" data-item-index="none" data-renderer-id="0" transform="translate(405, 227)"></g><g id="g-root-cu_18k2x8c1pj6rq-fill" data-item-order="1000000002" data-item-id="cu_18k2x8c1pj6rq" data-item-class="Curve Stroke" data-item-index="none" data-renderer-id="0" transform="translate(93, 227)"></g><g id="g-root-cu_18k2x8c1pj6rn-fill" data-item-order="1000000002" data-item-id="cu_18k2x8c1pj6rn" data-item-class="Curve Stroke" data-item-index="none" data-renderer-id="0" transform="translate(405, 99)"></g><g id="g-root-cu_1449f3w1pj7k1-fill" data-item-order="1000000002" data-item-id="cu_1449f3w1pj7k1" data-item-class="Curve Stroke" data-item-index="none" data-renderer-id="0" transform="translate(299, 227)"></g><g id="g-root-ro_1lwsdrw1pf0uf-stroke" data-item-order="999981568" data-item-id="ro_1lwsdrw1pf0uf" data-item-class="Shape Stroke Fill" data-item-index="none" data-renderer-id="0" transform="translate(203, 283)"><g id="ro_1lwsdrw1pf0uf-stroke" fill="none" stroke-linecap="round" stroke-linejoin="round" stroke-miterlimit="4" stroke="#1AC6FF" stroke-width="2"><g><path d="M 22 10L 190 10C 190 10 202 10 202 22L 202 94C 202 94 202 106 190 106L 22 106C 22 106 10 106 10 94L 10 22C 10 22 10 10 22 10"></path></g></g></g><g id="g-root-ro_1449f3w1pgefj-stroke" data-item-order="999981568" data-item-id="ro_1449f3w1pgefj" data-item-class="Shape Stroke Fill" data-item-index="none" data-renderer-id="0" transform="translate(415, 283)"><g id="ro_1449f3w1pgefj-stroke" fill="none" stroke-linecap="round" stroke-linejoin="round" stroke-miterlimit="4" stroke="#1AC6FF" stroke-width="2"><g><path d="M 22 10L 190 10C 190 10 202 10 202 22L 202 94C 202 94 202 106 190 106L 22 106C 22 106 10 106 10 94L 10 22C 10 22 10 10 22 10"></path></g></g></g><g id="g-root-ro_1hd814s1p7ym8-stroke" data-item-order="999982720" data-item-id="ro_1hd814s1p7ym8" data-item-class="Shape Stroke Fill" data-item-index="none" data-renderer-id="0" transform="translate(315, 3)"><g id="ro_1hd814s1p7ym8-stroke" fill="none" stroke-linecap="round" stroke-linejoin="round" stroke-miterlimit="4" stroke="#A3A3A3" stroke-width="2"><g><path d="M 22 10L 178 10C 178 10 190 10 190 22L 190 94C 190 94 190 106 178 106L 22 106C 22 106 10 106 10 94L 10 22C 10 22 10 10 22 10"></path></g></g></g><g id="g-root-ro_qs6fng1pdjwo-stroke" data-item-order="999982720" data-item-id="ro_qs6fng1pdjwo" data-item-class="Shape Stroke Fill" data-item-index="none" data-renderer-id="0" transform="translate(3, 283)"><g id="ro_qs6fng1pdjwo-stroke" fill="none" stroke-linecap="round" stroke-linejoin="round" stroke-miterlimit="4" stroke="#1AC6FF" stroke-width="2"><g><path d="M 22 10L 178 10C 178 10 190 10 190 22L 190 94C 190 94 190 106 178 106L 22 106C 22 106 10 106 10 94L 10 22C 10 22 10 10 22 10"></path></g></g></g><g id="g-root-ro_1uooji41phtl2-stroke" data-item-order="999986176" data-item-id="ro_1uooji41phtl2" data-item-class="Shape Stroke Fill" data-item-index="none" data-renderer-id="0" transform="translate(627, 283)"><g id="ro_1uooji41phtl2-stroke" fill="none" stroke-linecap="round" stroke-linejoin="round" stroke-miterlimit="4" stroke="#1AC6FF" stroke-width="2"><g><path d="M 22 10L 142 10C 142 10 154 10 154 22L 154 94C 154 94 154 106 142 106L 22 106C 22 106 10 106 10 94L 10 22C 10 22 10 10 22 10"></path></g></g></g><g id="g-root-ro_4l2x181pj66i-stroke" data-item-order="999987040" data-item-id="ro_4l2x181pj66i" data-item-class="Shape Stroke Fill" data-item-index="none" data-renderer-id="0" transform="translate(315, 435)"><g id="ro_4l2x181pj66i-stroke" fill="none" stroke-linecap="round" stroke-linejoin="round" stroke-miterlimit="4" stroke="#1AC6FF" stroke-width="2"><g><path d="M 22 10L 178 10C 178 10 190 10 190 22L 190 70C 190 70 190 82 178 82L 22 82C 22 82 10 82 10 70L 10 22C 10 22 10 10 22 10"></path></g></g></g><g id="g-root-ro_dfgz3w1parr6-stroke" data-item-order="999987904" data-item-id="ro_dfgz3w1parr6" data-item-class="Shape Stroke Fill" data-item-index="none" data-renderer-id="0" transform="translate(321, 155)"><g id="ro_dfgz3w1parr6-stroke" fill="none" stroke-linecap="round" stroke-linejoin="round" stroke-miterlimit="4" stroke="#1AC6FF" stroke-width="2"><g><path d="M 22 10L 166 10C 166 10 178 10 178 22L 178 70C 178 70 178 82 166 82L 22 82C 22 82 10 82 10 70L 10 22C 10 22 10 10 22 10"></path></g></g></g><g id="g-root-tx_needforc_1q8v1do1p7x1q-stroke" data-item-order="1000000000" data-item-id="tx_needforc_1q8v1do1p7x1q" data-item-class="Label Stroke" data-item-index="none" data-renderer-id="0" transform="translate(363, 15)"></g><g id="g-root-plug_1lt1j981p7xtz-stroke" data-item-order="1000000000" data-item-id="plug_1lt1j981p7xtz" data-item-class="Icon Stroke" data-item-index="none" data-renderer-id="0" transform="translate(327, 36)"><g id="plug_1lt1j981p7xtz-stroke" fill="none" stroke-linecap="round" stroke-linejoin="round" stroke-miterlimit="4" stroke="#A3A3A3" stroke-width="2"><g><path d="M 29.375 27.5L 20.625 27.5C 19.589466 27.5 18.75 26.660534 18.75 25.625L 18.75 25.625C 18.75 24.589466 19.589466 23.75 20.625 23.75L 29.375 23.75C 30.410536 23.75 31.25 24.589466 31.25 25.625L 31.25 25.625C 31.25 26.660534 30.410536 27.5 29.375 27.5ZM 27.5 27.5C 28.190357 27.5 28.75 28.059643 28.75 28.75L 28.75 28.75C 28.75 29.440357 28.190357 30 27.5 30L 22.5 30C 21.809643 30 21.25 29.440357 21.25 28.75L 21.25 28.75C 21.25 28.059643 21.809643 27.5 22.5 27.5M 27.5 30C 28.190357 30 28.75 30.559645 28.75 31.25L 28.75 31.25C 28.75 31.940355 28.190357 32.5 27.5 32.5L 22.5 32.5C 21.809643 32.5 21.25 31.940355 21.25 31.25L 21.25 31.25C 21.25 30.559645 21.809643 30 22.5 30M 27.5 32.5C 28.190357 32.5 28.75 33.059647 28.75 33.75L 28.75 33.75C 28.75 34.440353 28.190357 35 27.5 35L 22.5 35C 21.809643 35 21.25 34.440353 21.25 33.75L 21.25 33.75C 21.25 33.059647 21.809643 32.5 22.5 32.5M 22.5 23.75L 22.5 16.25L 23.75 13.75L 23.75 12.5C 23.75 11.809644 24.309643 11.25 25 11.25L 25 11.25C 25.690357 11.25 26.25 11.809644 26.25 12.5L 26.25 13.75L 27.5 16.25L 27.5 23.75M 26.25 35L 26.25 37.5C 26.25 38.190353 25.690357 38.75 25 38.75L 21.875 38.75"></path></g></g></g><g id="g-root-1_dg3g701pj8jl-stroke" data-item-order="1000000000" data-item-id="1_dg3g701pj8jl" data-item-class="Icon Stroke" data-item-index="none" data-renderer-id="0" transform="translate(327, 456)"><g id="1_dg3g701pj8jl-stroke" fill="none" stroke-linecap="round" stroke-linejoin="round" stroke-miterlimit="4" stroke="#1AC6FF" stroke-width="2"><g><path d="M 16.875 31.875L 16.875 33.75C 16.875 34.095177 16.595179 34.375 16.25 34.375L 13.75 34.375C 13.404822 34.375 13.125 34.095177 13.125 33.75L 13.125 31.875M 36.875 31.875L 36.875 33.75C 36.875 34.095177 36.595177 34.375 36.25 34.375L 33.75 34.375C 33.404823 34.375 33.125 34.095177 33.125 33.75L 33.125 31.875M 37.5 31.875C 37.845177 31.875 38.125 31.595177 38.125 31.25L 38.125 27.133749C 38.124966 26.968309 38.059338 26.809631 37.942501 26.692501L 34.375 23.125L 15.625 23.125L 12.0575 26.692501C 11.940663 26.809631 11.875035 26.968309 11.875 27.133749L 11.875 31.25C 11.875 31.595177 12.154822 31.875 12.5 31.875ZM 34.375 23.125L 32.017502 16.0525C 31.932528 15.797379 31.693899 15.625204 31.424999 15.625L 18.575001 15.625C 18.306101 15.625204 18.067472 15.797379 17.9825 16.0525L 15.625 23.125M 15.625 23.125L 12.5 23.125C 12.154822 23.125 11.875 22.845177 11.875 22.5L 11.875 21.25C 11.875 20.904823 12.154822 20.625 12.5 20.625L 16.45875 20.625M 33.541252 20.625L 37.5 20.625C 37.845177 20.625 38.125 20.904823 38.125 21.25L 38.125 22.5C 38.125 22.845177 37.845177 23.125 37.5 23.125L 34.375 23.125M 11.9325 26.875L 16.25 26.875C 16.595179 26.875 16.875 27.154823 16.875 27.5L 16.875 28.75C 16.875 29.095177 16.595179 29.375 16.25 29.375L 11.875 29.375M 38.125 29.375L 33.75 29.375C 33.404823 29.375 33.125 29.095177 33.125 28.75L 33.125 27.5C 33.125 27.154823 33.404823 26.875 33.75 26.875L 38.067501 26.875"></path></g></g></g><g id="g-root-hold_hvah8c1paqyx-stroke" data-item-order="1000000000" data-item-id="hold_hvah8c1paqyx" data-item-class="Icon Stroke" data-item-index="none" data-renderer-id="0" transform="translate(333, 176)"><g id="hold_hvah8c1paqyx-stroke" fill="none" stroke-linecap="round" stroke-linejoin="round" stroke-miterlimit="4" stroke="#1AC6FF" stroke-width="2"><g><path d="M 33.962502 12.6625L 32.262501 10.975C 31.784863 10.53803 31.052637 10.53803 30.574999 10.975L 25.487501 16.0625C 25.050529 16.540136 25.050529 17.272364 25.487501 17.75L 27.1875 19.450001C 27.416094 19.670395 27.719995 19.79553 28.0375 19.799999C 28.35066 19.792395 28.649551 19.667484 28.875 19.450001L 33.962502 14.3625C 34.407146 13.883059 34.407146 13.141941 33.962502 12.6625ZM 37.5625 28.3125C 39.759941 24.985689 39.31601 20.572498 36.5 17.75L 34 15.25C 33.887417 15.137027 33.734489 15.073526 33.574997 15.073526C 33.415508 15.073526 33.262581 15.137027 33.149998 15.25L 29.725 18.6C 29.612566 18.712822 29.549608 18.865721 29.549999 19.025C 29.551548 19.18022 29.614464 19.328518 29.725 19.4375L 32.662498 22.375C 34.127384 23.850576 35.082191 25.755808 35.387501 27.812502C 35.469223 28.295948 35.826035 28.686977 36.300003 28.8125C 36.782566 28.908871 37.276772 28.713146 37.5625 28.3125ZM 18.75 34.1875C 18.019415 34.910351 16.843086 34.910351 16.112501 34.1875L 14.5375 32.650002C 13.814651 31.919415 13.814651 30.743086 14.5375 30.012501C 14.883868 29.653477 15.363701 29.454302 15.8625 29.4625C 16.336458 29.468981 16.787514 29.667446 17.112499 30.012501L 18.75 31.549999C 19.472851 32.280586 19.472851 33.456913 18.75 34.1875ZM 16.0625 28.85C 15.34453 28.107868 15.364118 26.924221 16.106251 26.206249C 16.848383 25.488279 18.03203 25.507868 18.75 26.25L 21.4625 28.9625C 21.798542 29.293776 21.995295 29.74094 22.012501 30.2125C 22.012064 30.709614 21.814232 31.186207 21.4625 31.537502C 20.721437 32.234394 19.566063 32.234394 18.825001 31.537498ZM 24.012501 28.9C 23.666885 29.252741 23.193836 29.451519 22.700001 29.451519C 22.206163 29.451519 21.733114 29.252741 21.387499 28.9L 18.6625 26.25C 17.93965 25.519415 17.93965 24.343086 18.6625 23.612501C 19.00359 23.230991 19.488327 23.009008 20 23C 20.470711 23.020889 20.916586 23.217075 21.25 23.549999L 24.012501 26.25C 24.369871 26.598221 24.571426 27.076033 24.571426 27.575001C 24.571426 28.073969 24.369871 28.551781 24.012501 28.900002ZM 26.012501 25.112499C 26.026585 25.498913 25.83675 25.864346 25.512501 26.074999C 24.813673 26.447779 23.950388 26.292698 23.424999 25.700001L 21.887501 24.137501C 21.531664 23.794121 21.332764 23.319475 21.3375 22.825001C 21.332273 22.326773 21.530979 21.84807 21.887501 21.5C 22.630989 20.80925 23.781511 20.80925 24.524998 21.5C 26.174999 23.1625 26.025 23.012501 26.0375 23.0375M 16.0625 34.150002L 10.8875 39.3125M 30.237501 19.950001L 27.85 22.3375M 21.525 39.3125L 18.924999 36.700001M 16.25 39.324997L 28.300001 27.5L 26.25 25.375C 25.765465 24.660437 25.856518 23.70248 26.466999 23.091999C 27.077482 22.481518 28.035437 22.390465 28.75 22.875L 31.25 25.375C 32.149193 26.27301 32.654453 27.491684 32.654453 28.762499C 32.654453 30.033314 32.149193 31.251987 31.25 32.149998L 30.8375 32.575001C 29.435488 33.976177 29.435488 36.248821 30.8375 37.649998L 32.375 39.375M 30.8375 24.9125L 33.012501 22.75"></path></g></g></g><g id="g-root-tx_buyuseda_qqxhh81paq68-stroke" data-item-order="1000000000" data-item-id="tx_buyuseda_qqxhh81paq68" data-item-class="Label Stroke" data-item-index="none" data-renderer-id="0" transform="translate(369, 167)"></g><g id="g-root-tx_bionicsa_hvwybg1pj7rc-stroke" data-item-order="1000000000" data-item-id="tx_bionicsa_hvwybg1pj7rc" data-item-class="Label Stroke" data-item-index="none" data-renderer-id="0" transform="translate(363, 447)"></g><g id="g-root-tx_reliable_8z0zwc1phs78-stroke" data-item-order="1000000000" data-item-id="tx_reliable_8z0zwc1phs78" data-item-class="Label Stroke" data-item-index="none" data-renderer-id="0" transform="translate(675, 307)"></g><g id="g-root-shop_3dzng1phszx-stroke" data-item-order="1000000000" data-item-id="shop_3dzng1phszx" data-item-class="Icon Stroke" data-item-index="none" data-renderer-id="0" transform="translate(639, 316)"><g id="shop_3dzng1phszx-stroke" fill="none" stroke-linecap="round" stroke-linejoin="round" stroke-miterlimit="4" stroke="#1AC6FF" stroke-width="2"><g><path d="M 10.625 25C 10.625 32.939095 17.060907 39.375 25 39.375C 32.939095 39.375 39.375 32.939095 39.375 25C 39.375 17.060907 32.939095 10.625 25 10.625C 17.060907 10.625 10.625 17.060907 10.625 25M 15 25C 15 30.522846 19.477152 35 25 35C 30.522846 35 35 30.522846 35 25C 35 19.477152 30.522846 15 25 15C 19.477152 15 15 19.477152 15 25M 20.5375 26.0625C 24.4375 25.5625 28.975 23.5625 28.6875 21.1875C 28.424999 19.075001 25.674999 19.125 24.025 20C 20.599998 21.8375 18.9125 28.75 22.5 30.35C 25.325001 31.6 27.737499 28.099998 27.737499 28.099998"></path></g></g></g><g id="g-root-tx_hardtofi_40gqk1pdkwe-stroke" data-item-order="1000000000" data-item-id="tx_hardtofi_40gqk1pdkwe" data-item-class="Label Stroke" data-item-index="none" data-renderer-id="0" transform="translate(51, 307)"></g><g id="g-root-decr_1qclvwc1pf026-stroke" data-item-order="1000000000" data-item-id="decr_1qclvwc1pf026" data-item-class="Icon Stroke" data-item-index="none" data-renderer-id="0" transform="translate(215, 316)"><g id="decr_1qclvwc1pf026-stroke" fill="none" stroke-linecap="round" stroke-linejoin="round" stroke-miterlimit="4" stroke="#1AC6FF" stroke-width="2"><g><path d="M 11.88 24.375L 21.879999 24.375C 21.879999 24.375 22.504999 24.375 22.504999 25L 22.504999 27.5C 22.504999 27.5 22.504999 28.125 21.879999 28.125L 11.88 28.125C 11.88 28.125 11.255 28.125 11.255 27.5L 11.255 25C 11.255 25 11.255 24.375 11.88 24.375M 13.13 28.125L 23.129999 28.125C 23.129999 28.125 23.754999 28.125 23.754999 28.75L 23.754999 31.25C 23.754999 31.25 23.754999 31.875 23.129999 31.875L 13.13 31.875C 13.13 31.875 12.505 31.875 12.505 31.25L 12.505 28.75C 12.505 28.75 12.505 28.125 13.13 28.125M 11.88 31.875L 21.879999 31.875C 21.879999 31.875 22.504999 31.875 22.504999 32.5L 22.504999 35C 22.504999 35 22.504999 35.625 21.879999 35.625L 11.88 35.625C 11.88 35.625 11.255 35.625 11.255 35L 11.255 32.5C 11.255 32.5 11.255 31.875 11.88 31.875M 13.13 35.625L 23.129999 35.625C 23.129999 35.625 23.754999 35.625 23.754999 36.25L 23.754999 38.75C 23.754999 38.75 23.754999 39.375 23.129999 39.375L 13.13 39.375C 13.13 39.375 12.505 39.375 12.505 38.75L 12.505 36.25C 12.505 36.25 12.505 35.625 13.13 35.625M 28.129999 31.875L 38.130001 31.875C 38.130001 31.875 38.755001 31.875 38.755001 32.5L 38.755001 35C 38.755001 35 38.755001 35.625 38.130001 35.625L 28.129999 35.625C 28.129999 35.625 27.504999 35.625 27.504999 35L 27.504999 32.5C 27.504999 32.5 27.504999 31.875 28.129999 31.875M 26.879999 35.625L 36.880001 35.625C 36.880001 35.625 37.505001 35.625 37.505001 36.25L 37.505001 38.75C 37.505001 38.75 37.505001 39.375 36.880001 39.375L 26.879999 39.375C 26.879999 39.375 26.254999 39.375 26.254999 38.75L 26.254999 36.25C 26.254999 36.25 26.254999 35.625 26.879999 35.625M 11.875 10.625L 21.088751 19.83375C 21.539087 20.284369 22.256269 20.324211 22.75375 19.92625L 27.231251 16.34375C 27.739382 15.938108 28.473637 15.989739 28.92 16.4625L 38.75 26.875M 30.004999 26.875L 38.755001 26.875L 38.755001 18.75"></path></g></g></g><g id="g-root-tx_costeffe_4mycak1peyod-stroke" data-item-order="1000000000" data-item-id="tx_costeffe_4mycak1peyod" data-item-class="Label Stroke" data-item-index="none" data-renderer-id="0" transform="translate(251, 307)"></g><g id="g-root-tx_preserva_1qaqgn01pgf7p-stroke" data-item-order="1000000000" data-item-id="tx_preserva_1qaqgn01pgf7p" data-item-class="Label Stroke" data-item-index="none" data-renderer-id="0" transform="translate(463, 295)"></g><g id="g-root-car_1czwfcs1pgdmu-stroke" data-item-order="1000000000" data-item-id="car_1czwfcs1pgdmu" data-item-class="Icon Stroke" data-item-index="none" data-renderer-id="0" transform="translate(427, 316)"><g id="car_1czwfcs1pgdmu-stroke" fill="none" stroke-linecap="round" stroke-linejoin="round" stroke-miterlimit="4" stroke="#1AC6FF" stroke-width="2"><g><path d="M 11.875 31.324999C 11.875 33.396069 13.553932 35.075001 15.625 35.075001C 17.696068 35.075001 19.375 33.396069 19.375 31.325001C 19.375 29.253933 17.696068 27.575001 15.625 27.575001C 13.553932 27.575001 11.875 29.253933 11.875 31.325001M 15.625 31.324999L 15.625 27.575001M 15.625 31.324999L 12.0625 30.162498M 15.625 31.324999L 13.425 34.362499M 15.625 31.324999L 17.825001 34.362499M 15.625 31.324999L 19.1875 30.162498M 30.625 31.324999C 30.625 33.396069 32.303932 35.075001 34.375 35.075001C 36.446068 35.075001 38.125 33.396069 38.125 31.325001C 38.125 29.253933 36.446068 27.575001 34.375 27.575001C 32.303932 27.575001 30.625 29.253933 30.625 31.325001M 34.375 31.324999L 34.375 27.575001M 34.375 31.324999L 30.8125 30.162498M 34.375 31.324999L 32.174999 34.362499M 34.375 31.324999L 36.575001 34.362499M 34.375 31.324999L 37.9375 30.162498M 10.625 27.575001C 12.239114 25.422848 15.049285 24.545017 17.601423 25.395729C 20.153563 26.246443 21.875 28.634811 21.875 31.324999L 27.5 31.324999C 27.826559 31.326046 28.098877 31.075514 28.125 30.75C 28.35079 28.162161 30.153751 25.98377 32.653767 25.27821C 35.153782 24.572651 37.829594 25.487032 39.375 27.575001M 28.125 28.825001L 28.125 17.575001L 20.625 17.575001L 20.625 24.137501M 36.412498 25.4125C 36.702847 25.176975 36.872528 24.823854 36.875 24.450001C 36.875 23.414467 36.035534 22.575001 35 22.575001L 33.125 22.575001C 31.744287 22.575001 30.625 23.694288 30.625 25.075001C 30.623302 25.446529 30.704437 25.813766 30.862501 26.15M 20.625 17.575001C 20.624559 16.483047 21.420826 15.554069 22.5 15.3875L 25 15C 25.767736 14.860062 26.558125 15.065637 27.160391 15.561903C 27.762655 16.05817 28.115561 16.794668 28.124998 17.574999M 13.125 25.599998L 13.125 21.325001M 13.125 22.575001L 15.625 22.575001C 19.495422 22.574007 22.906666 25.115917 24.012501 28.825001L 28.125 28.825001M 22.799999 26.325001L 25 26.325001C 25.342386 26.31835 25.618349 26.042385 25.625 25.699999L 25.625 23.825001C 25.625 23.134644 26.184643 22.575001 26.875 22.575001L 28.125 22.575001"></path></g></g></g><g id="g-root-cu_1449f3w1pj7k5-stroke" data-item-order="1000000002" data-item-id="cu_1449f3w1pj7k5" data-item-class="Curve Stroke" data-item-index="none" data-renderer-id="0" transform="translate(405, 227)"><g id="cu_1449f3w1pj7k5-stroke" fill="none" stroke-linecap="round" stroke-linejoin="round" stroke-miterlimit="4" stroke="#A3A3A3" stroke-width="2"><g><path d="M 10 10L 10 24L 10 38L 157 38L 304 38L 304 52L 304 64"></path><path d="M 297.5 58L 304 64.5L 310.5 58" stroke-dasharray="none"></path></g></g></g><g id="g-root-cu_1449f3w1pj7k7-stroke" data-item-order="1000000002" data-item-id="cu_1449f3w1pj7k7" data-item-class="Curve Stroke" data-item-index="none" data-renderer-id="0" transform="translate(93, 379)"><g id="cu_1449f3w1pj7k7-stroke" fill="none" stroke-linecap="round" stroke-linejoin="round" stroke-miterlimit="4" stroke="#A3A3A3" stroke-width="2"><g><path d="M 10 10L 10 24L 10 38L 166 38L 322 38L 322 52L 322 64"></path><path d="M 315.5 58L 322 64.5L 328.5 58" stroke-dasharray="none"></path></g></g></g><g id="g-root-cu_zofwzg1pj8ci-stroke" data-item-order="1000000002" data-item-id="cu_zofwzg1pj8ci" data-item-class="Curve Stroke" data-item-index="none" data-renderer-id="0" transform="translate(299, 379)"><g id="cu_zofwzg1pj8ci-stroke" fill="none" stroke-linecap="round" stroke-linejoin="round" stroke-miterlimit="4" stroke="#A3A3A3" stroke-width="2"><g><path d="M 10 10L 10 24L 10 38L 63 38L 116 38L 116 52L 116 64"></path><path d="M 109.5 58L 116 64.5L 122.5 58" stroke-dasharray="none"></path></g></g></g><g id="g-root-cu_zofwzg1pj8ck-stroke" data-item-order="1000000002" data-item-id="cu_zofwzg1pj8ck" data-item-class="Curve Stroke" data-item-index="none" data-renderer-id="0" transform="translate(405, 379)"><g id="cu_zofwzg1pj8ck-stroke" fill="none" stroke-linecap="round" stroke-linejoin="round" stroke-miterlimit="4" stroke="#A3A3A3" stroke-width="2"><g><path d="M 116 10L 116 24L 116 38L 63 38L 10 38L 10 52L 10 64"></path><path d="M 3.5 58L 10 64.5L 16.5 58" stroke-dasharray="none"></path></g></g></g><g id="g-root-cu_zofwzg1pj8cm-stroke" data-item-order="1000000002" data-item-id="cu_zofwzg1pj8cm" data-item-class="Curve Stroke" data-item-index="none" data-renderer-id="0" transform="translate(405, 379)"><g id="cu_zofwzg1pj8cm-stroke" fill="none" stroke-linecap="round" stroke-linejoin="round" stroke-miterlimit="4" stroke="#A3A3A3" stroke-width="2"><g><path d="M 304 10L 304 24L 304 38L 157 38L 10 38L 10 52L 10 64"></path><path d="M 3.5 58L 10 64.5L 16.5 58" stroke-dasharray="none"></path></g></g></g><g id="g-root-cu_1449f3w1pj7k3-stroke" data-item-order="1000000002" data-item-id="cu_1449f3w1pj7k3" data-item-class="Curve Stroke" data-item-index="none" data-renderer-id="0" transform="translate(405, 227)"><g id="cu_1449f3w1pj7k3-stroke" fill="none" stroke-linecap="round" stroke-linejoin="round" stroke-miterlimit="4" stroke="#A3A3A3" stroke-width="2"><g><path d="M 10 10L 10 24L 10 38L 63 38L 116 38L 116 52L 116 64"></path><path d="M 109.5 58L 116 64.5L 122.5 58" stroke-dasharray="none"></path></g></g></g><g id="g-root-cu_18k2x8c1pj6rq-stroke" data-item-order="1000000002" data-item-id="cu_18k2x8c1pj6rq" data-item-class="Curve Stroke" data-item-index="none" data-renderer-id="0" transform="translate(93, 227)"><g id="cu_18k2x8c1pj6rq-stroke" fill="none" stroke-linecap="round" stroke-linejoin="round" stroke-miterlimit="4" stroke="#A3A3A3" stroke-width="2"><g><path d="M 322 10L 322 24L 322 38L 166 38L 10 38L 10 52L 10 64"></path><path d="M 3.5 58L 10 64.5L 16.5 58" stroke-dasharray="none"></path></g></g></g><g id="g-root-cu_18k2x8c1pj6rn-stroke" data-item-order="1000000002" data-item-id="cu_18k2x8c1pj6rn" data-item-class="Curve Stroke" data-item-index="none" data-renderer-id="0" transform="translate(405, 99)"><g id="cu_18k2x8c1pj6rn-stroke" fill="none" stroke-linecap="round" stroke-linejoin="round" stroke-miterlimit="4" stroke="#A3A3A3" stroke-width="2"><g><path d="M 10 10L 10 38L 10 64"></path><path d="M 3.5 58L 10 64.5L 16.5 58" stroke-dasharray="none"></path></g></g></g><g id="g-root-cu_1449f3w1pj7k1-stroke" data-item-order="1000000002" data-item-id="cu_1449f3w1pj7k1" data-item-class="Curve Stroke" data-item-index="none" data-renderer-id="0" transform="translate(299, 227)"><g id="cu_1449f3w1pj7k1-stroke" fill="none" stroke-linecap="round" stroke-linejoin="round" stroke-miterlimit="4" stroke="#A3A3A3" stroke-width="2"><g><path d="M 116 10L 116 24L 116 38L 63 38L 10 38L 10 52L 10 64"></path><path d="M 3.5 58L 10 64.5L 16.5 58" stroke-dasharray="none"></path></g></g></g></g></g></svg>